<svg height="48" viewBox="0 0 48 48" width="48" xmlns="http://www.w3.org/2000/svg" xmlns:xlink="http://www.w3.org/1999/xlink"><defs><rect id="a" height="48" rx="11.815385" width="48"/><mask id="b" fill="#fff"><use fill="#fff" fill-rule="evenodd" xlink:href="#a"/></mask></defs><g fill="none" fill-rule="evenodd"><use fill="#78859d" fill-rule="nonzero" xlink:href="#a"/><g mask="url(#b)"><g transform="translate(9.428571 3.428571)"><rect fill="#b4c1d6" height="29.142857" rx="14.571429" width="29.142857"/><path d="m17.9812646 6c0 1.8965087-1.5266356 3.43393276-3.409836 3.43393276-1.8832005 0-3.4098361-1.53742406-3.4098361-3.43393276s1.5266356-3.43393276 3.4098361-3.43393276c1.8832004 0 3.409836 1.53742406 3.409836 3.43393276zm0 17.1428571c0 1.8965087-1.5266356 3.4339328-3.409836 3.4339328-1.8832005 0-3.4098361-1.5374241-3.4098361-3.4339328s1.5266356-3.4339327 3.4098361-3.4339327c1.8832004 0 3.409836 1.537424 3.409836 3.4339327zm-8.58483186-8.5714285c0 1.8965087-1.52663561 3.4339327-3.40983607 3.4339327s-3.40983606-1.537424-3.40983606-3.4339327 1.5266356-3.4339328 3.40983606-3.4339328 3.40983607 1.5374241 3.40983607 3.4339328zm17.16966376 0c0 1.8965087-1.5266356 3.4339327-3.409836 3.4339327-1.8832005 0-3.4098361-1.537424-3.4098361-3.4339327s1.5266356-3.4339328 3.4098361-3.4339328c1.8832004 0 3.409836 1.5374241 3.409836 3.4339328z" fill="#5e6d8a"/><ellipse cx="14.571429" cy="14.562061" fill="#6b7a96" opacity=".559208" rx="1.714286" ry="1.704918" transform="matrix(0 -1 1 0 .009368 29.13349)"/></g></g><g mask="url(#b)"><g transform="matrix(0 -1 1 0 0 48)"><path d="m12 0h1.3v48h-1.3c-6.627417 0-12-5.372583-12-12v-24c0-6.627417 5.372583-12 12-12z" fill="#f5f9fa" fill-rule="evenodd"/><path d="m7.71428571 29.1428571h-1.28571428c-2.36693464 0-4.28571429-1.9187796-4.28571429-4.2857142v-1.7142858c0-2.3669346 1.91877965-4.2857142 4.28571429-4.2857142h1.28571428v-5.1428572c0-.9467738.76751186-1.7142857 1.71428572-1.7142857.94677387 0 1.71428567.7675119 1.71428567 1.7142857v20.5714286c0 .9467738-.7675118 1.7142857-1.71428567 1.7142857-.94677386 0-1.71428572-.7675119-1.71428572-1.7142857z" fill="#bdc9d0" fill-rule="nonzero" opacity=".500257"/></g></g></g></svg>