<svg height="48" viewBox="0 0 49 48" width="49" xmlns="http://www.w3.org/2000/svg" xmlns:xlink="http://www.w3.org/1999/xlink"><defs><rect id="a" height="43.675676" rx="10.633846" width="43.145631"/><path id="b" d="m17.9323718-5.39678418h20.0388349v4.72874939l-4.6900329 3.31012458v3.31012458 10.57442993 15.131998-1.4186248l4.6900329 3.3101246v4.7287494h-20.0388349c-6.627417 0-12-5.372583-12-12v-19.67567568c0-6.627417 5.372583-12 12-12z"/><mask id="c" fill="#fff"><use fill="#fff" fill-rule="evenodd" xlink:href="#a"/></mask><mask id="d" fill="#fff"><use fill="#fff" fill-rule="evenodd" xlink:href="#b"/></mask></defs><g fill="none" fill-rule="evenodd" transform="translate(3)"><g transform="translate(.427184)"><use fill="#78859d" fill-rule="nonzero" xlink:href="#a"/><g mask="url(#c)"><g transform="translate(-.427184 11.499641)"><use fill="#dee4e8" fill-rule="evenodd" transform="matrix(0 -1 1 0 5.510735 38.392843)" xlink:href="#b"/><path d="m16.8737864 4.82470333h9.8252427v45.83783787h-9.8252427z" fill="#bdc9d0" fill-rule="nonzero" mask="url(#d)" transform="matrix(0 -1 1 0 -5.957214 49.53003)"/></g></g></g><rect fill="#55647f" height="3.459459" rx="1.72973" width="18.796117" x="13.242718" y="7.783784"/><g fill="#b4c1d6" transform="matrix(0 -1 1 0 11.829966 42.779323)"><rect height="2.594595" rx="1.297297" width="5.126214"/><rect height="2.594595" rx="1.297297" width="5.126214" y="4.756757"/><rect height="2.594595" rx="1.297297" width="5.126214" y="9.513514"/><rect height="2.594595" rx="1.297297" width="5.126214" y="14.27027"/><rect height="2.594595" rx="1.297297" width="5.126214" y="19.027027"/></g><g transform="translate(10.679612 22.486486)"><path d="m11.1067961 0c6.1341141 0 11.1067961 4.972682 11.1067961 11.1067961v4.5495746c0 5.4439496-4.4131931 9.8571428-9.8571428 9.8571428h-2.49930654c-5.44394968 0-9.85714286-4.4131932-9.85714286-9.8571428v-4.5495746c0-6.1341141 4.972682-11.1067961 11.1067961-11.1067961z" fill="#f5f9fa" fill-rule="nonzero"/><rect fill="#78859d" fill-rule="nonzero" height="13.837838" rx="6.918919" width="17.087379" x="2.563107" y="11.675676"/><ellipse cx="11.106796" cy="18.594595" fill="#44526c" rx="2.135922" ry="2.162162"/></g></g></svg>