<svg height="48" viewBox="0 0 48 48" width="48" xmlns="http://www.w3.org/2000/svg" xmlns:xlink="http://www.w3.org/1999/xlink"><defs><rect id="a" height="43.675676" rx="10.633846" width="43.145631"/><path id="b" d="m17.9323718-5.39678418h20.0388349v4.72874939l-4.6900329 3.31012458v3.31012458 10.57442993 15.131998-1.4186248l4.6900329 3.3101246v4.7287494h-20.0388349c-6.627417 0-12-5.372583-12-12v-19.67567568c0-6.627417 5.372583-12 12-12z"/><path id="c" d="m7.24811307-.27168155c3.70176583 0 6.70263993 2.99352971 6.70263993 6.70611077v14.80977768c0 3.7036828-3.0084064 6.7061108-6.70263993 6.7061108-3.70176582 0-6.70263994-2.9935297-6.70263994-6.7061108v-14.80977768c0-3.70368271 3.00840647-6.70611077 6.70263994-6.70611077z"/><mask id="d" fill="#fff"><use fill="#fff" fill-rule="evenodd" xlink:href="#a"/></mask><mask id="e" fill="#fff"><use fill="#fff" fill-rule="evenodd" xlink:href="#b"/></mask><mask id="f" fill="#fff"><use fill="#fff" fill-rule="evenodd" xlink:href="#c"/></mask></defs><g fill="none" fill-rule="evenodd" transform="translate(2)"><g transform="translate(.427184)"><use fill="#78859d" fill-rule="nonzero" xlink:href="#a"/><g mask="url(#d)"><g transform="translate(-.427184 11.499641)"><use fill="#dee4e8" fill-rule="evenodd" transform="matrix(0 -1 1 0 5.510735 38.392843)" xlink:href="#b"/><path d="m16.8737864 4.82470333h9.8252427v45.83783787h-9.8252427z" fill="#bdc9d0" fill-rule="nonzero" mask="url(#e)" transform="matrix(0 -1 1 0 -5.957214 49.53003)"/></g></g></g><rect fill="#55647f" height="3.459459" rx="1.72973" width="18.796117" x="13.242718" y="7.783784"/><g fill="#b4c1d6" transform="matrix(0 -1 1 0 11.829966 42.779323)"><rect height="2.594595" rx="1.297297" width="5.126214"/><rect height="2.594595" rx="1.297297" width="5.126214" y="4.756757"/><rect height="2.594595" rx="1.297297" width="5.126214" y="9.513514"/><rect height="2.594595" rx="1.297297" width="5.126214" y="14.27027"/><rect height="2.594595" rx="1.297297" width="5.126214" y="19.027027"/></g><g transform="matrix(0 -1 1 0 7.331514 47.859854)"><path d="m6.82092861.18423443h8.09847429c3.0770151 0 5.5714286 2.49441354 5.5714286 5.57142857v17.3957128c0 3.077015-2.4944135 5.5714286-5.5714286 5.5714286h-8.09847429z" fill="#f5f9fa"/><g transform="translate(0 .615187)"><use fill="#78859d" xlink:href="#c"/><ellipse cx="6.820929" cy="13.837838" fill="#44526c" mask="url(#f)" rx="2.990291" ry="3.027027"/></g></g></g></svg>