<svg height="48" viewBox="0 0 48 48" width="48" xmlns="http://www.w3.org/2000/svg"><g fill="none" fill-rule="evenodd"><rect fill="#f5f9fa" fill-rule="nonzero" height="48" rx="11.815385" width="48"/><path d="m9.40993789 12.3913043c-1.64656323 0-2.98136646-1.3348032-2.98136646-2.98136641 0-1.64656323 1.33480323-2.98136646 2.98136646-2.98136646 1.64656321 0 2.98136641 1.33480323 2.98136641 2.98136646 0 1.64656321-1.3348032 2.98136641-2.98136641 2.98136641zm0 9.0186336c-1.64656323 0-2.98136646-1.3348032-2.98136646-2.9813665 0-1.6465632 1.33480323-2.9813664 2.98136646-2.9813664 1.64656321 0 2.98136641 1.3348032 2.98136641 2.9813664 0 1.6465633-1.3348032 2.9813665-2.98136641 2.9813665zm29.18012421 0c-1.6465632 0-2.9813664-1.3348032-2.9813664-2.9813665 0-1.6465632 1.3348032-2.9813664 2.9813664-2.9813664s2.9813665 1.3348032 2.9813665 2.9813664c0 1.6465633-1.3348033 2.9813665-2.9813665 2.9813665zm2.9813665-12.00000001c0 1.64656321-1.3348033 2.98136641-2.9813665 2.98136641s-2.9813664-1.3348032-2.9813664-2.98136641c0-1.64656323 1.3348032-2.98136646 2.9813664-2.98136646s2.9813665 1.33480323 2.9813665 2.98136646zm-32.16149071 21.01863351c-1.64656323 0-2.98136646-1.3348032-2.98136646-2.9813664 0-1.6465633 1.33480323-2.9813665 2.98136646-2.9813665 1.64656321 0 2.98136641 1.3348032 2.98136641 2.9813665 0 1.6465632-1.3348032 2.9813664-2.98136641 2.9813664zm29.18012421 0c-1.6465632 0-2.9813664-1.3348032-2.9813664-2.9813664 0-1.6465633 1.3348032-2.9813665 2.9813664-2.9813665s2.9813665 1.3348032 2.9813665 2.9813665c0 1.6465632-1.3348033 2.9813664-2.9813665 2.9813664z" fill="#d0dbe1"/><g transform="matrix(0 -1 1 0 0 48)"><path d="m12 0h1.3v48h-1.3c-6.627417 0-12-5.372583-12-12v-24c0-6.627417 5.372583-12 12-12z" fill="#599be0"/><rect fill="#35649e" height="5.333333" rx="2.666667" transform="matrix(0 1 -1 0 30.666667 17.523809)" width="16" x="-1.428571" y="21.428571"/></g></g></svg>