<svg height="48" viewBox="0 0 48 48" width="48" xmlns="http://www.w3.org/2000/svg" xmlns:xlink="http://www.w3.org/1999/xlink"><defs><path id="a" d="m-4.76190476 8.6031746h20.69841266c1.8935478 0 3.4285715 1.5350237 3.4285715 3.4285714v3.8095238c0 1.8935478-1.5350237 3.4285715-3.4285715 3.4285715h-20.69841266c-1.89354772 0-3.42857143-1.5350237-3.42857143-3.4285715v-3.8095238c0-1.8935477 1.53502371-3.4285714 3.42857143-3.4285714z"/><mask id="b" fill="#fff"><use fill="#fff" fill-rule="evenodd" xlink:href="#a"/></mask></defs><g fill="none" fill-rule="evenodd"><rect fill="#f5f9fa" fill-rule="nonzero" height="48" rx="12" width="48"/><g transform="matrix(0 -1 1 0 10.285715 17.571429)"><use fill="#514b90" transform="matrix(0 1 -1 0 19.52381 8.349206)" xlink:href="#a"/><path d="m-5.80141955 17.6082494v-6.8466086h4.08695741v6.8466086zm.36286071-.3533118h3.361236v-6.149534h-3.361236zm.46789932-3.3432701h2.47318218v.3437628h-2.47318218zm4.83261181 3.6965819v-6.8466086h4.08695741v6.8466086zm.36286071-.3533118h3.361236v-6.149534h-3.361236zm.46789933-3.3432701h2.47318217v.3437628h-2.47318217zm4.81267882 3.0758991v-.7734662h.69707451v.7734662zm1.90024421.6206828v-6.8466086h4.08695744v6.8466086zm.36286071-.3533118h3.36123603v-6.149534h-3.36123603zm.46789933-3.3432701h2.4731822v.3437628h-2.4731822zm4.8326118 3.6965819v-6.8466086h4.0869574v6.8466086zm.3628607-.3533118h3.361236v-6.149534h-3.361236zm.4678993-3.3432701h2.4731822v.3437628h-2.4731822z" fill="#ffa300" mask="url(#b)" stroke="#ffa300" stroke-width=".5" transform="matrix(0 1 -1 0 19.862218 8.507672)"/></g><path d="m5.98136646 23.9627329c-1.64656323 0-2.98136646-1.3348032-2.98136646-2.9813664 0-1.6465633 1.33480323-2.9813665 2.98136646-2.9813665s2.98136646 1.3348032 2.98136646 2.9813665c0 1.6465632-1.33480323 2.9813664-2.98136646 2.9813664zm0-11.1614907c-1.64656323 0-2.98136646-1.3348032-2.98136646-2.98136642 0-1.64656323 1.33480323-2.98136646 2.98136646-2.98136646s2.98136646 1.33480323 2.98136646 2.98136646c0 1.64656322-1.33480323 2.98136642-2.98136646 2.98136642zm36.00000004 11.1614907c-1.6465633 0-2.9813665-1.3348032-2.9813665-2.9813664 0-1.6465633 1.3348032-2.9813665 2.9813665-2.9813665 1.6465632 0 2.9813664 1.3348032 2.9813664 2.9813665 0 1.6465632-1.3348032 2.9813664-2.9813664 2.9813664zm0-11.1614907c-1.6465633 0-2.9813665-1.3348032-2.9813665-2.98136642 0-1.64656323 1.3348032-2.98136646 2.9813665-2.98136646 1.6465632 0 2.9813664 1.33480323 2.9813664 2.98136646 0 1.64656322-1.3348032 2.98136642-2.9813664 2.98136642zm-36.00000004 18.89441c-1.64656323 0-2.98136646-1.3348033-2.98136646-2.9813665s1.33480323-2.9813664 2.98136646-2.9813664 2.98136646 1.3348032 2.98136646 2.9813664-1.33480323 2.9813665-2.98136646 2.9813665zm36.03726704 0c-1.6465632 0-2.9813664-1.3348033-2.9813664-2.9813665s1.3348032-2.9813664 2.9813664-2.9813664c1.6465633 0 2.9813665 1.3348032 2.9813665 2.9813664s-1.3348032 2.9813665-2.9813665 2.9813665z" fill="#d0dbe1"/><g transform="matrix(0 -1 1 0 0 48)"><path d="m12 0h1.3v48h-1.3c-6.627417 0-12-5.372583-12-12v-24c0-6.627417 5.372583-12 12-12z" fill="#bdc9d0"/><g fill="#96abb7" transform="translate(3.857143 12.428571)"><path d="m.57142857 2.38095238h4.66666667c1.47275933 0 2.66666666 1.19390733 2.66666666 2.66666667 0 1.47275933-1.19390733 2.66666666-2.66666666 2.66666666h-4.66666667c-1.47275933 0-2.66666667-1.19390733-2.66666667-2.66666666 0-1.47275934 1.19390734-2.66666667 2.66666667-2.66666667z" transform="matrix(0 1 -1 0 7.952381 2.142857)"/><path d="m.45952381 15.8190943h4.66666667c1.47275933 0 2.66666666 1.1939074 2.66666666 2.6666667 0 1.4727593-1.19390733 2.6666666-2.66666666 2.6666666h-4.66666667c-1.47275933 0-2.66666667-1.1939073-2.66666667-2.6666666 0-1.4727593 1.19390734-2.6666667 2.66666667-2.6666667z" transform="matrix(0 1 -1 0 21.278618 15.692904)"/></g></g></g></svg>