<svg height="48" viewBox="0 0 48 48" width="48" xmlns="http://www.w3.org/2000/svg"><g fill="none" fill-rule="evenodd"><g fill-rule="nonzero"><rect fill="#555b67" height="47.687318" opacity=".717042" rx="12" width="47.687318"/><rect fill="#555b67" height="48" opacity=".8" rx="12" width="48"/><path d="m22.3534304 0h2.9804573v2.98045738c0 .82303058-.6671981 1.49022869-1.4902287 1.49022869-.8230305 0-1.4902286-.66719811-1.4902286-1.49022869z" fill="#60d064"/></g><g transform="translate(5.960915 5.960915)"><rect fill="#fed948" height="35.765489" rx="5.453254" width="35.765489"/><path d="m17.9282715 25.082728c3.9997794 0 7.2422413-3.2228106 7.2422413-7.1983489 0-3.9755384-3.2424619-7.198349-7.2422413-7.198349-3.9997795 0-7.2422414 3.2228106-7.2422414 7.198349 0 3.9755383 3.2424619 7.1983489 7.2422414 7.1983489z" fill="#fff"/><g fill="#e29f41"><path d="m17.8429684 31.4564966-1.793384.9371236.3425059-1.9848596-1.4508781-1.4056854 2.0050642-.2895871.896692-1.8058849.896692 1.8058849 2.0050642.2895871-1.4508781 1.4056854.3425059 1.9848596z"/><ellipse cx="30.440891" cy="17.776809" rx="2.526363" ry="2.511052"/><path d="m3.271234 15.48384h4.715878v4.687297h-4.715878z"/><path d="m17.8661744 2.71917189 2.8632117 4.687297h-5.7264234z"/></g></g></g></svg>