<svg height="160" viewBox="0 0 192 160" width="192" xmlns="http://www.w3.org/2000/svg"><g fill="none" fill-rule="evenodd" transform="translate(5 20)"><rect fill="#d5dbe4" fill-rule="nonzero" height="10.5" rx="5.25" width="72" x="56" y="105"/><g fill-rule="nonzero" transform="translate(44 6)"><g transform="translate(26 71)"><path d="m7.78248565.21687669 8.50212425.56624662-6.0670956 26.09031339-2.43502865-.5662466z" fill="#171e2b"/><path d="m32.2520549.42835417 8.1245031.14329166-5.6286129 26.09031347-2.4958902-.1432917z" fill="#171e2b"/><g fill="#363f50"><path d="m47.1410256 28.2881356v3.9681356c0 .7290159-.5909841 1.32-1.32 1.32h-20.0010256c-.7290159 0-1.32-.5909841-1.32-1.32v-2.9681356c0-2.4269741 1.8539423-4.451904 4.2715025-4.6654597l13.1018995-1.1573592c2.6635694-.235287 5.0135567 1.7332248 5.2488437 4.3967941.0125139.1416635.0187799.2838096.0187799.4260248z"/><path d="m22.6410256 28.2881356v3.9681356c0 .7290159-.5909841 1.32-1.32 1.32h-20.0010256c-.72901587 0-1.32-.5909841-1.32-1.32v-2.9681356c0-2.4269741 1.85394227-4.451904 4.27150247-4.6654597l13.10189953-1.1573592c2.6635694-.235287 5.0135567 1.7332248 5.2488437 4.3967941.0125139.1416635.0187799.2838096.0187799.4260248z"/></g></g><g transform="matrix(-1 0 0 -1 104 61.5)"><path d="m20.368532.27892892c-6.3789026 3.66502163-10.82591875 7.72396333-13.34104833 12.17682508-2.51512958 4.4528617-3.89903542 8.5118034-4.1517175 12.1768251" stroke="#171e2b" stroke-width="2.5"/><path d="m1 22h4.5c2.48528137 0 4.5 2.0147186 4.5 4.5 0 2.4852814-2.01471863 4.5-4.5 4.5-2.48528137 0-4.5-2.0147186-4.5-4.5z" fill="#353e4f" transform="matrix(.98768834 .15643447 -.15643447 .98768834 4.213227 -.534131)"/></g><g transform="translate(1.5 56.5)"><path d="m20.368532.27892892c-6.3789026 3.66502163-10.82591875 7.72396333-13.34104833 12.17682508-2.51512958 4.4528617-3.89903542 8.5118034-4.1517175 12.1768251" stroke="#171e2b" stroke-width="2.5"/><path d="m1 22h4.5c2.48528137 0 4.5 2.0147186 4.5 4.5 0 2.4852814-2.01471863 4.5-4.5 4.5-2.48528137 0-4.5-2.0147186-4.5-4.5z" fill="#353e4f" transform="matrix(.98768834 .15643447 -.15643447 .98768834 4.213227 -.534131)"/></g><path d="m12 19.5h4v12h-4z" fill="#171e2b"/><rect fill="#353e4f" height="76.5" rx="16" width="70" x="16"/><path d="m32 0v76.5c-8.836556 0-16-7.163444-16-16v-44.5c0-8.836556 7.163444-16 16-16z" fill="#171e2b" opacity=".348214"/><path d="m86 0v76.5c-8.836556 0-16-7.163444-16-16v-44.5c0-8.836556 7.163444-16 16-16z" fill="#171e2b" opacity=".348214" transform="matrix(-1 0 0 1 156 0)"/><path d="m43 0h16v21c0 4.418278-3.581722 8-8 8-4.418278 0-8-3.581722-8-8z" fill="#2a3242"/><path d="m43 47.5h16v21c0 4.418278-3.581722 8-8 8-4.418278 0-8-3.581722-8-8z" fill="#2a3242" transform="matrix(-1 0 0 -1 102 124)"/><path d="m6 5.5h4c1.1045695 0 2 .8954305 2 2v36c0 1.1045695-.8954305 2-2 2h-4c-3.3137085 0-6-2.6862915-6-6v-28c0-3.3137085 2.6862915-6 6-6z" fill="#353e4f"/><g transform="translate(33.5 50)"><rect fill="#f9f9f9" height="10" rx="5" width="10"/><rect fill="#353e4f" height="4" rx="2" width="4" x="4" y="4"/><rect fill="#f9f9f9" height="10" rx="5" width="10" x="34.5"/><rect fill="#353e4f" height="4" rx="2" width="4" x="38.5" y="4"/><path d="m12.5 14h19.5c-2.0576986 2.6666667-5.3076986 4-9.75 4s-7.6923014-1.3333333-9.75-4z" fill="#eba514"/></g></g><g fill="#eeac7c" transform="translate(.5 13)"><path d="m173.796956 32.2678518c.646946-.6977499 1.613543-1.0780888 2.627227-.9356249 1.64563.2312783 2.792189 1.7528133 2.56091 3.3984436l-.520987 3.7070215c-.270325 5.8670029-.824929 8.2684542-1.443333 10.9315462-1.341505 5.7770479-6.697007 9.8270147-13.12195 10.2487876-6.424942.421773-12.587765-2.1652841-15.274473-7.0644675-.532846-.9716393-.932629-2.1346387-3.141773-5.1909633-1.111162-1.5372803-3.022608-3.6664987-7.405436-6.5051194-1.730487-1.1207952-2.712482-4.2350095-1.034789-6.4757344 2.586961-3.4551414 6.387932-1.4750636 7.55336.3337287 3.201789 4.9693064 4.712813 7.1779237 6.392223 7.2371018.901211.0317563 1.235512-1.341344 1.30866-3.3803905-.089195-2.3280558-.535369-10.9566276-1.338523-25.8857154l.000017-.0000009c-.119975-2.2301058 1.590624-4.13522281 3.82073-4.25519787.080345-.00432241.160802-.00624586.241262-.00576776 2.36265.01403896 4.266575 1.94072613 4.252536 4.30337623-.00003.0050293-.000068.0100585-.000116.0150877l-.150216 15.863753c.685318-2.0022951 2.853462-3.0907901 4.873446-2.4344573 1.815079.5897546 2.898868 2.3895607 2.648451 4.2161273.917424-1.4236401 2.699482-2.1274178 4.399134-1.6077823 1.596093.4879748 2.649136 1.9110128 2.742124 3.484846z" transform="matrix(.80901699 -.58778525 .58778525 .80901699 10.087401 99.133867)"/><g transform="matrix(-.80901699 -.58778525 -.58778525 .80901699 66.933844 60.849088)"><path d="m19.1537837.25950916c2.3626501.01403895 4.2665756 1.9407261 4.2525366 4.30337618-.0000299.00502932-.0000686.01005859-.0001162.01508778l-.2815288 29.73111438c-.0187001 1.9748374-1.6249127 3.5659125-3.5998386 3.5659125h-.3170445c-1.7545444 0-3.1768837-1.4223393-3.1768837-3.1768838 0-.1838491.0159592-.3673513.0476979-.5484401.2546818-1.4531396.3773597-2.5248034.3680297-3.2149923-.0148043-1.0951456-.4664246-9.8998816-1.354861-26.41420812l.0000168-.0000009c-.1199751-2.23010583 1.5906239-4.13522281 3.8207297-4.25519786.0803454-.00432242.1608019-.00624586.2412621-.00576776z"/><path d="m15.121638 33.7865816c1.6794096.059178 1.3901414-4.7602062 1.1108398-9.6764602l21.0276536-.0483726c2.9694195-.0068308 5.3821123 2.4100848 5.3889002 5.3983322.0005546.2441505-.0364796.487345-.0474933.7300528-.2689291 5.9263793-.8258002 8.3377144-1.4470624 11.0131143-1.3415048 5.7770479-6.697007 9.8270146-13.1219494 10.2487876-6.4249424.4217729-12.5877657-2.1652841-15.2744731-7.0644676-.532846-.9716392-.932629-2.1346387-3.1417729-5.1909632-1.11116256-1.5372803-3.02260808-3.6664988-7.40543613-6.5051194-1.73048771-1.1207953-2.71248255-4.2350095-1.0347891-6.4757345 2.58696096-3.4551413 6.38793171-1.4750636 7.55336022.3337288 3.20178891 4.9693064 4.71281291 7.1779237 6.39222251 7.2371018z"/><path d="m26.2716536 17.7130252c2.1445862 0 3.8831168 1.7385306 3.8831168 3.8831169v4.5406926c0 1.9882251-1.6117749 3.6-3.6 3.6h-.5662337c-1.9882251 0-3.6-1.6117749-3.6-3.6v-4.5406926c0-2.1445863 1.7385306-3.8831169 3.8831169-3.8831169z" transform="matrix(.95105652 .30901699 -.30901699 .95105652 8.617233 -6.957207)"/><path d="m33.4193077 20.3529221c2.1445862 0 3.8831169 1.7385307 3.8831169 3.8831169v4.5406927c0 1.9882251-1.6117749 3.6-3.6 3.6h-.5662338c-1.9882251 0-3.6-1.6117749-3.6-3.6v-4.5406927c0-2.1445862 1.7385306-3.8831169 3.8831169-3.8831169z" transform="matrix(.95630476 .2923717 -.2923717 .95630476 9.168594 -8.618843)"/><path d="m39.7211901 23.1077294c1.6618028 0 3.0089602 1.3471574 3.0089602 3.0089602v6.6148493c0 1.3254834-1.0745166 2.4-2.4 2.4h-1.2179204c-1.3254834 0-2.4-1.0745166-2.4-2.4v-6.6148493c0-1.6618028 1.3471574-3.0089602 3.0089602-3.0089602z" transform="matrix(.99026807 .1391731 -.1391731 .99026807 4.439234 -5.244731)"/></g></g><g stroke="#fed948" stroke-linecap="round" stroke-width="3"><g transform="matrix(.25881905 -.96592583 -.96592583 -.25881905 20.458854 46.885858)"><path d="m0 18.5c16.1222064 0 30.7592412-6.3587755 41.539947-16.70516886"/><path d="m35.5 0h7.0507891v7.37704911z" stroke-linejoin="round"/></g><g transform="matrix(-.25881905 .96592583 .96592583 .25881905 164.718445 74.062895)"><path d="m0 18.5c3.35179012 0 6.63938817-.2748389 9.84148741-.8032099 4.37962299-.7226714 8.59930349-1.9196252 12.60452549-3.5363452 7.1519182-2.8868936 13.620027-7.11222896 19.0939341-12.36561376"/><path d="m35.5 0h7.0507891v7.37704911z" stroke-linejoin="round"/></g></g></g></svg>