<svg height="48" viewBox="0 0 48 48" width="48" xmlns="http://www.w3.org/2000/svg"><g fill="none" fill-rule="evenodd"><rect fill="#fff" height="48" rx="24" width="48"/><g fill-rule="nonzero" transform="translate(8 12.4)"><path d="m14.1496599.36190476h3.9619047c6.4170228 0 11.6190476 5.20202481 11.6190476 11.61904764v3.6952381c0 4.3761991-3.5476103 7.9238095-7.9238095 7.9238095h-11.3523809c-4.37619919 0-7.92380956-3.5476104-7.92380956-7.9238095v-3.6952381c0-6.41702283 5.20202482-11.61904764 11.61904766-11.61904764z" fill="#ffc24a"/><g fill="#e29f41"><rect height="1.2" rx=".6" width="4.8" x="19.6" y="14.8"/><rect height="1.2" rx=".6" width="4.8" x="8" y="14.8"/></g><path d="m14.7513175 14.2771627c.4796921-.1339815.9593842-.2009722 1.4390763-.2009722.4796866 0 .9593733.0669892 1.4390599.2009677.4034899.1126963.6392246.531148.5265282.9346378-.031615.1131919-.0890988.2174896-.1679167.3046656l-1.7976714 1.9883003-1.7976717-1.9883443c-.2809477-.31074-.2567963-.7903976.0539437-1.0713453.087172-.0788144.1914649-.1362957.3046517-.1679096z" fill="#171e2b"/><g fill="#171e2b"><circle cx="10.748299" cy="12.865163" r="2.285714"/><circle cx="21.795918" cy="12.865163" r="2.285714"/></g><ellipse cx="5.510204" cy="5.503759" fill="#ffc24a" rx="5.510204" ry="5.503759"/><path d="m6.00809434 3.0207587.01272527.00734694c.78713301.45445145 1.05682469 1.46095452.60237324 2.24808752l-.73924812 1.2804153c-.45445145.78713301-1.46095452 1.05682469-2.24808752.60237324l-.01272527-.00734694c-.78713301-.45445145-1.05682469-1.46095452-.60237324-2.24808752l.73924812-1.2804153c.45445145-.78713301 1.46095452-1.05682469 2.24808752-.60237324z" fill="#d48e2e"/><g transform="translate(20.571429)"><ellipse cx="5.510204" cy="5.503759" fill="#ffc24a" rx="5.510204" ry="5.503759"/><path d="m7.22081961 7.15163476-.01272527.00734694c-.787133.45445145-1.79363607.18475977-2.24808752-.60237324l-.73924812-1.2804153c-.45445145-.787133-.18475977-1.79363607.60237324-2.24808752l.01272527-.00734694c.787133-.45445145 1.79363607-.18475977 2.24808752.60237324l.73924812 1.2804153c.45445145.787133.18475977 1.79363607-.60237324 2.24808752z" fill="#d48e2e"/></g><g opacity=".7" stroke="#171e2b" stroke-width="1.257143" transform="translate(13.6 16)"><path d="m4.87619048 2.46315789-2.3537415 1.33132833-2.3537415-1.33132833" stroke-linecap="round" transform="matrix(-1 0 0 -1 5.044898 6.257644)"/><path d="m2.55356142.02427749v2.39148213"/></g></g></g></svg>