<svg height="48" viewBox="0 0 48 48" width="48" xmlns="http://www.w3.org/2000/svg"><g fill="none" fill-rule="evenodd"><rect fill="#fff" height="48" rx="24" width="48"/><g transform="translate(6.877778 10.311111)"><path d="m7.79525492 8.6738111-3.58563451-3.41503454c-.99601609-.94862689-.82719874-2.25773645.38467982-2.91672468l2.039768-1.10917311c1.21796942-.66230028 1.8752773-.11641276 1.48174258 1.21187621l.20546572-.69350388c-.31488258 1.06281615.27122439 2.23920688 1.3091509 2.62739256l3.58156837 1.3395106-.0209486.01165991-.6136735 7.70074623-9.94656091-1.9263322z" fill="#555b67"/><path d="m26.3684472 8.6738111-3.5856346-3.41503454c-.996016-.94862689-.8271987-2.25773645.3846799-2.91672468l2.039768-1.10917311c1.2179694-.66230028 1.8752773-.11641276 1.4817425 1.21187621l.2054658-.69350388c-.3148826 1.06281615.2712244 2.23920688 1.3091509 2.62739256l3.5815684 1.3395106-.0209487.01165991-.6136734 7.70074623-9.946561-1.9263322z" fill="#555b67" transform="matrix(-1 0 0 1 52.75838 0)"/><path d="m10.1773737 13.4305604-5.82911471-1.128914c-2.27400274-.4404019-2.46723754-1.7018293-.43842981-2.8137349l6.88231902-3.77191437z" fill="#d48e2e"/><path d="m33.3396008 13.4305604-5.8291148-1.128914c-2.2740027-.4404019-2.4672375-1.7018293-.4384298-2.8137349l6.8823191-3.77191437z" fill="#d48e2e" transform="matrix(-1 0 0 1 57.347416 0)"/><path d="m13.5524215 5.17437924h7.4325855c4.1213697 0 7.4624 3.34103028 7.4624 7.46239996v6.5361578c0 4.1213697-3.3410303 7.4624-7.4624 7.4624h-7.4325855c-4.1213697 0-7.46239999-3.3410303-7.46239999-7.4624v-6.5361578c0-4.12136968 3.34103029-7.46239996 7.46239999-7.46239996z" fill="#ffc24a"/><g fill="#e29f41" fill-rule="nonzero"><rect height="1.2" rx=".6" width="4.8" x="20.4" y="17.6"/><rect height="1.2" rx=".6" width="4.8" x="8.8" y="17.6"/></g><g fill="#171e2b" fill-rule="nonzero" transform="matrix(-1 0 0 -1 24.660684 18.109942)"><ellipse cx="2.215385" cy="2.210526" rx="2.215385" ry="2.210526"/><ellipse cx="12.923077" cy="2.210526" rx="2.215385" ry="2.210526"/></g><g transform="translate(12.006566 18.950772)"><path d="m4.4 0h1.6c2.4300529 0 4.4 1.9699471 4.4 4.4v2.9c0 .82842712-.67157288 1.5-1.5 1.5h-7.4c-.82842712 0-1.5-.67157288-1.5-1.5v-2.9c0-2.4300529 1.9699471-4.4 4.4-4.4z" fill="#d48e2e"/><g fill="#171e2b" fill-rule="nonzero"><rect height="3.2" opacity=".724922" rx="1.2" width="2.4" x="2.4" y="2.8"/><rect height="3.2" opacity=".724922" rx="1.2" width="2.4" x="5.6" y="2.8"/></g></g></g></g></svg>