<svg height="48" viewBox="0 0 48 48" width="48" xmlns="http://www.w3.org/2000/svg"><g fill="none" fill-rule="evenodd"><rect fill="#fff" height="48" rx="24" width="48"/><path d="m28.8260855 18.5451062c2.4454347-.408313 4.4191327 1.1567301 5.9210941 4.6951295 2.2529421 5.307599 1.4680405 3.4584867 2.9046791 6.842995.957759 2.2563389 1.6841251 3.9675502 2.1790983 5.133634-1.2840658.0571581-3.1192808-.5373941-5.5056448-1.7836567s-4.0000665-3.4929869-4.8411075-6.740173z" fill="#555b67" fill-rule="nonzero" transform="matrix(.91354546 .40673664 -.40673664 .91354546 13.889217 -11.641261)"/><g transform="translate(10.877778 7.911111)"><path d="m7.29102513 6.45283041c.36161692-.42521718.48215589-1.01143348.36161692-1.75864889-.12053898-.74721542-.93808633-1.49710111-2.45264205-2.24965707 2.80093587-1.44324209 5.8554313-2.04705891 9.1634864-1.81145044 4.9620825.3534127 6.4047636 2.75956414 7.104647 5.33716282.4665889 1.71839912.6261856 3.32832018.4787901 4.82976317h-14.65589837z" fill="#555b67" fill-rule="nonzero"/><path d="m25.677839 10.0658713-5.8291147-1.1289139c-2.2740028-.44040194-2.4672376-1.70182935-.4384298-2.81373494l6.882319-3.77191436z" fill="#b48f70" transform="matrix(-.25881905 .96592583 .96592583 .25881905 20.458261 -15.698176)"/><path d="m10.077839 10.0658713-5.82911474-1.1289139c-2.27400274-.44040194-2.46723754-1.70182935-.43842981-2.81373494l6.88231905-3.77191436z" fill="#b48f70" transform="matrix(.25881905 .96592583 -.96592583 .25881905 10.003208 -.629733)"/><path d="m10.3524215 6.37437924h5.8325855c4.1213697 0 7.4624 3.34103028 7.4624 7.46239996v5.7361578c0 4.1213697-3.3410303 7.4624-7.4624 7.4624h-5.8325855c-4.1213697 0-7.46239999-3.3410303-7.46239999-7.4624v-5.7361578c0-4.12136968 3.34103029-7.46239996 7.46239999-7.46239996z" fill="#e4bb9b"/><g fill="#d0a17a" fill-rule="nonzero"><rect height="1.2" rx=".6" width="4.8" x="15.6" y="18"/><rect height="1.2" rx=".6" width="4.8" x="5.6" y="18"/></g><g fill="#171e2b" fill-rule="nonzero" transform="matrix(-1 0 0 -1 19.860684 18.509942)"><ellipse cx="2.215385" cy="2.210526" rx="2.215385" ry="2.210526"/><ellipse cx="11.323077" cy="2.210526" rx="2.215385" ry="2.210526"/></g><g transform="translate(7.206566 22.950772)"><path d="m4.4 0h3.2c2.4300529 0 4.4 1.9699471 4.4 4.4v2.9c0 .82842712-.6715729 1.5-1.5 1.5h-9c-.82842712 0-1.5-.67157288-1.5-1.5v-2.9c0-2.4300529 1.9699471-4.4 4.4-4.4z" fill="#f4d2b7" transform="matrix(-1 0 0 -1 12 8.8)"/><g fill="#171e2b" fill-rule="nonzero"><rect height="2.4" opacity=".724922" rx="1.2" width="2.4" x="2.8" y="1.6"/><rect height="2.4" opacity=".724922" rx="1.2" width="2.4" x="6.8" y="1.6"/></g></g></g></g></svg>