<svg height="48" viewBox="0 0 48 48" width="48" xmlns="http://www.w3.org/2000/svg"><g fill="none" fill-rule="evenodd"><rect fill="#fff" height="48" rx="24" width="48"/><g transform="translate(10.48642 8.744108)"><path d="m11.2011689 11.1256373-6.44897652-1.26309441c-2.53084749-.49569094-2.75539062-1.895978-.49267528-3.1324681l7.6037009-4.1551408z" fill="#e1859f" transform="matrix(.25881905 .96592583 -.96592583 .25881905 11.070327 -.738613)"/><path d="m26.807698 11.1144074-6.4489765-1.26309437c-2.5308475-.49569094-2.7553906-1.895978-.4926753-3.1324681l7.603701-4.1551408z" fill="#e1859f" transform="matrix(-.25881905 .96592583 .96592583 .25881905 20.624819 -15.82598)"/><path d="m13.3019172 4.83832855h1.1044195c6.5548247 0 11.86856 5.31373535 11.86856 11.86855995 0 6.5548247-5.3137353 11.86856-11.86856 11.86856h-1.1044195c-6.55482466 0-11.86855996-5.3137353-11.86855996-11.86856 0-6.5548246 5.3137353-11.86855995 11.86855996-11.86855995z" fill="#ffcbd8"/><g fill="#f4a5b9" fill-rule="nonzero" opacity=".639096"><rect height="1.327273" rx=".663636" width="5.333333" x="17.333333" y="17.69697"/><rect height="1.327273" rx=".663636" width="5.333333" x="4.444444" y="17.69697"/></g><g fill="#171e2b" fill-rule="nonzero" transform="matrix(-1 0 0 -1 22.067426 18.260996)"><ellipse cx="2.461538" cy="2.444976" rx="2.461538" ry="2.444976"/><ellipse cx="14.358974" cy="2.444976" rx="2.461538" ry="2.444976"/></g><g transform="translate(8.007295 17.421309)"><rect fill="#f4a5b9" height="9.733333" rx="4.866667" width="11.555556"/><g fill="#dd708f" fill-rule="nonzero"><path d="m4 2.6969697c.73637967 0 1.33333333.59695366 1.33333333 1.33333333v2.07272727c0 .73637967-.59695366 1.33333334-1.33333333 1.33333334-.73637967 0-1.33333333-.59695367-1.33333333-1.33333334v-2.07272727c0-.73637967.59695366-1.33333333 1.33333333-1.33333333z"/><path d="m7.55555556 2.6969697c.73637966 0 1.33333333.59695366 1.33333333 1.33333333v2.07272727c0 .73637967-.59695367 1.33333334-1.33333333 1.33333334-.73637967 0-1.33333334-.59695367-1.33333334-1.33333334v-2.07272727c0-.73637967.59695367-1.33333333 1.33333334-1.33333333z"/></g></g></g></g></svg>