<svg height="48" viewBox="0 0 48 48" width="48" xmlns="http://www.w3.org/2000/svg" xmlns:xlink="http://www.w3.org/1999/xlink"><defs><path id="a" d="m.15877253 3.10362235c0-1.65685425 1.34314575-3 3-3s3 1.34314575 3 3v8.36747345c0 1.6568543-1.34314575 3-3 3s-3-1.3431457-3-3z"/><mask id="b" fill="#fff"><use fill="#fff" fill-rule="evenodd" xlink:href="#a"/></mask></defs><g fill="none" fill-rule="evenodd"><rect fill="#fff" height="48" rx="24" width="48"/><g transform="translate(9.386228 11.366667)"><g fill-rule="nonzero" transform="translate(20.923944 .4)"><path d="m0 0h3.03169014c2.89949494 0 5.25 2.35050506 5.25 5.25v6.6091549c0 2.2869256-1.85391949 4.1408451-4.14084507 4.1408451-2.28692558 0-4.14084507-1.8539195-4.14084507-4.1408451z" fill="#f4a5b9"/><rect fill="#e1859f" height="9.2" rx="2.366197" width="4.732394" x="1.183099" y="2.8"/></g><g fill-rule="nonzero" transform="matrix(-1 0 0 1 8.28169 .4)"><path d="m0 0h3.03169014c2.89949494 0 5.25 2.35050506 5.25 5.25v6.6091549c0 2.2869256-1.85391949 4.1408451-4.14084507 4.1408451-2.28692558 0-4.14084507-1.8539195-4.14084507-4.1408451z" fill="#f4a5b9"/><rect fill="#e1859f" height="9.2" rx="2.366197" width="4.732394" x="1.183099" y="2.8"/></g><path d="m11.8090139 0h5.5200004c3.9985415 0 7.2399998 3.24145831 7.2399998 7.23999977v11.32000023c0 1.2371178-1.0028822 2.24-2.24 2.24h-15.52000002c-1.23711784 0-2.24-1.0028822-2.24-2.24v-11.32000023c0-3.99854146 3.24145831-7.23999977 7.23999982-7.23999977z" fill="#68bcff"/><g fill="#171e2b" fill-rule="nonzero" transform="matrix(-1 0 0 -1 22.243241 12.254386)"><ellipse cx="2.184182" cy="2.210526" rx="2.184182" ry="2.210526"/><ellipse cx="12.741062" cy="2.210526" rx="2.184182" ry="2.210526"/></g><path d="m16.9690141 16.4326165s.5191417-1.1137135 2.1836202-.7650109" opacity=".916384" stroke="#ffc24a" stroke-linecap="round" stroke-width="2.386667"/><path d="m10.1690141 16.4326165s.5191417-1.1137135 2.1836202-.7650109" opacity=".916384" stroke="#ffc24a" stroke-linecap="round" stroke-width="2.386667" transform="matrix(-1 0 0 1 22.521648 0)"/><g fill-rule="nonzero" transform="translate(9.870423 10)"><g transform="translate(1.6)"><use fill="#a2d6ff" xlink:href="#a"/><g fill="#68bcff"><path d="m0 4.8h6.4v1h-6.4z" mask="url(#b)" opacity=".273661"/><path d="m0 7.2h6.4v1h-6.4z" mask="url(#b)" opacity=".273661"/><path d="m0 9.6h6.4v1h-6.4z" mask="url(#b)" opacity=".273661"/></g></g><g fill="#7fc6ff"><path d="m1.6 12h3.13239437v3.2h-3.13239437c-.8836556 0-1.6-.7163444-1.6-1.6 0-.8836556.7163444-1.6 1.6-1.6z"/><path d="m4.73239437 12h3.13239436c.8836556 0 1.6.7163444 1.6 1.6 0 .8836556-.7163444 1.6-1.6 1.6h-3.13239436z"/></g></g></g></g></svg>