<svg height="48" viewBox="0 0 48 48" width="48" xmlns="http://www.w3.org/2000/svg"><g fill="none" fill-rule="evenodd"><rect fill="#fff" height="48" rx="24" width="48"/><g transform="translate(10.313471 10.211885)"><g fill-rule="nonzero"><rect fill="#fc5859" height="3.68452" rx="1.84226" transform="matrix(0 1 -1 0 18.272761 -9.502993)" width="8.23946" x="9.768147" y="2.542624"/><rect fill="#fc5859" height="3.68452" rx="1.84226" transform="matrix(.5 .8660254 -.8660254 .5 10.469635 -7.416126)" width="8.23946" x="7.537641" y="3.516647"/><rect fill="#fec018" height="14.166049" rx="7.083024" width="26.938245" x=".303359" y="13.076353"/></g><path d="m13.8335955 25.4262417c5.8088443 0 11.223826-5.04136 11.223826-11.2601928 0-6.2188327-5.4149817-11.26019271-11.223826-11.26019271-5.80884442 0-11.34605487 5.04136001-11.34605487 11.26019271 0 6.2188328 5.53721045 11.2601928 11.34605487 11.2601928z" fill="#fed948"/><path d="m13.8028169 2.76056338c6.3162707 0 11.4366197 5.12034906 11.4366197 11.43661972v7.0985915c0 3.2670366-2.6484564 5.915493-5.9154929 5.915493h-11.04225356c-3.26703655 0-5.91549296-2.6484564-5.91549296-5.915493v-7.0985915c0-6.31627066 5.12034906-11.43661972 11.43661972-11.43661972z" fill="#fed948" fill-rule="nonzero"/><g fill="#fd8364" fill-rule="nonzero" opacity=".503348"><ellipse cx="6.802422" cy="17.967116" rx="3.202422" ry="3.167116"/><ellipse cx="20.802422" cy="17.967116" rx="3.202422" ry="3.167116"/></g><ellipse cx="9.050976" cy="12.63602" fill="#44424f" rx="1" ry="1"/><ellipse cx="18.3987" cy="12.63602" fill="#44424f" rx="1" ry="1"/><g transform="translate(11.042254 14.197183)"><path d="m3.01903273.42239087 1.95469963 1.65233039c.22999465.19441716.2588359.5384709.06441875.76846555-.1036083.12256816-.2559503.19326967-.41644215.19326967h-3.90939926c-.30115705 0-.54529307-.24413602-.54529307-.54529307 0-.16049185.0707015-.31283385.19326967-.41644215l1.95469963-1.65233039c.20324011-.17180123.50080669-.17180123.7040468 0z" fill="#f2aa00"/><path d="m2.52572438 4.66321259-1.50863041-1.27526287c-.12727278-.10758516-.14658717-.30210215-.04313989-.43446584.0563919-.07215502.14104077-.11404726.23044775-.11404726h3.01726082c.16401127 0 .29696869.13827571.29696869.30884744 0 .09298326-.040281.18101808-.10966083.23966566l-1.50863041 1.27526287c-.10912231.09224237-.26549341.09224237-.37461572 0z" fill="#e4a100"/></g></g><g fill="#171e2b" fill-rule="nonzero" transform="matrix(-1 0 0 -1 31.417118 25.618977)"><ellipse cx="2.184182" cy="2.179392" rx="2.184182" ry="2.179392"/><ellipse cx="12.584182" cy="2.179392" rx="2.184182" ry="2.179392"/></g></g></svg>