<svg height="48" viewBox="0 0 48 48" width="48" xmlns="http://www.w3.org/2000/svg" xmlns:xlink="http://www.w3.org/1999/xlink"><defs><path id="a" d="m12.2 0h1.0828571c6.737874 0 12.2 5.46212605 12.2 12.2v.0196933c0 6.7378739-5.462126 12.2-12.2 12.2h-1.0828571c-6.73787395 0-12.2-5.4621261-12.2-12.2v-.0196933c0-6.73787395 5.46212605-12.2 12.2-12.2z"/><mask id="b" fill="#fff"><use fill="#fff" fill-rule="evenodd" xlink:href="#a"/></mask></defs><g fill="none" fill-rule="evenodd"><rect fill="#fff" height="48" rx="24" width="48"/><g fill-rule="nonzero" transform="translate(7.2 12.8)"><g transform="translate(4.18 .4)"><use fill="#fed948" xlink:href="#a"/><g mask="url(#b)" opacity=".443516" stroke="#e29f41" stroke-linecap="round" stroke-width=".8"><g transform="translate(9.2 4)"><path d="m.2.1h6.4"/><path d="m.2 4.9h6.4"/><path d="m3.6 4.9v-4.5"/><path d="m1.6 2.4h4"/></g></g><path d="m9.46810022 13.1193237h6.34748318c3.1183424 0 5.6462584 2.527916 5.6462584 5.6462584 0 3.1183424-2.527916 5.6462584-5.6462584 5.6462584h-6.34748318c-3.11834241 0-5.6462584-2.527916-5.6462584-5.6462584 0-3.1183424 2.52791599-5.6462584 5.6462584-5.6462584z" fill="#ffefb0" mask="url(#b)"/></g><g fill="#e29f41"><rect height="1.261017" rx=".63" width="5.04" x="20.58" y="15.552542"/><rect height="1.261017" rx=".63" width="5.04" x="8.4" y="15.552542"/></g><path d="m15.2165508 15.0861061c.5944542-.1961181 1.1889084-.2941771 1.7833626-.2941771.5944382 0 1.1888764.0980537 1.7833146.2941612l.0000204-.0000618c.3342212.1102609.5157769.4705849.405516.8048061-.0277862.084225-.0728478.1617225-.1323016.227534l-2.0565494 2.276466-2.0565691-2.2764015c-.2359218-.2611501-.2154703-.6641065.0456798-.9000284.0658096-.059452.1433045-.1045125.2275267-.1322985z" fill="#171e2b"/><g fill="#171e2b"><ellipse cx="11.285714" cy="13.519324" rx="2.4" ry="2.401937"/><ellipse cx="22.885714" cy="13.519324" rx="2.4" ry="2.401937"/></g><g><ellipse cx="5.785714" cy="5.783612" fill="#fed948" rx="5.785714" ry="5.783612"/><path d="m6.30849906 3.1743566.01336153.00772051c.82648966.47755915 1.10966593 1.53524034.6324919 2.36239706l-.77621052 1.34552117c-.47717403.82715671-1.53400225 1.11056153-2.3604919.63300238l-.01336154-.00772051c-.82648965-.47755915-1.10966592-1.53524034-.63249189-2.36239706l.77621052-1.34552117c.47717403-.82715671 1.53400225-1.11056153 2.3604919-.63300238z" fill="#e29f41"/></g><g transform="translate(21.6)"><ellipse cx="5.785714" cy="5.783612" fill="#fed948" rx="5.785714" ry="5.783612"/><path d="m7.58186059 7.51527721-.01336153.00772051c-.82648965.47755915-1.88331787.19415433-2.3604919-.63300238l-.77621052-1.34552117c-.47717403-.82715672-.19399776-1.88483791.63249189-2.36239706l.01336154-.00772051c.82648965-.47755915 1.88331787-.19415433 2.3604919.63300238l.77621052 1.34552117c.47717403.82715672.19399776 1.88483791-.6324919 2.36239706z" fill="#e29f41"/></g><g stroke="#171e2b"><g opacity=".7" stroke-width="1.056" transform="translate(14.4 16.8)"><path d="m5 2.60196253-2.47142857 1.39902298-2.47142857-1.39902298" stroke-linecap="round" transform="matrix(-1 0 0 -1 5.057142 6.602948)"/><path d="m2.56123949.03907126v2.51308292"/></g><g stroke-linecap="round" stroke-width=".84" transform="translate(23.94 17.233898)"><path d="m.14 1.47118644 3.08-1.26101695"/><path d="m.14 1.47118644 3.08-1.26101695" transform="matrix(1 0 0 -1 0 4.20339)"/></g><g stroke-linecap="round" stroke-width=".84" transform="matrix(-1 0 0 1 9.66 17.233898)"><path d="m.14 1.47118644 3.08-1.26101695"/><path d="m.14 1.47118644 3.08-1.26101695" transform="matrix(1 0 0 -1 0 4.20339)"/></g></g></g></g></svg>