<svg height="48" viewBox="0 0 48 48" width="48" xmlns="http://www.w3.org/2000/svg" xmlns:xlink="http://www.w3.org/1999/xlink"><defs><rect id="a" height="24.832747" rx="11.565121" width="23.130242" x=".370312" y=".366197"/><path id="b" d="m6.38509528 0h4.48809032c3.4808281 0 6.3025968 2.82176872 6.3025968 6.30259683 0 3.48082812-2.8217687 6.30259687-6.3025968 6.30259687h-4.48809032c-3.48082812 0-6.30259683-2.82176875-6.30259683-6.30259687 0-3.48082811 2.82176871-6.30259683 6.30259683-6.30259683z"/><mask id="c" fill="#fff"><use fill="#fff" fill-rule="evenodd" xlink:href="#a"/></mask><mask id="d" fill="#fff"><use fill="#fff" fill-rule="evenodd" xlink:href="#b"/></mask></defs><g fill="none" fill-rule="evenodd"><rect fill="#fff" height="48" rx="24" width="48"/><g fill-rule="nonzero" transform="matrix(.8660254 -.5 .5 .8660254 6.147774 18.969961)"><ellipse cx="4.829168" cy="4.844455" fill="#e29f41" rx="4.829168" ry="4.844455"/><path d="m5.26552088 2.65889698.01115249.00646684c.6898469.40001195.9262059 1.28594434.52792261 1.97878537l-.64788037 1.12703222c-.3982833.69284103-1.28038711.9302259-1.97023401.53021394l-.01115249-.00646684c-.6898469-.40001195-.9262059-1.28594434-.52792261-1.97878537l.64788038-1.12703222c.39828329-.69284103 1.2803871-.93022589 1.970234-.53021394z" fill="#b57925"/></g><g fill-rule="nonzero" transform="matrix(.8660254 .5 -.5 .8660254 33.269965 14.116028)"><ellipse cx="4.829168" cy="4.844455" fill="#e29f41" rx="4.829168" ry="4.844455"/><path d="m6.32835876 6.29492851-.01115248.00646684c-.6898469.40001196-1.57195072.16262709-1.97023401-.53021394l-.64788038-1.12703222c-.39828329-.69284103-.16192429-1.57877342.52792262-1.97878537l.01115248-.00646684c.6898469-.40001195 1.57195071-.16262709 1.97023401.53021394l.64788037 1.12703222c.3982833.69284103.16192429 1.57877342-.52792261 1.97878537z" fill="#b57925"/></g><g transform="translate(11.979914 11.815196)"><path d="m11.9665572 23.3860267c5.8741123 0 11.3499364-5.1201313 11.3499364-11.4361333 0-6.31600195-5.4758241-11.43613321-11.3499364-11.43613321-5.87411228 0-11.47353859 5.12013126-11.47353859 11.43613321 0 6.316002 5.59942631 11.4361333 11.47353859 11.4361333z" fill="#fed948"/><use fill="#ffc24a" fill-rule="nonzero" xlink:href="#a"/><path d="m11.7303367 10.5602876c-.0011902-3.58883406-2.89830678-6.4977876-6.47190973-6.4977876-.67810949 0-1.33186074.10474272-1.94608937.29899798-.31178439-.9225324-.48087693-1.91124515-.48087693-2.93962298 0-5.04822779 4.07471183-9.140625 9.10112363-9.140625 5.0264117 0 9.1011236 4.09239721 9.1011236 9.140625 0 1.07538483-.1849043 2.10739553-.5245237 3.06571208-.7165945-.27465331-1.4942738-.42508708-2.306937-.42508708-3.573603 0-6.4707196 2.90895355-6.4719098 6.4977876z" fill="#d48e2e" fill-rule="nonzero" mask="url(#c)"/><g mask="url(#c)"><g transform="translate(3.235955 12.59375)"><use fill="#d48e2e" fill-rule="nonzero" xlink:href="#b"/><g fill="none" fill-rule="evenodd" mask="url(#d)" opacity=".7"><g fill-rule="nonzero" stroke="#171e2b" transform="translate(2.8 2.8)"><path d="m5.77300314.246875v5.88197404"/><path d="m.03146067 2.8875s.90361039 3.28047519 5.61366272 3.28047519c4.71005231 0 5.82753381-3.28047519 5.82753381-3.28047519" stroke-linecap="round" stroke-width="1.015281"/></g></g><path d="m6.86967045 2.31669766c.57364546-.19029844 1.14729093-.28544766 1.72093639-.28544766.57366121 0 1.14732242.09515444 1.72098366.28546333l-.0000128.00003864c.3216516.10670611.4958993.45395864.3891932.77561024-.0266683.08038798-.0696896.15438468-.1263559.21733196l-1.98380816 2.20369869-1.98379625-2.20368444c-.22675053-.25188416-.2063757-.63989424.04550846-.86664478.06295278-.0566712.13695617-.09969604.2173514-.12636598z" fill="#171e2b" fill-rule="nonzero" mask="url(#d)"/></g></g><g fill="#e29f41" fill-rule="nonzero" opacity=".518527"><rect height="1.21875" rx=".606742" width="4.853933" x="15.458288" y="12.378554"/><rect height="1.21875" rx=".606742" width="4.853933" x="3.727951" y="12.378554"/></g><g fill="#44424f"><ellipse cx="7.130201" cy="10.395958" rx="1" ry="1.003869"/><ellipse cx="16.582955" cy="10.395958" rx="1" ry="1.003869"/></g></g><g fill="#171e2b" fill-rule="nonzero" transform="matrix(-1 0 0 -1 31.298209 25.025524)"><ellipse cx="2.208723" cy="2.213445" rx="2.208723" ry="2.213445"/><ellipse cx="12.725577" cy="2.213445" rx="2.208723" ry="2.213445"/></g></g></svg>