<svg height="48" viewBox="0 0 48 48" width="48" xmlns="http://www.w3.org/2000/svg"><g fill="none" fill-rule="evenodd"><rect fill="#fff" height="48" rx="24" width="48"/><g transform="translate(8.586498 12.854581)"><g fill-rule="nonzero" transform="matrix(-1 0 0 1 8.29367 1.178947)"><rect fill="#555b67" height="7.859649" rx="3.929825" width="8.293671"/><path d="m3.55443038 0c2.61741026 0 4.73924051 2.12183025 4.73924051 4.73924051v9.78938489c0 1.3087051-1.06091513 2.3696202-2.36962026 2.3696202-1.30870513 0-2.36962025-1.0609151-2.36962025-2.3696202z" fill="#929aa8"/></g><g fill-rule="nonzero" transform="translate(22.511392 1.178947)"><rect fill="#555b67" height="7.859649" rx="3.929825" width="8.293671"/><path d="m3.55443038 0c2.61741026 0 4.73924051 2.12183025 4.73924051 4.73924051v9.78938489c0 1.3087051-1.06091513 2.3696202-2.36962026 2.3696202-1.30870513 0-2.36962025-1.0609151-2.36962025-2.3696202z" fill="#929aa8"/></g><path d="m13.4278481 0h3.9493671c4.3623504 0 7.8987342 3.53638375 7.8987342 7.89873418v6.20954922c0 4.3623504-3.5363838 7.8987341-7.8987342 7.8987341h-3.9493671c-4.36235043 0-7.89873418-3.5363837-7.89873418-7.8987341v-6.20954922c0-4.36235043 3.53638375-7.89873418 7.89873418-7.89873418z" fill="#d2d6de"/><g fill="#858c9a" fill-rule="nonzero" opacity=".398281"><rect height="1.178947" rx=".589474" width="4.739241" x="18.770465" y="10.555945"/><rect height="1.178947" rx=".589474" width="4.739241" x="7.3173" y="10.555945"/></g><g fill="#171e2b" fill-rule="nonzero" transform="matrix(-1 0 0 -1 22.84557 11.417175)"><ellipse cx="2.187342" cy="2.171745" rx="2.187342" ry="2.171745"/><ellipse cx="12.759494" cy="2.171745" rx="2.187342" ry="2.171745"/></g><g transform="translate(11.463291 12.968421)"><g opacity=".7" stroke="#171e2b" transform="translate(0 1.2)"><path d="m.10970464 4.91131316s.71134347-.01969676 2.26959827-.01969676 1.59037517-2.09799599 1.59037517-2.09799599" stroke-linecap="round" stroke-width="1.308264"/><path d="m3.99566004 4.91131316s.71134347-.01969676 2.26959827-.01969676 1.59037517-2.09799599 1.59037517-2.09799599" stroke-linecap="round" stroke-width="1.308264" transform="matrix(-1 0 0 1 11.851294 0)"/><path d="m4.01856104.09129206v4.70962253" stroke-width="1.521238"/></g><path d="m2.58862856 0h2.49990537c.78093751 0 1.41401245.63307494 1.41401245 1.41401245 0 .36297028-.1395806.7120408-.38984313.9749402l-1.01334478 1.06451312c-.66283834.69630804-1.76464418.72344058-2.46095222.06060223-.02069506-.0197003-.04090193-.03990717-.06060223-.06060223l-1.01334478-1.06451312c-.53844461-.56563309-.51640399-1.46066491.04922911-1.99910952.26289941-.25026253.61196993-.38984313.97494021-.38984313z" fill="#171e2b"/></g></g></g></svg>