<svg height="48" viewBox="0 0 48 48" width="48" xmlns="http://www.w3.org/2000/svg"><g fill="none" fill-rule="evenodd"><rect fill="#fff" height="48" rx="24" width="48"/><g transform="translate(9.913471 6.811885)"><g fill-rule="nonzero"><g transform="translate(20 9.2)"><rect fill="#fec018" height="3.6" rx="1.8" transform="matrix(.96592583 -.25881905 .25881905 .96592583 -.609402 1.148417)" width="7.432706" x=".340492" y="1.088644"/><rect fill="#e29f41" height="1.63006" rx=".81503" transform="matrix(.96592583 -.25881905 .25881905 .96592583 -.705557 .928382)" width="5.073431" x=".636386" y="2.328779"/></g><g transform="matrix(-1 0 0 1 8.4 9.2)"><rect fill="#fec018" height="3.6" rx="1.8" transform="matrix(.96592583 -.25881905 .25881905 .96592583 -.609402 1.148417)" width="7.432706" x=".340492" y="1.088644"/><rect fill="#e29f41" height="1.63006" rx=".81503" transform="matrix(.96592583 -.25881905 .25881905 .96592583 -.705557 .928382)" width="5.073431" x=".636386" y="2.328779"/></g><g transform="matrix(.96592583 .25881905 -.25881905 .96592583 18.344794 .266122)"><rect fill="#fec018" height="3.2" rx="1.6" transform="matrix(0 1 -1 0 9.6 4)" width="8" x="-1.2" y="5.2"/><circle cx="2.8" cy="2.8" fill="#e29f41" r="2.8"/></g><g transform="matrix(.96592583 -.25881905 .25881905 .96592583 4.646021 1.715509)"><rect fill="#fec018" height="3.2" rx="1.6" transform="matrix(0 1 -1 0 9.6 4)" width="8" x="-1.2" y="5.2"/><circle cx="2.8" cy="2.8" fill="#e29f41" r="2.8"/></g></g><path d="m14.2335955 30.2262417c5.8088443 0 11.223826-5.04136 11.223826-11.2601928 0-6.2188327-5.4149817-11.26019271-11.223826-11.26019271-5.80884442 0-11.34605487 5.04136001-11.34605487 11.26019271 0 6.2188328 5.53721045 11.2601928 11.34605487 11.2601928z" fill="#fed948"/><path d="m14.2028169 7.56056338c6.3162707 0 11.4366197 5.12034902 11.4366197 11.43661972v5.0985843c0 4.3716101-3.5438901 7.9155002-7.9155001 7.9155002h-7.0422392c-4.37160998 0-7.91550012-3.5438901-7.91550012-7.9155002v-5.0985843c0-6.3162707 5.12034906-11.43661972 11.43661972-11.43661972z" fill="#fed948" fill-rule="nonzero"/><g fill="#e29f41" fill-rule="nonzero" opacity=".518527"><rect height="1.2" rx=".6" width="4.8" x="17.686529" y="18.988115"/><rect height="1.2" rx=".6" width="4.8" x="6.086529" y="18.988115"/></g><path d="m9.2056338 19.6h10.0303359c3.4272769 0 6.2056338 2.7783569 6.2056338 6.2056338 0 3.4272769-2.7783569 6.2056338-6.2056338 6.2056338h-10.0303359c-3.42727691 0-6.2056338-2.7783569-6.2056338-6.2056338 0-3.4272769 2.77835689-6.2056338 6.2056338-6.2056338z" fill="#e29f41" fill-rule="nonzero"/><ellipse cx="9.450976" cy="17.43602" fill="#44424f" rx="1" ry="1"/><ellipse cx="18.7987" cy="17.43602" fill="#44424f" rx="1" ry="1"/></g><g fill-rule="nonzero" transform="matrix(-1 0 0 -1 31.417118 33.018977)"><path d="m2.8 0c0 .66128832.5372583 1.19736842 1.2 1.19736842s1.2-.5360801 1.2-1.19736842" opacity=".7" stroke="#171e2b" stroke-linecap="round" stroke-width="1.255"/><path d="m9.2 0c0 .66128832.5372583 1.19736842 1.2 1.19736842s1.2-.5360801 1.2-1.19736842" opacity=".7" stroke="#171e2b" stroke-linecap="round" stroke-width="1.255"/><g fill="#171e2b"><ellipse cx="2.184182" cy="8.179392" rx="2.184182" ry="2.179392"/><ellipse cx="12.584182" cy="8.179392" rx="2.184182" ry="2.179392"/></g></g></g></svg>