<svg height="48" viewBox="0 0 48 48" width="48" xmlns="http://www.w3.org/2000/svg" xmlns:xlink="http://www.w3.org/1999/xlink"><defs><path id="a" d="m12.4541667 0h1.1054166c6.8782464 0 12.4541667 5.57592034 12.4541667 12.4541667v.1803926c0 6.8782463-5.5759203 12.4541667-12.4541667 12.4541667h-1.1054166c-6.87824636 0-12.4541667-5.5759204-12.4541667-12.4541667v-.1803926c0-6.87824636 5.57592034-12.4541667 12.4541667-12.4541667z"/><mask id="b" fill="#fff"><use fill="#fff" fill-rule="evenodd" xlink:href="#a"/></mask></defs><g fill="none" fill-rule="evenodd"><rect fill="#fff" height="48" rx="24" width="48"/><g transform="translate(3.6 11.2)"><path d="m35.0951691 27.7671135-5.9659805-1.1370071c-2.3273956-.4435591-2.5330385-1.72823-.4549658-2.8717868l7.0758652-3.893826z" fill="#555b67" transform="matrix(-.8660254 -.5 .5 -.8660254 44.692232 59.611756)"/><path d="m15.4951691 27.7671135-5.96598046-1.1370071c-2.32739562-.4435591-2.53303856-1.72823-.45496583-2.8717868l7.07586519-3.893826z" fill="#555b67" transform="matrix(.8660254 -.5 -.5 -.8660254 13.34702 49.811756)"/><g fill="#929aa8" transform="translate(1.633333 4.520548)"><path d="m11.786607 10.3721914-5.96598046-1.13700713c-2.32739562-.44355916-2.53303856-1.72823005-.45496583-2.87178682l7.07586519-3.89382598z" transform="matrix(.8660254 .5 -.5 .8660254 4.155397 -2.650723)"/><path d="m35.5035025 10.5068396-5.9659805-1.13700713c-2.3273956-.44355916-2.5330386-1.72823005-.4549659-2.87178682l7.0758653-3.89382598z" transform="matrix(-.8660254 .5 .5 .8660254 54.084329 -14.491852)"/></g><g fill-rule="nonzero"><g transform="translate(7.53375)"><use fill="#d2d6de" xlink:href="#a"/><g fill="#f4a5b9" mask="url(#b)" opacity=".639096"><g transform="translate(2.4 11.6)"><ellipse cx="3.202422" cy="3.167116" rx="3.202422" ry="3.167116"/><ellipse cx="17.202422" cy="3.167116" rx="3.202422" ry="3.167116"/></g></g><path d="m12.2721032 11.4239627h1.2662207c2.5195181 0 4.5619912 2.0424731 4.5619912 4.5619913 0 2.5195182-2.0424731 4.5619912-4.5619912 4.5619912h-1.2662207c-2.5195182 0-4.56199125-2.042473-4.56199125-4.5619912 0-2.5195182 2.04247305-4.5619913 4.56199125-4.5619913z" fill="#858c9a" mask="url(#b)"/></g><path d="m18.793684 13.0358477c.6090203-.2029426 1.2180407-.3044138 1.827061-.3044138.6090342 0 1.2180684.1014759 1.8271025.3044277l-.0000106.0000319c.3407923.1135641.5249972.4818927.4114331.822685-.0281899.0845944-.0734727.162489-.1330355.2288452l-2.1054895 2.3456255-2.1054798-2.3456055c-.2399665-.2673352-.2177798-.6785845.0495554-.9185509.0663614-.0595676.1442622-.1048536.2288634-.1330451z" fill="#171e2b"/><g fill="#171e2b"><ellipse cx="13.5625" cy="11.423963" rx="2.45" ry="2.467744"/><ellipse cx="27.854167" cy="11.423963" rx="2.45" ry="2.467744"/></g><g opacity=".7" stroke="#171e2b" stroke-width="1.078" transform="translate(18 14.8)"><path d="m5.07083333 2.66776973-2.52291666 1.43735237-2.52291667-1.43735237" stroke-linecap="round" transform="matrix(-1 0 0 -1 5.095834 6.772892)"/><path d="m2.58126532.03466226v2.5819345"/></g><g stroke="#171e2b" stroke-linecap="round" stroke-width=".8575" transform="translate(24.43875 15.240306)"><path d="m.14291667 1.51149292 3.14416666-1.29556536"/><path d="m.14291667 1.51149292 3.14416666-1.29556536" transform="matrix(1 0 0 -1 0 4.318551)"/></g><g stroke="#171e2b" stroke-linecap="round" stroke-width=".8575" transform="matrix(-1 0 0 1 16.394583 15.240306)"><path d="m.14291667 1.51149292 3.14416666-1.29556536"/><path d="m.14291667 1.51149292 3.14416666-1.29556536" transform="matrix(1 0 0 -1 0 4.318551)"/></g></g></g></g></svg>