<svg height="48" viewBox="0 0 48 48" width="48" xmlns="http://www.w3.org/2000/svg"><g fill="none" fill-rule="evenodd"><rect fill="#fff" height="48" rx="24" width="48"/><g transform="translate(8.0824 8.326461)"><g fill-rule="nonzero"><rect fill="#858c9a" height="5.693125" rx="2.846563" transform="matrix(-.49999999832 -.86602540842 -.86602540842 .49999999832 13.28736903095 9.84254761473)" width="9.449332" x=".814268" y="1.252186"/><rect fill="#555b67" height="2.098777" rx="1.049388" transform="matrix(-.49999999832 -.86602540842 -.86602540842 .49999999832 13.57226730236 9.73204167425)" width="6.449944" x="1.190444" y="3.377897"/><rect fill="#858c9a" height="5.566373" rx="2.783187" transform="matrix(.49999999832 -.86602540842 .86602540842 .49999999832 19.13123496905 9.84254761473)" width="9.449332" x=".814268" y="1.315562"/><rect fill="#555b67" height="2.098777" rx="1.049388" transform="matrix(.49999999832 -.86602540842 .86602540842 .49999999832 18.84633669764 9.73204167425)" width="6.449944" x="1.190444" y="3.377897"/></g><path d="m11.8232558 6.45128205h8.3906977c4.2127767 0 7.627907 3.41513028 7.627907 7.62790695v7.5134168c0 4.2127767-3.4151303 7.627907-7.627907 7.627907h-8.3906977c-4.21277668 0-7.62790696-3.4151303-7.62790696-7.627907v-7.5134168c0-4.21277667 3.41513028-7.62790695 7.62790696-7.62790695z" fill="#d2d6de"/><g fill-rule="nonzero"><path d="m13.355793 24.4971391c0 1.5929379 1.3006769 2.8842693 2.9051431 2.8842693 1.6044663 0 2.9051432-1.2913314 2.9051432-2.8842693" fill="#171e2b" opacity=".83"/><g fill="#f4a5b9" opacity=".639096"><rect height="1.259207" rx=".629604" width="5.085271" x="19.1969" y="17.16892"/><rect height="1.259207" rx=".629604" width="5.085271" x="6.907494" y="17.16892"/></g><g fill="#171e2b" transform="matrix(-1 0 0 -1 24.047466 17.541749)"><ellipse cx="2.347048" cy="2.319593" rx="2.347048" ry="2.319593"/><ellipse cx="13.691115" cy="2.319593" rx="2.347048" ry="2.319593"/></g></g><g transform="translate(8.016258 7.799703)"><rect fill="#858c9a" height="7.210256" rx="3.605128" width="16.018605" y="10.625641"/><path d="m4.917892 3.84740265 9.0674373 1.81821789c.4580948.09185794.7877477.49417557.7877477.96138934 0 .46721377-.3296529.8695314-.7877477.96138934l-9.0674373 1.81821789c-1.53513469.30782781-3.02915098-.68710099-3.33697879-2.22223568-.03679744-.18350852-.05533181-.37021004-.05533181-.55737155 0-1.5656936 1.26924544-2.83493905 2.83493904-2.83493905.18716151 0 .37386303.01853438.55737156.05533182z" fill="#555b67" transform="matrix(0 -1 1 0 1.522044 14.776614)"/><g fill="#171e2b" fill-rule="nonzero"><rect height="3.357887" opacity=".7" rx="1.271318" width="2.542636" x="1.525581" y="12.523077"/><rect height="3.357887" opacity=".7" rx="1.271318" width="2.542636" x="11.441861" y="12.523077"/></g></g></g></g></svg>