<svg height="48" viewBox="0 0 48 48" width="48" xmlns="http://www.w3.org/2000/svg" xmlns:xlink="http://www.w3.org/1999/xlink"><defs><path id="a" d="m10.4129705.31365079h.8937869c5.5614197 0 10.0698412 4.50842151 10.0698412 10.06984131 0 5.5614197-4.5084215 10.0698412-10.0698412 10.0698412h-.8937869c-5.56141975 0-10.06984125-4.5084215-10.06984125-10.0698412 0-5.5614198 4.5084215-10.06984131 10.06984125-10.06984131z"/><mask id="b" fill="#fff"><use fill="#fff" fill-rule="evenodd" xlink:href="#a"/></mask></defs><g fill="none" fill-rule="evenodd"><rect fill="#f0f0f0" height="48" rx="24" width="48"/><g><path d="m24 48c13.254834 0 24-10.745166 24-24s-10.745166-24-24-24-24 10.745166-24 24 10.745166 24 24 24z" fill="#fff"/><g fill-rule="nonzero"><path d="m10.9858533 3.19896554c.6196392-1.85883042 2.3737236-3.19896554 4.4408134-3.19896554 2.0670897 0 3.8211741 1.34013512 4.4408133 3.19896554 1.6695044-1.02565028 3.8746333-.92474963 5.4581159.40395004 1.5834826 1.32869966 2.0657669 3.48280643 1.345605 5.30504958 1.9381898.28744303 3.5625588 1.78216694 3.9215052 3.81785294.3589463 2.0356859-.6562356 3.9958339-2.379227 4.9288419 1.2999748 1.4660386 1.5835236 3.6551878.5499788 5.44534-1.0335449 1.7901522-3.0711781 2.6391663-4.9907921 2.2463744.053487 1.9586584-1.13646 3.8179056-3.0788889 4.524892-1.942429.7069863-4.0490824.0476034-5.2671102-1.4871967-1.2180279 1.5348001-3.3246813 2.194183-5.2671102 1.4871967-1.942429-.7069864-3.13237596-2.5662336-3.07888894-4.524892-1.919614.3927919-3.95724725-.4562222-4.99079211-2.2463744s-.749996-3.9793014.54997873-5.44534c-1.72299138-.933008-2.73817327-2.893156-2.37922691-4.9288419.35894636-2.035686 1.98331538-3.53040991 3.92150521-3.81785294-.72016195-1.82224315-.2378776-3.97634992 1.345605-5.30504958 1.58348259-1.32869967 3.78861145-1.42960032 5.45811582-.40395004zm1.9906073 5.46914851c-.2638943.79422478-.7440747 1.52754575-1.4322311 2.10497755-.6881564.5774317-1.493719.9229773-2.32170248 1.0449467.30836312.7780394.41189321 1.6484499.25590082 2.5331267s-.55097677 1.6671857-1.10684847 2.2928372c.73633396.3978008 1.37513167.9980261 1.82429383 1.7759978.4491622.7779717.6495737 1.6312994.6259123 2.4678837.8197659-.1685733 1.6949307-.1193853 2.5390795.1878597.8441488.3072451 1.5461813.83211 2.0658017 1.48818.5196203-.65607 1.2216528-1.1809349 2.0658016-1.48818.8441488-.307245 1.7193136-.356433 2.5390796-.1878597-.0236614-.8365843.17675-1.689912.6259122-2.4678837s1.0879599-1.378197 1.8242939-1.7759978c-.5558717-.6256515-.9508561-1.4081604-1.1068485-2.2928372s-.0524623-1.7550873.2559008-2.5331267c-.8279835-.1219694-1.6335461-.467515-2.3217025-1.0449467-.6881564-.5774318-1.1683368-1.31075277-1.432231-2.10497755-.7126726.43878352-1.5518817.69188595-2.4502061.69188595s-1.7375336-.25310243-2.4502061-.69188595z" fill="#e29f41" transform="matrix(-1 0 0 -1 39.253334 38.954778)"/><g transform="translate(11.333333 13.946667)"><g transform="translate(1.92)"><use fill="#fed948" xlink:href="#a"/><path d="m8.1413402 11.1498079h5.2467093c2.5717942 0 4.6566453 2.0848511 4.6566453 4.6566453 0 2.5717942-2.0848511 4.6566454-4.6566453 4.6566454h-5.2467093c-2.57179422 0-4.65664536-2.0848512-4.65664536-4.6566454 0-2.5717942 2.08485114-4.6566453 4.65664536-4.6566453z" fill="#ffefb0" mask="url(#b)"/></g><g fill="#e29f41"><rect height="1.04" rx=".52" width="4.16" x="15.786666" y="12.826667"/><rect height="1.04" rx=".52" width="4.16" x="5.733333" y="12.826667"/></g><path d="m11.3603735 12.4417577c.4904337-.1615951.9808674-.2423926 1.4713011-.2423926.4904328 0 .9808655.0807972 1.4712983.2423917l.0000109-.000033c.2758888.0909037.425849.3882477.3349453.6641366-.0229508.0696549-.0602151.1337401-.1093998.1881405l-1.6968547 1.8767928-1.6968657-1.8766856c-.1948275-.2154875-.1780794-.5481136.0374081-.7429412.054405-.0491889.1184957-.0864563.1881565-.1094092z" fill="#171e2b"/><g transform="translate(0 .8)"><ellipse cx="4.77551" cy="4.769925" fill="#fed948" rx="4.77551" ry="4.769925"/><path d="m5.2070151 2.61799087.01102857.00636735c.68218193.39385793.91591472 1.26616058.5220568 1.94834252l-.6406817 1.10969326c-.39385793.68218194-1.26616059.91591473-1.94834252.52205681l-.01102857-.00636735c-.68218194-.39385792-.91591473-1.26616058-.52205681-1.94834252l.64068171-1.10969326c.39385792-.68218194 1.26616058-.91591473 1.94834252-.52205681z" fill="#e29f41"/></g><g transform="translate(15.428571 .8)"><ellipse cx="4.77551" cy="4.769925" fill="#fed948" rx="4.77551" ry="4.769925"/><path d="m6.25804367 6.19808346-.01102857.00636735c-.68218194.39385792-1.5544846.16012513-1.94834252-.52205681l-.64068171-1.10969326c-.39385792-.68218194-.16012513-1.55448459.52205681-1.94834252l.01102857-.00636735c.68218193-.39385792 1.55448459-.16012513 1.94834252.52205681l.6406817 1.10969326c.39385792.68218194.16012513 1.5544846-.5220568 1.94834252z" fill="#e29f41"/></g><g fill="#171e2b"><circle cx="8.115192" cy="11.149807" r="1.980952"/><circle cx="17.689796" cy="11.149807" r="1.980952"/></g><g opacity=".72" stroke="#171e2b" stroke-width=".871619" transform="translate(10.4 13.6)"><path d="m4.41269841 2.40140351-2.03990929 1.15381788-2.0399093-1.15381788" stroke-linecap="round" transform="matrix(-1 0 0 -1 4.745578 5.956624)"/><path d="m2.39975323.28770716v2.07261785"/></g></g><g stroke="#171e2b" stroke-linecap="round" stroke-width=".693333" transform="translate(29.893333 28.56)"><path d="m.11555556 1.21333333 2.54222222-1.04"/><path d="m.11555556 1.21333333 2.54222222-1.04" transform="matrix(1 0 0 -1 0 3.466667)"/></g><g stroke="#171e2b" stroke-linecap="round" stroke-width=".693333" transform="matrix(-1 0 0 1 18.106667 28.56)"><path d="m.11555556 1.21333333 2.54222222-1.04"/><path d="m.11555556 1.21333333 2.54222222-1.04" transform="matrix(1 0 0 -1 0 3.466667)"/></g></g></g></g></svg>