<svg height="48" viewBox="0 0 48 48" width="48" xmlns="http://www.w3.org/2000/svg" xmlns:xlink="http://www.w3.org/1999/xlink"><defs><path id="a" d="m13.0118159 0h1.154913c7.1862275 0 13.0118159 5.82558842 13.0118159 13.0118159v.0822047c0 7.1862275-5.8255884 13.0118159-13.0118159 13.0118159h-1.154913c-7.18622748 0-13.0118159-5.8255884-13.0118159-13.0118159v-.0822047c0-7.18622748 5.82558842-13.0118159 13.0118159-13.0118159z"/><path id="b" d="m10.2336882 2.54371532c.8447871-1.51728423 2.4648879-2.54371532 4.3247246-2.54371532h.9624912c2.7318613 0 4.9464724 2.21461115 4.9464724 4.94647246 0 2.7318613-2.2146111 4.94647246-4.9464724 4.94647246h-.9624912c-1.8598367 0-3.4799375-1.02643109-4.3247246-2.54371532-.84478704 1.51728423-2.46488788 2.54371532-4.32472454 2.54371532h-.9624912c-2.73186131 0-4.94647246-2.21461116-4.94647246-4.94647246 0-2.73186131 2.21461115-4.94647246 4.94647246-4.94647246h.9624912c1.85983666 0 3.4799375 1.02643109 4.32472454 2.54371532z"/><mask fill="#fff"><use fill="#fff" fill-rule="evenodd" xlink:href="#a"/></mask><mask id="c" fill="#fff"><use fill="#fff" fill-rule="evenodd" xlink:href="#b"/></mask></defs><g fill="none" fill-rule="evenodd"><rect fill="#fff" height="48" rx="24" width="48"/><g transform="translate(10.4 10)"><use fill="#d2d6de" fill-rule="nonzero" transform="translate(.348694)" xlink:href="#a"/><path d="m4.58421859 19.8455871 9.49046651 1.8953293c.4766547.0951922.8198116.5136568.8198116.9997239 0 .4860671-.3431569.9045317-.8198116.9997239l-9.49046651 1.8953293c-1.59889375.3193131-3.15390765-.7179919-3.47322076-2.3168857-.03801937-.1903741-.05716811-.3840341-.05716811-.5781675 0-1.6304668 1.32175452-2.9522214 2.95222135-2.9522214.19413338 0 .38779342.0191488.57816752.0571682z" fill="#555b67" transform="matrix(0 1 -1 0 30.71509 14.766764)"/><path d="m16.2857111 19.8455871 9.4904666 1.8953293c.4766546.0951922.8198116.5136568.8198116.9997239 0 .4860671-.343157.9045317-.8198116.9997239l-9.4904666 1.8953293c-1.5988937.3193131-3.1539076-.7179919-3.4732207-2.3168857-.0380194-.1903741-.0571681-.3840341-.0571681-.5781675 0-1.6304668 1.3217545-2.9522214 2.9522213-2.9522214.1941334 0 .3877934.0191488.5781675.0571682z" fill="#555b67" transform="matrix(0 1 -1 0 42.416583 3.065271)"/><g fill-rule="nonzero"><g fill="#171e2b"><ellipse cx="6.647388" cy="11.887096" rx="2.559701" ry="2.567787"/><ellipse cx="21.578981" cy="11.887096" rx="2.559701" ry="2.567787"/></g><g transform="translate(3.761194 12.07027)"><use fill="#858c9a" xlink:href="#b"/><path d="m10.2192324 2.4972973v6.24324324" mask="url(#c)" opacity=".7" stroke="#171e2b" stroke-width="1.126269"/></g><path d="m12.1432432 12.3855932c.63485-.2102153 1.2697-.3153229 1.9045501-.3153229.6348253 0 1.2696507.1050995 1.9044761.3152985l.0000227-.0000686c.3563342.1179869.5495528.5025.4315659.8588342-.0295707.0893068-.0773596.1715022-.1403419.2413832l-2.1957228 2.4362335-2.1957444-2.4362269c-.25128-.2788041-.2289673-.7085223.0498369-.9598023.0698738-.0629757.1520603-.1107601.2413574-.1403287z" fill="#171e2b"/><g stroke="#171e2b" stroke-linecap="round" stroke-width=".895896" transform="translate(18.010634 15.858157)"><path d="m.14931592 1.57276966 3.28495025-1.34808828"/><path d="m.14931592 1.57276966 3.28495025-1.34808828" transform="matrix(1 0 0 -1 0 4.493628)"/></g><g stroke="#171e2b" stroke-linecap="round" stroke-width=".895896" transform="matrix(-1 0 0 1 9.606281 15.858157)"><path d="m.14931592 1.57276966 3.28495025-1.34808828"/><path d="m.14931592 1.57276966 3.28495025-1.34808828" transform="matrix(1 0 0 -1 0 4.493628)"/></g></g></g></g></svg>