<svg height="48" viewBox="0 0 48 48" width="48" xmlns="http://www.w3.org/2000/svg"><g fill="none" fill-rule="evenodd"><rect fill="#fff" height="48" rx="24" width="48"/><g transform="translate(10.309117 10.608858)"><g stroke="#171e2b" stroke-linecap="round" stroke-width="2.42998"><path d="m2.6649469 18.5512247-2.37615663 2.2087593"/><path d="m2.17069694 17.4929577-1.78180805.7354534"/><path d="m2.8019943 16.1179021-2.02421652-.2218853"/></g><rect fill="#e52636" fill-rule="nonzero" height="3.631884" rx="1.815942" transform="matrix(0 1 -1 0 18.406122 -9.761636)" width="8.125023" x="10.021368" y="2.506301"/><rect fill="#e52636" fill-rule="nonzero" height="3.631884" rx="1.815942" transform="matrix(.5 .8660254 -.8660254 .5 10.516827 -7.650975)" width="8.125023" x="7.82184" y="3.46641"/><rect fill="#e52636" fill-rule="nonzero" height="3.631884" rx="1.815942" transform="matrix(.70710678 .70710678 -.70710678 .70710678 7.971389 -4.919095)" width="8.125023" x="5.861056" y="5.346828"/><path d="m14.0303511 25.0630096c5.728166 0 11.0679395-4.9693405 11.0679395-11.0993328 0-6.12999226-5.3397735-11.09933284-11.0679395-11.09933284s-11.18847076 4.96934058-11.18847076 11.09933284c0 6.1299923 5.46030476 11.0993328 11.18847076 11.0993328z" fill="#fc5859"/><rect fill="#fc5859" fill-rule="nonzero" height="13.963677" rx="6.981838" width="26.564103" x=".688034" y="12.889548"/><g fill="#ff9193" fill-rule="nonzero" opacity=".630301"><ellipse cx="6.802422" cy="16.767116" rx="3.202422" ry="3.167116"/><ellipse cx="20.802422" cy="16.767116" rx="3.202422" ry="3.167116"/></g><ellipse cx="9.314157" cy="12.455505" fill="#44424f" rx="1" ry="1"/><ellipse cx="18.532051" cy="12.455505" fill="#44424f" rx="1" ry="1"/><path d="m17.0806145 18.5184461c.1439754.3619988-.0120573.7798075-.3673767.9555542l-2.6897059 1.3303715c-.130212.0644049-.2830099.0644049-.4132219 0l-2.6897058-1.3303715c-.2575318-.1273794-.4205127-.3898198-.4205127-.6771317 0-.0983261.0187852-.1922646.0529626-.2784225h-2.40704878c-.25737773 0-.46602361-.2086459-.46602361-.4660236 0-.1403357.06324055-.2731994.17215853-.3616923l5.74811116-4.6701828c.1712162-.1391084.4165141-.1391084.5877302 0l5.7481112 4.6701828c.1997572.1622972.2301244.4558002.0678272.6555574-.0884928.108918-.2213565.1721585-.3616923.1721585z" fill="#fed948"/></g><g fill="#171e2b" fill-rule="nonzero" transform="matrix(-1 0 0 -1 31.508547 25.795849)"><ellipse cx="2.153846" cy="2.148258" rx="2.153846" ry="2.148258"/><ellipse cx="12.564103" cy="2.148258" rx="2.153846" ry="2.148258"/></g></g></svg>