<svg height="48" viewBox="0 0 48 48" width="48" xmlns="http://www.w3.org/2000/svg"><g fill="none" fill-rule="evenodd"><path d="m24 48c13.254834 0 24-10.745166 24-24s-10.745166-24-24-24-24 10.745166-24 24 10.745166 24 24 24z" fill="#fff"/><ellipse cx="21.447458" cy="17.214765" fill="#91cfff" rx="6.3" ry="6.414765"/><g fill-rule="nonzero" transform="translate(14.4 15.801342)"><rect fill="#eeac7c" height="11.296511" rx="2.425868" transform="matrix(.70710678 -.70710678 .70710678 .70710678 -9.855628 8.81209)" width="4.851736" x="3.283452" y="10.654585"/><path d="m14.4229115 9.17164623c.3924808-.81117589 1.2233826-1.37063952 2.1849542-1.37063952 1.3397699 0 2.4258681 1.08609811 2.4258681 2.42586799v4.5373557c.012963.1653298.0195668.3324464.0195668.5011055v1.0738429c0 3.491941-2.8307775 6.3227184-6.3227185 6.3227184h-1.5561276c-3.49194097 0-6.32271845-2.8307774-6.32271845-6.3227184v-1.0738429-12.83946787c0-1.33976992 1.08609811-2.42586803 2.42586803-2.42586803s2.42586803 1.08609811 2.42586803 2.42586803v5.53445935c.36597709-.87578074 1.23075049-1.49119986 2.23926279-1.49119986 1.3397699 0 2.425868 1.08609811 2.425868 2.42586802v.26186291c.0181352.00485078.0362382.00978017.0543086.01478778z" fill="#fcc6a0"/></g></g></svg>