<svg height="21" viewBox="0 0 31 21" width="31" xmlns="http://www.w3.org/2000/svg" xmlns:xlink="http://www.w3.org/1999/xlink"><filter id="a" height="118.8%" width="103.9%" x="-2%" y="-6.2%"><feOffset dx="0" dy="1" in="SourceAlpha" result="shadowOffsetOuter1"/><feGaussianBlur in="shadowOffsetOuter1" result="shadowBlurOuter1" stdDeviation=".5"/><feColorMatrix in="shadowBlurOuter1" result="shadowMatrixOuter1" type="matrix" values="0 0 0 0 0   0 0 0 0 0   0 0 0 0 0  0 0 0 0.259171196 0"/><feMerge><feMergeNode in="shadowMatrixOuter1"/><feMergeNode in="SourceGraphic"/></feMerge></filter><g fill-rule="evenodd" filter="url(#a)" opacity=".203571" transform="translate(-99 -5)"><path d="m4.72093023 13.209222-2.04195159.9569487c-.72013176.3374856-1.57749999.0272896-1.91498555-.6928422-.08962625-.1912458-.13608611-.399866-.13608611-.6110717v-7.61698383c0-.79529004.64470996-1.44 1.44-1.44.21120568 0 .41982581.04645985.61107166.13608611l2.04195159.95694874v-2.90147392c0-1.10282091.88728018-1.9968339 1.99800344-1.9968339h20.93422573c1.1034668 0 1.9980034.88570324 1.9980034 1.9968339v13.8667973c0 1.1028209-.8872802 1.9968339-1.9980034 1.9968339h-20.93422573c-1.10346683 0-1.99800344-.8857032-1.99800344-1.9968339z" transform="translate(99.372093 5.581395)"/></g></svg>