<svg height="48" viewBox="0 0 48 48" width="48" xmlns="http://www.w3.org/2000/svg"><g fill="none" fill-rule="evenodd"><path d="m24 48c13.254834 0 24-10.745166 24-24s-10.745166-24-24-24-24 10.745166-24 24 10.745166 24 24 24z" fill="#fff"/><g transform="translate(12 12)"><circle cx="12" cy="12" fill="#fed948" r="12"/><ellipse cx="7.552941" cy="10.492632" fill="#171e2b" fill-rule="nonzero" rx="1.552941" ry="1.692632"/><ellipse cx="16.164706" cy="10.492632" fill="#171e2b" fill-rule="nonzero" rx="1.552941" ry="1.692632"/><path d="m15.6 19.2c0-3.9764502-3.2235498-7.2-7.2-7.2" stroke="#171e2b" stroke-linecap="round" stroke-width="1.2" transform="matrix(-.70710678 .70710678 -.70710678 -.70710678 31.516147 18.145584)"/></g><path d="m10.0129978 26.3949834c.6474023.1449281 2.9720833-2.8957123 3.6733646-3.2444902s9.4954661-6.1583033 7.101946-8.1144564c-1.002129-.8190104-2.3541672.625892-7.6688625 2.2985131-1.0420394 1.0136419-2.8096864 3.3917941-2.8096864 3.3917941s-2.34495939 1.3409503-2.672055 2.5665249c-.08319004.3116997-.03585767.6159365.21376948.8887525z" fill="#fba800"/></g></svg>