<svg height="48" viewBox="0 0 48 48" width="48" xmlns="http://www.w3.org/2000/svg"><g fill="none" fill-rule="evenodd"><path d="m24 48c13.254834 0 24-10.745166 24-24s-10.745166-24-24-24-24 10.745166-24 24 10.745166 24 24 24z" fill="#fff"/><path d="m14.9974525 12.1637859c0 1.3850459-1.0770394 2.5071668-2.406451 2.5071668-1.3287086 0-2.4057676-1.1221413-2.4057676-2.5071668 0-1.3842929 1.077059-2.50641383 2.4057676-2.50641383 1.3294116 0 2.406451 1.12212093 2.406451 2.50641383zm3.2480888-1.2527898c0 .6924924-.5385295 1.253563-1.2032353 1.253563-.6646862 0-1.2032157-.5610502-1.2032157-1.253563 0-.6925331.5385295-1.25360369 1.2032157-1.25360369.6647058 0 1.2032353.56107059 1.2032353 1.25360369zm3.4884313.312816c0 .6925331-.53851 1.2536037-1.2032158 1.2536037s-1.2032353-.5610706-1.2032353-1.2536037.5385295-1.25358339 1.2032353-1.25358339c.6647058-.00002035 1.2032158.56105029 1.2032158 1.25358339zm2.8272796 1.6295769c0 .6925331-.5385294 1.2535834-1.2032352 1.2535834s-1.2032158-.5610503-1.2032158-1.2535834c0-.692533.53851-1.2535833 1.2032158-1.2535833.6646863 0 1.2032352.5610706 1.2032352 1.2535833zm-6.9332153.6426014s4.5267448-.3289919 5.3063392 4.3210679c.3806187 2.272158.2220438 7.1939732-3.2762886 7.9430102-.8444304.180682-3.2932006-.0440515-2.9773985-2.3470556.1113735-.8144324.84445-2.1399834 0-3.2900001-.5864534-.7990094-2.7518394-2.6157034-2.7518394-4.0420078 0-1.4263043.7668811-2.209021 3.6991873-2.5850146z" fill="#6d97df" transform="matrix(.70710678 .70710678 -.70710678 .70710678 27.627719 3.309175)"/><path d="m8.00209313 4.86057098c0 1.38504582-1.0770394 2.50716672-2.40645102 2.50716672-1.32870858 0-2.40576751-1.12214125-2.40576751-2.50716672 0-1.38429298 1.07705893-2.50641388 2.40576751-2.50641388 1.32941162 0 2.40645102 1.1221209 2.40645102 2.50641388zm3.24808887-1.25278983c0 .69249239-.5385295 1.25356301-1.2032353 1.25356301-.66468629 0-1.20321575-.56105027-1.20321575-1.25356301 0-.69253308.53852946-1.25360371 1.20321575-1.25360371.6647058 0 1.2032353.56107063 1.2032353 1.25360371zm3.4884312.31281595c0 .69253308-.5385099 1.25360371-1.2032157 1.25360371s-1.2032353-.56107063-1.2032353-1.25360371.5385295-1.25358336 1.2032353-1.25358336c.6647058-.00002035 1.2032157.56105028 1.2032157 1.25358336zm2.8272797 1.62957698c0 .69253308-.5385295 1.25358336-1.2032353 1.25358336s-1.2032157-.56105028-1.2032157-1.25358336.5385099-1.25358336 1.2032157-1.25358336c.6646863 0 1.2032353.56107062 1.2032353 1.25358336zm-6.9332153.64260136s4.5267448-.32899188 5.3063392 4.32106786c.3806186 2.272158.2220438 7.1939733-3.2762886 7.9430102-.8444305.180682-3.29320064-.0440514-2.9773985-2.3470556.11137343-.8144324.84445-2.1399834 0-3.2900001-.58645343-.7990093-2.75183948-2.6157034-2.75183948-4.04200773 0-1.42630431.76688112-2.20902101 3.69918738-2.58501463z" fill="#fba800" transform="matrix(-.89879405 .43837115 .43837115 .89879405 25.133292 6.906204)"/></g></svg>