<svg height="48" viewBox="0 0 48 48" width="48" xmlns="http://www.w3.org/2000/svg"><g fill="none" fill-rule="evenodd"><path d="m24 48c13.254834 0 24-10.745166 24-24s-10.745166-24-24-24-24 10.745166-24 24 10.745166 24 24 24z" fill="#fff"/><g transform="translate(12 12)"><circle cx="12" cy="12" fill="#fed948" r="12"/><ellipse cx="7.552941" cy="10.492632" fill="#171e2b" fill-rule="nonzero" rx="1.552941" ry="1.692632"/><ellipse cx="16.164706" cy="10.492632" fill="#171e2b" fill-rule="nonzero" rx="1.552941" ry="1.692632"/><path d="m15.6 21.2c0-3.9764502-3.2235498-7.2-7.2-7.2" stroke="#171e2b" stroke-linecap="round" stroke-width="1.2" transform="matrix(-.70710678 .70710678 -.70710678 -.70710678 32.930361 21.559798)"/><g transform="translate(0 6.8)"><g transform="translate(4.142857 2.24)"><path d="m3.66402116 1.69814815c0 .74442289-.61604617 1.34814815-1.37566137 1.34814815-.75986532 0-1.37566138-.60372526-1.37566138-1.34814815 0-.74466801.61579606-1.34814815 1.37566138-1.34814815.7596152 0 1.37566137.60348014 1.37566137 1.34814815" fill="#fff"/><path d="m3.12830688 1.69814815c0 .45452744-.37614358.82314815-.83994709.82314815-.46395623 0-.83994709-.36862071-.83994709-.82314815 0-.45467711.37599086-.82314815.83994709-.82314815.46380351 0 .83994709.36847104.83994709.82314815" fill="#51636c"/><path d="m14.6560847 1.69814815c0 .73726498-.6101227 1.33518518-1.3624339 1.33518518-.7525589 0-1.3624339-.5979202-1.3624339-1.33518518 0-.73750775.609875-1.33518519 1.3624339-1.33518519.7523112 0 1.3624339.59767744 1.3624339 1.33518519" fill="#fff"/><path d="m13.2936508 2.50185185c-.4529966 0-.8201058-.35991313-.8201058-.8037037 0-.4439367.3671092-.80370371.8201058-.80370371.4528475 0 .8201058.35976701.8201058.80370371 0 .44379057-.3672583.8037037-.8201058.8037037z" fill="#51636c"/><g fill="#ffbda9"><path d="m3.05555556 4.32962963c0 .40089259-.68407408.72592593-1.52777778.72592593-.84388889 0-1.52777778-.32503334-1.52777778-.72592593s.68388889-.72592593 1.52777778-.72592593c.8437037 0 1.52777778.32503334 1.52777778.72592593"/><path d="m15.6746032 4.32962963c0 .40089259-.6840741.72592593-1.5277778.72592593-.8438889 0-1.5277778-.32503334-1.5277778-.72592593s.6838889-.72592593 1.5277778-.72592593c.8437037 0 1.5277778.32503334 1.5277778.72592593"/></g></g><path d="m6.28571429 7.84c2.20913899 0 4.00000001-1.75504378 4.00000001-3.92s-1.79086102-3.36-4.00000001-3.36c-2.209139 0-4.57142858 1.19504378-4.57142858 3.36s2.36228958 3.92 4.57142858 3.92z" fill="#555"/><path d="m18.2857143 7.84c2.209139 0 4-1.75504378 4-3.92s-1.790861-3.36-4-3.36-4.5714286 1.19504378-4.5714286 3.36 2.3622896 3.92 4.5714286 3.92z" fill="#555"/><path d="m23.997906 1.47620708c0 .54598277-.0529691.62226361-.5218243.85894322-.4683307.23641838-.5580111 1.09431666-.6162247 1.55644274-.058738.46186484-.1696584 1.32812267-.474624 2.30775681-.3039168.97963415-1.1718758 2.20065015-3.7935838 2.20065015-2.6214459 0-3.6863345-.99217346-4.220221-1.66381064-.5333621-.67137593-1.2759784-3.06795291-1.4697614-3.64972497-.1935207-.58177207-.9012613-.53683952-.9012613-.53683952v-.00940448s-.7069539-.04493256-.9009991.53762322c-.193783.58255577-.9363992 2.98305128-1.47002353 3.6557334-.53362432.67268211-1.59877517 1.66642299-4.22074547 1.66642299-2.62197029 0-3.48966703-1.22284465-3.793846-2.20404621-.30417898-.9814628-.41588608-1.8490268-.47436187-2.31193659-.05847578-.46290979-.14815613-1.32211424-.61648686-1.55905509-.46859295-.23667961-.52182427-.31322169-.52182427-.8602494 0-.54676647-.06817805-.85058367.56902445-.9676173.63746473-.11677239 3.65775214-.69044615 6.16513088-.42999408 2.50737873.2607133 2.92982039.91406397 5.26386957.91406397v.01175561c2.3340492 0 2.756753-.65230573 5.2636073-.91249656s5.5268795.31269922 6.1643442.42947161c.637727.11677239.5698112.42032836.5698112.96631112zm-14.70576459.39276692c-.91741683-.64828694-1.8323814-.7753916-3.22526373-.74481203-2.5871318.0569046-3.18602761.63366193-3.1841203 1.67602649.00136237.76581886-.1983604 2.18364739.49617346 3.35205297.69480633 1.1689374 2.54680579 1.39363078 4.09363541.8381462 1.54655714-.55575049 1.85853881-2.24613608 2.06752566-3.02631405.20898684-.77991205.33323456-1.68426967-.2479505-2.09509958zm12.39653979.93114374c.0019075-1.04222323-.5970608-1.61931544-3.183961-1.6759609-1.3927785-.03058323-2.3078539.09680256-3.2253819.74490106-.5812555.41061308-.4569927 1.31507881-.2479805 2.0950841.2092846.77973934.5207591 2.47085888 2.0672311 3.02614393 1.547017.55581693 3.3992407.33056481 4.0935862-.83798045.6948905-1.16854525.4951436-2.58627733.4965061-3.35218774z" fill="#171e2b"/></g></g></g></svg>