<svg height="48" viewBox="0 0 48 48" width="48" xmlns="http://www.w3.org/2000/svg"><g fill="none" fill-rule="evenodd"><path d="m24 48c13.254834 0 24-10.745166 24-24s-10.745166-24-24-24-24 10.745166-24 24 10.745166 24 24 24z" fill="#fff"/><g transform="translate(12.8 13.2)"><path d="m15.0723404 6.13582418v-3.63342418c0-.27746786-.2249321-.5024-.5024-.5024h-6.4675404c-.27746786 0-.5024.22493214-.5024.5024v3.63342418h-1.36994043c-.49838175 0-.9024-.40401825-.9024-.9024v-4.33102418c0-.49838176.40401825-.9024.9024-.9024h10.03520003c.4983817 0 .9024.40401824.9024.9024v4.33102418c0 .49838175-.4040183.9024-.9024.9024z" fill="#7870c5"/><rect fill="#fc5859" height="18.18022" rx="3.2" width="22.4" y="3.626374"/><path d="m12.1531915 11.5347206h3.8819733v1.906383h-3.8819733v3.8819733h-1.906383v-3.8819733h-3.88197334v-1.906383h3.88197334v-3.88197335h1.906383z" fill="#fec018"/></g></g></svg>