<svg height="48" viewBox="0 0 48 48" width="48" xmlns="http://www.w3.org/2000/svg"><g fill="none" fill-rule="evenodd"><path d="m24 48c13.254834 0 24-10.745166 24-24s-10.745166-24-24-24-24 10.745166-24 24 10.745166 24 24 24z" fill="#fff"/><g transform="translate(12.4 12.4)"><path d="m11.6 0c-6.4090174 0-11.6 5.19098991-11.6 11.6000163 0 6.4031455 5.1909826 11.5999837 11.6 11.5999837 6.4031365 0 11.6-5.1968382 11.6-11.5999837 0-6.40902639-5.1968635-11.6000163-11.6-11.6000163z" fill="#60d064"/><path d="m17.5054545 9.29178376-7.1540363 7.15912534-4.02414547-4.919572 1.82430144-1.63186053 2.44877233 2.89293293 5.1838797-5.19968223z" fill="#fff"/></g></g></svg>