<svg height="48" viewBox="0 0 48 48" width="48" xmlns="http://www.w3.org/2000/svg"><g fill="none" fill-rule="evenodd"><path d="m24 48c13.254834 0 24-10.745166 24-24s-10.745166-24-24-24-24 10.745166-24 24 10.745166 24 24 24z" fill="#fff"/><path d="m19.0299353 14.5308931h1.7230553c.3158862 0 .5719626.2560764.5719626.5719626v13.0199939c0 .7916948-.6417954 1.4334902-1.4334902 1.4334902-.7916949 0-1.4334903-.6417954-1.4334903-1.4334902v-13.0199939c0-.3158862.2560764-.5719626.5719626-.5719626z" fill="#6d97df" transform="matrix(.70710678 -.70710678 .70710678 .70710678 -.161116 28.921814)"/><path d="m17.1623956 17.2062283h1.7230553c.3158862 0 .5719626.2560764.5719626.5719626v3.9342441c0 .7916948-.6417954 1.4334902-1.4334903 1.4334902-.7916948 0-1.4334902-.6417954-1.4334902-1.4334902v-3.9342441c0-.3158862.2560764-.5719626.5719626-.5719626z" fill="#537cc1" opacity=".856049" transform="matrix(.70710678 -.70710678 .70710678 .70710678 .612444 27.054274)"/><path d="m13.7000033 20.5337589-5.15800926 2.7535824c-.31236886.1667568-.70077699.048715-.86753384-.2636539-.06679665-.1251234-.090217-.2688647-.06659447-.4087206l.98983328-5.8602509c.03476018-.2057957-.03282574-.4156313-.18116064-.5624539l-4.2002466-4.1574245c-.25166144-.2490957-.25374137-.6550396-.00464566-.906701.09767018-.0986762.22473257-.1629813.36208511-.1832478l5.78745208-.8539467c.2096245-.0309304.3904284-.16343449.483054-.35401149l2.5810638-5.31053026c.1547855-.31847071.5384355-.45116378.8569062-.29637826.1292072.06279826.23358.16717106.2963782.29637826l2.5810637 5.31053026c.0926257.190577.2734296.32308109.483054.35401149l5.7874522.8539467c.3503006.0516873.5923746.377563.5406872.7278637-.0202665.1373525-.0845716.2644149-.1832478.3620851l-4.2002466 4.1574245c-.1483349.1468226-.2159208.3566582-.1811606.5624539l.9898333 5.8602509c.0589732.349148-.1762598.6799957-.5254078.7389689-.1398558.0236226-.2835971.0002022-.4087206-.0665944l-5.1580092-2.7535824c-.1886912-.1007321-.4151889-.1007321-.60388 0z" fill="#fec018" fill-rule="nonzero" transform="matrix(.83867057 .54463904 -.54463904 .83867057 19.327812 2.986355)"/><g fill="#fed948"><path d="m11.7768797 5.4366501-.8836878.48867498.1687694-1.03503021-.7149184-.73301245.9879929-.15100888.4418439-.94170158.4418438.94170158.9879929.15100888-.7149184.73301245.1687694 1.03503021z" transform="matrix(.83867057 .54463904 -.54463904 .83867057 13.97971 2.720378)"/><path d="m3.17593805 6.88658423-.88368771.48867497.16876933-1.0350302-.71491837-.73301246.9879929-.15100887.44184385-.94170159.44184386.94170159.9879929.15100887-.71491838.73301246.16876934 1.0350302z" transform="matrix(.83867057 .54463904 -.54463904 .83867057 13.381816 7.638703)"/><path d="m4.69352642 12.4337516-.88368772.4886749.16876934-1.0350302-.71491838-.7330124.9879929-.1510089.44184386-.9417016.44184385.9417016.9879929.1510089-.71491837.7330124.16876933 1.0350302z" transform="matrix(.83867057 .54463904 -.54463904 .83867057 16.647851 7.707087)"/></g></g></svg>