<svg height="48" viewBox="0 0 48 48" width="48" xmlns="http://www.w3.org/2000/svg"><g fill="none" fill-rule="evenodd"><path d="m24 48c13.254834 0 24-10.745166 24-24s-10.745166-24-24-24-24 10.745166-24 24 10.745166 24 24 24z" fill="#fff"/><g fill-rule="nonzero"><path d="m4.94581753 2.8307615h9.17718397v9.2516224h-9.17718397c-1.72503103 0-3.12344497-1.398414-3.12344497-3.12344502v-3.0047324c0-1.72503103 1.39841394-3.12344498 3.12344497-3.12344498z" fill="#6d97df" transform="matrix(.2588190437 -.9659258283 .9659258283 .2588190437 14.15524363682 38.56500477342)"/><path d="m9.27944331 3.95953376h3.69666929v9.25162234h-3.69666929c-1.3254834 0-2.4-1.0745166-2.4-2.4v-4.45162234c0-1.3254834 1.0745166-2.4 2.4-2.4z" fill="#fc5859" transform="matrix(.2588190437 -.9659258283 .9659258283 .2588190437 13.14321367232 37.98070900608)"/><path d="m13.5307869 11.1867241h8.2177364c1.1773337 0 2.1317512.9544175 2.1317512 2.1317512v.027866c0 1.1773337-.9544175 2.1317512-2.1317512 2.1317512h-8.2177364c-1.1773337 0-2.1317512-.9544175-2.1317512-2.1317512v-.027866c0-1.1773337.9544175-2.1317512 2.1317512-2.1317512z" fill="#fcc6a0" transform="matrix(0 -1.0000000097 1.0000000097 0 13.44499113319 32.78610539592)"/><path d="m10.835219 15.31558h6.2382917c1.1773337 0 2.1317512.9544175 2.1317512 2.1317512v.027866c0 1.1773337-.9544175 2.1317512-2.1317512 2.1317512h-6.2382917c-1.17733368 0-2.1317512-.9544175-2.1317512-2.1317512v-.027866c0-1.1773337.95441752-2.1317512 2.1317512-2.1317512z" fill="#fcc6a0" transform="matrix(.49999999832 -.86602540842 .86602540842 .49999999832 9.62031073042 20.99174332594)"/><rect fill="#fcc6a0" height="13.204211" rx="6.559234" transform="matrix(.2588190437 -.9659258283 .9659258283 .2588190437 13.65443766408 30.83238833885)" width="13.752175" x="2.416743" y="2.677238"/><g transform="translate(14.8 14.8)"><path d="m1.17844344 3.30058986c-.19165192.46218806-.29742939.9689848-.29742939 1.50048718 0 2.16499101 1.75507198 3.92006299 3.92006299 3.92006299s3.92006299-1.75507198 3.92006299-3.92006299-1.75507198-3.92006299-3.92006299-3.92006299" stroke="#fcc6a0" stroke-linecap="round" stroke-width="3.6" transform="matrix(.96592583 -.25881905 .25881905 .96592583 -1.079017 1.406203)"/><rect fill="#eeac7c" height="10.299867" opacity=".472656" rx="5.149934" transform="matrix(-.5 .8660254 -.8660254 -.5 25.749815 6.281347)" width="12.006664" x="5.058307" y="5.424071"/></g></g></g></svg>