<svg height="48" viewBox="0 0 48 48" width="48" xmlns="http://www.w3.org/2000/svg"><g fill="none" fill-rule="evenodd"><path d="m24 48c13.254834 0 24-10.745166 24-24s-10.745166-24-24-24-24 10.745166-24 24 10.745166 24 24 24z" fill="#fff"/><g fill-rule="nonzero" transform="translate(4 4)"><path d="m0 0h40v40h-40z"/><g transform="matrix(-.5 .8660254 .8660254 .5 16.222989 4.626376)"><path d="m19.5097918 19.5097918c2.0681646-2.0681647 3.3473511-4.9253075 3.3473511-8.0812204 0-6.31182568-5.1167458-11.4285714-11.4285715-11.4285714-6.31182568 0-11.4285714 5.11674572-11.4285714 11.4285714 0 6.3118257 5.11674572 11.4285715 11.4285714 11.4285715" stroke="#555b67" stroke-linecap="round" stroke-width="2"/><path d="m16.3148194 16.8762451c-.0595742 1.4131006-.3385664 2.781679-.8369765 4.1057353-.4984101 1.3240562-1.1892891 2.6698957-2.072637 4.0375186-1.3824026-1.3584567-2.7231839-2.970849-4.02234387-4.8371769-1.29915999-1.8663279-2.20316707-3.4787202-2.71202122-4.8371769z" fill="#555b67" transform="matrix(-.5 .8660254 .8660254 .5 -.239159 .138078)"/></g></g></g></svg>