<svg height="48" viewBox="0 0 48 48" width="48" xmlns="http://www.w3.org/2000/svg"><g fill="none" fill-rule="evenodd"><path d="m24 48c13.254834 0 24-10.745166 24-24s-10.745166-24-24-24-24 10.745166-24 24 10.745166 24 24 24z" fill="#fff"/><circle cx="21.2" cy="16" fill="#e2f2ff" r="9" stroke="#aedbff" stroke-width=".5"/><circle cx="21.2" cy="16" fill="#91cfff" opacity=".635212" r="7"/><circle cx="21.2" cy="16" fill="#5fa0ec" r="4"/><g fill-rule="nonzero" transform="translate(14.068085 15.752866)"><rect fill="#eeac7c" height="11.211989" rx="2.453592" transform="matrix(.70710678 -.70710678 .70710678 .70710678 -9.830018 8.857709)" width="4.930386" x="3.311998" y="10.688741"/><path d="m14.6704837 9.17081585c.4028375-.80404739 1.2344637-1.35600693 2.1950069-1.35600693h.0232018c1.3550816 0 2.4535923 1.09851066 2.4535923 2.45359228v4.5076222c.0131725.1666436.019884.3351053.019884.5051345v1.0981163c0 3.4919409-2.8307775 6.3227184-6.3227185 6.3227184h-1.7863455c-3.49194095 0-6.32271842-2.8307775-6.32271842-6.3227184v-1.0981163-12.82756567c0-1.35508157 1.09851066-2.45359223 2.45359224-2.45359223h.02320181c1.35508158 0 2.45359224 1.09851066 2.45359224 2.45359223v5.53309056c.37067163-.88465597 1.24474263-1.50610954 2.26396203-1.50610954h.0232018c1.3550815 0 2.4535922 1.09851066 2.4535922 2.45359223v.21870998c.0230358.00585392.0460211.01183431.0689551.01794039z" fill="#fcc6a0"/></g></g></svg>