<svg height="48" viewBox="0 0 48 48" width="48" xmlns="http://www.w3.org/2000/svg"><g fill="none" fill-rule="evenodd"><path d="m24 48c13.254834 0 24-10.745166 24-24s-10.745166-24-24-24-24 10.745166-24 24 10.745166 24 24 24z" fill="#fff"/><g transform="translate(4.8 4.2)"><path d="m0 .965854h38.4v38.634146h-38.4z"/><path d="m13.056 11.1073171h12.048c1.1134061 0 2.016.9025939 2.016 2.016v16.2509268c0 1.1134061-.9025939 2.016-2.016 2.016h-12.048c-1.1134061 0-2.016-.9025939-2.016-2.016v-16.2509268c0-1.1134061.9025939-2.016 2.016-2.016zm1.5890262 2.7043902c-.5567031 0-1.008.451297-1.008 1.008v9.8833171c0 .556703.4512969 1.008 1.008 1.008h8.85126c.556703 0 1.008-.451297 1.008-1.008v-9.8833171c0-.556703-.451297-1.008-1.008-1.008zm4.4349738 16.2263415c.925077 0 1.675-.7264781 1.675-1.6226342s-.749923-1.6226341-1.675-1.6226341-1.675.726478-1.675 1.6226341.749923 1.6226342 1.675 1.6226342z" fill="#555b67" transform="matrix(0 -1 1 0 -2.16878 40.32878)"/><path d="m17.6174602 7.66539015c6.9462536 1.47092492 10.4193804 2.45740945 10.4193804 2.95945365 0 .5020441-3.4731268 1.3850903-10.4193804 2.6491385v3.8708272c-1.8294508-1.2702068-3.3430139-2.357204-4.5406891-3.2609918s-2.2765989-1.9497537-3.2367711-3.1378975c.9749239-1.55859744 2.1495274-2.87197775 3.5238106-3.94014091 1.3742831-1.06816317 2.7921664-1.96846358 4.2536496-2.70090124z" fill="#60d064" transform="matrix(0 -1 1 0 8.313576 29.563264)"/></g></g></svg>