<svg height="48" viewBox="0 0 48 48" width="48" xmlns="http://www.w3.org/2000/svg"><g fill="none" fill-rule="evenodd"><path d="m24 48c13.254834 0 24-10.745166 24-24s-10.745166-24-24-24-24 10.745166-24 24 10.745166 24 24 24z" fill="#fff"/><g transform="translate(12 12)"><circle cx="12" cy="12" fill="#fed948" r="12"/><path d="m3.6 18c1.5463973 0 2.8-1.2536027 2.8-2.8s-1.2536027-2.8-2.8-2.8-2.8 1.2536027-2.8 2.8 1.2536027 2.8 2.8 2.8z" fill="#fc5859"/><path d="m20.4 17.6c1.5463973 0 2.8-1.2536027 2.8-2.8s-1.2536027-2.8-2.8-2.8-2.8 1.2536027-2.8 2.8 1.2536027 2.8 2.8 2.8z" fill="#fc5859"/><g stroke="#171e2b" stroke-linecap="round"><g transform="translate(4.8 10)"><path d="m.01134515.17195757s.69425626 1.50948738 2.29008396 1.50948738c1.55134027 0 2.19776788-1.60134857 2.19776788-1.60134857" stroke-width=".8"/><g stroke-width=".72"><path d="m.72866936 1.49605225-.53634706.35897672"/><path d="m1.84379932 1.88615478-.26936947.85126803"/><path d="m3.00117699 1.84261298.23620556.85098195"/><path d="m4.0715061 1.32669122.50826254.33792103"/></g></g><g transform="translate(13.6 10)"><path d="m.01132165.14580198s.69281816 1.42267389 2.28534024 1.42267389c1.54812679 0 2.19321538-1.50925198 2.19321538-1.50925198" stroke-width=".8"/><g stroke-width=".72"><path d="m.72715998 1.40838485-.53523606.33833129"/><path d="m1.83998004 1.77605184-.2688115.80231"/><path d="m2.99496029 1.73501421.23571628.80204036"/><path d="m4.0630723 1.24876409.50720972.31848655"/></g></g></g></g></g></svg>