<svg height="48" viewBox="0 0 48 48" width="48" xmlns="http://www.w3.org/2000/svg"><g fill="none" fill-rule="evenodd"><path d="m24 48c13.254834 0 24-10.745166 24-24s-10.745166-24-24-24-24 10.745166-24 24 10.745166 24 24 24z" fill="#fff"/><g transform="translate(12 12)"><circle cx="12" cy="12" fill="#fed948" r="12"/><path d="m7.96239972 16.3761932c.80860194 1.3630108 2.26576588 2.209763 3.87448748 2.209763 1.6145214 0 3.086716-.8545531 3.8955233-2.2082477.1598606-.2675575.0723646-.6139346-.1954278-.773655-.2677923-.1597203-.6144736-.0723011-.7743342.1952564-.6071557 1.0161918-1.7132287 1.6582252-2.9257613 1.6582252-1.2059535 0-2.2957842-.6332962-2.90292115-1.6567099-.15902296-.2680553-.50542907-.3565565-.77371971-.1976731-.26829063.1588835-.35686958.5049858-.19784662.7730411z" fill="#171e2b"/><path d="m3.6 18c1.5463973 0 2.8-1.2536027 2.8-2.8s-1.2536027-2.8-2.8-2.8-2.8 1.2536027-2.8 2.8 1.2536027 2.8 2.8 2.8z" fill="#fc5859"/><path d="m20.4 17.6c1.5463973 0 2.8-1.2536027 2.8-2.8s-1.2536027-2.8-2.8-2.8-2.8 1.2536027-2.8 2.8 1.2536027 2.8 2.8 2.8z" fill="#fc5859"/><path d="m6.28247664 13.0387654c-.85766573 0-1.55294117-.757817-1.55294117-1.6926316s.69527544-1.69263155 1.55294117-1.69263155 1.55294118.75781695 1.55294118 1.69263155-.69527545 1.6926316-1.55294118 1.6926316zm11.01176466 0c-.8576657 0-1.5529411-.757817-1.5529411-1.6926316s.6952754-1.69263155 1.5529411-1.69263155c.8576658 0 1.5529412.75781695 1.5529412 1.69263155s-.6952754 1.6926316-1.5529412 1.6926316zm-12.24731599-4.9055595c-.29570085.09845159-.61543494-.06152065-.71414607-.35730802-.09871114-.29578736.06098058-.61538118.35668143-.71383277.25044554-.08338415.63832734-.15374352 1.11168312-.13600441.95902176.03593957 1.84467104.44216908 2.51239664 1.33224213.18715442.24947539.13676636.60325638-.11254489.79019195-.24931126.18693556-.6031366.13623701-.79029102-.11323839-.4488443-.59830597-1.01322491-.85717601-1.6508488-.88107111-.18851984-.00706482-.36889657.00788797-.5329533.03764685-.0936555.01698853-.15635053.03350746-.17997711.04137377zm13.84033199-1.07114079c.2957009.09845159.4553926.41804541.3566815.71383277-.0987112.29578737-.4184453.45575961-.7141461.35730802-.0236266-.00786631-.0863216-.02438524-.1799771-.04137377-.1640568-.02975888-.3444335-.04471167-.5329533-.03764685-.6376239.0238951-1.2020045.28276514-1.6508488.88107111-.1871544.2494754-.5409798.30017395-.790291.11323839-.2493113-.18693557-.2996994-.54071656-.1125449-.79019195.6677256-.89007305 1.5533748-1.29630256 2.5123966-1.33224213.4733558-.01773911.8612376.05262026 1.1116831.13600441z" fill="#171e2b"/></g></g></svg>