<svg height="48" viewBox="0 0 48 48" width="48" xmlns="http://www.w3.org/2000/svg"><g fill="none" fill-rule="evenodd"><path d="m24 48c13.254834 0 24-10.745166 24-24s-10.745166-24-24-24-24 10.745166-24 24 10.745166 24 24 24z" fill="#fff"/><g transform="translate(12 12)"><circle cx="12" cy="12" fill="#fed948" r="12"/><g transform="translate(2.8 7.6)"><g stroke="#171e2b" stroke-width=".6"><circle cx="3.956044" cy="3.956044" r="3.956044"/><circle cx="3.956044" cy="3.956044" r="1.582418"/><circle cx="3.956044" cy="3.956044" r="2.769231"/></g><path d="m3.95604396 4.74725275c.43697255 0 .79120879-.35423624.79120879-.79120879s-.35423624-.7912088-.79120879-.7912088-.7912088.35423625-.7912088.7912088.35423625.79120879.7912088.79120879z" fill="#171e2b"/></g><g transform="translate(12.8 7.6)"><g stroke="#171e2b" stroke-width=".6"><circle cx="3.956044" cy="3.956044" r="3.956044"/><circle cx="3.956044" cy="3.956044" r="1.582418"/><circle cx="3.956044" cy="3.956044" r="2.769231"/></g><path d="m3.95604396 4.74725275c.43697255 0 .79120879-.35423624.79120879-.79120879s-.35423624-.7912088-.79120879-.7912088-.7912088.35423625-.7912088.7912088.35423625.79120879.7912088.79120879z" fill="#171e2b"/></g><path d="m16.0628465 16.9874758c-.808602-1.3630109-2.2657659-2.209763-3.8744875-2.209763-1.6145214 0-3.086716.8545531-3.8955233 2.2082476-.1598606.2675575-.07236462.6139346.19542775.773655s.61447361.0723011.77433421-.1952563c.6071557-1.0161919 1.71322874-1.6582253 2.92576134-1.6582253 1.2059535 0 2.2957842.6332962 2.9029211 1.6567099.159023.2680553.5054291.3565566.7737198.1976731.2682906-.1588835.3568695-.5049857.1978466-.773041z"/></g></g></svg>