<svg height="48" viewBox="0 0 48 48" width="48" xmlns="http://www.w3.org/2000/svg"><g fill="none" fill-rule="evenodd"><path d="m24 48c13.254834 0 24-10.745166 24-24s-10.745166-24-24-24-24 10.745166-24 24 10.745166 24 24 24z" fill="#fff"/><g transform="translate(12 12)"><circle cx="12" cy="12" fill="#fed948" r="12"/><path d="m4 18c1.5463973 0 2.8-1.2536027 2.8-2.8s-1.2536027-2.8-2.8-2.8-2.8 1.2536027-2.8 2.8 1.2536027 2.8 2.8 2.8z"/><path d="m20 18c1.5463973 0 2.8-1.2536027 2.8-2.8s-1.2536027-2.8-2.8-2.8-2.8 1.2536027-2.8 2.8 1.2536027 2.8 2.8 2.8z"/><path d="m5.8 12.8c1.43594035 0 2.6-1.1640597 2.6-2.6 0-1.43594035-1.16405965-2.6-2.6-2.6s-2.6 1.16405965-2.6 2.6c0 1.4359403 1.16405965 2.6 2.6 2.6z" fill="#fff"/><path d="m17.8 12.8c1.4359403 0 2.6-1.1640597 2.6-2.6 0-1.43594035-1.1640597-2.6-2.6-2.6s-2.6 1.16405965-2.6 2.6c0 1.4359403 1.1640597 2.6 2.6 2.6z" fill="#fff"/><ellipse cx="11.862819" cy="17.185398" fill="#171e2b" fill-rule="nonzero" rx="3.462819" ry="3.585397"/><path d="m10.2 17.6h2.8" fill-rule="nonzero" stroke="#171e2b" stroke-linecap="round" stroke-width="1.2"/><path d="m4.85858156 10.0227568 1.12403134-.75904374-1.04390975-.76654957c.26885577-.50446448.76997191-.84366124 1.34377349-.84366124.85766573 0 1.55294118.75781698 1.55294118 1.69263158 0 .93481457-.69527545 1.69263157-1.55294118 1.69263157-.63695754 0-1.18434872-.4179739-1.42389508-1.0160086zm11.05460554.098183 1.2694258-.85722674-1.1762361-.86371763c.2790565-.45037098.751733-.74649318 1.2878645-.74649318.8576658 0 1.5529412.75781698 1.5529412 1.69263158 0 .93481457-.6952754 1.69263157-1.5529412 1.69263157-.6014906 0-1.1231116-.3727228-1.3810542-.9178256z" fill="#171e2b"/></g></g></svg>