<svg height="48" viewBox="0 0 48 48" width="48" xmlns="http://www.w3.org/2000/svg"><g fill="none" fill-rule="evenodd"><path d="m24 48c13.254834 0 24-10.745166 24-24s-10.745166-24-24-24-24 10.745166-24 24 10.745166 24 24 24z" fill="#fff"/><g transform="translate(12 12)"><ellipse cx="11.911765" cy="11.901316" fill="#fed948" rx="11.911765" ry="11.901316"/><path d="m3.11145056 11.5388735c-.26233381-.1288626-.37036089-.4458742-.24128524-.7080653.12907566-.2621911.44637573-.3702752.70870955-.2414126.04632545.0227558.15770985.0682418.33163057.1243247.30299961.097706.66370583.1818664 1.07979701.2404353 1.42078416.1999894 3.09206689.0583388 4.99102719-.5720184.27749596-.0921144.57708246.0579634.66914516.3352081.0920627.2772448-.0582607.5766696-.3357567.668784-2.05601213.6824904-3.89208533.8381079-5.47255301.6156415-.47751072-.0672144-.89744226-.1651933-1.25721853-.2812076-.2237448-.0721493-.38236851-.1369264-.473496-.1816897zm17.13320394-.9494779c.2623339-.1288626.5796339-.0207785.7087096.2414126.1290756.2621911.0210486.5792027-.2412853.7080653-.0911274.0447633-.2497511.1095404-.473496.1816897-.3597762.1160143-.7797078.2139932-1.2572185.2812076-1.5804677.2224664-3.4165409.0668489-5.472553-.6156415-.277496-.0921144-.4278194-.3915392-.3357567-.668784.0920627-.2772447.3916492-.4273225.6691452-.3352081 1.8989603.6303572 3.570243.7720078 4.9910272.5720184.4160911-.0585689.7767974-.1427293 1.079797-.2404353.1739207-.0560829.2853051-.1015689.3316305-.1243247zm-8.3328899 8.981657c-2.0467023 0-3.44117636 0-3.70588225-.5289473-.26470588-.5289474 1.65917995-.7934211 3.70588225-.7934211s3.9705883.2644737 3.7058825.7934211c-.2647059.5289473-1.6591802.5289473-3.7058825.5289473z" fill="#000" fill-rule="nonzero"/></g><g stroke="#6d97df" stroke-linecap="round" stroke-linejoin="round" stroke-width="1.2" transform="matrix(.8660254 .5 -.5 .8660254 33.043078 5.178977)"><path d="m.03923048 14.0116637 1.95107524-1.0652535-.77907355 2.3353931 1.81306523-.9456647"/><path d="m1.73065816 8.83629659 3.02645406-1.65239197-1.20847738 3.62259748 2.81237675-1.46688901"/><path d="m2.8 2.20318929 4.03527208-2.20318929-1.61130317 4.83012995 3.74983566-1.95585198"/></g></g></svg>