<svg height="48" viewBox="0 0 48 48" width="48" xmlns="http://www.w3.org/2000/svg"><g fill="none" fill-rule="evenodd"><path d="m24 48c13.254834 0 24-10.745166 24-24s-10.745166-24-24-24-24 10.745166-24 24 10.745166 24 24 24z" fill="#fff"/><g transform="translate(10 12)"><circle cx="14" cy="12" fill="#fed948" r="12"/><path d="m9.52654754 22.6778751c.1021656.2027114.15880228.4263737.15880228.6614241 0 .9185644-.86495754 1.6632079-1.93193673 1.6632079s-1.93193672-.7446435-1.93193672-1.6632079.86495753-1.6632079 1.93193672-1.6632079c.18256881 0 .35922282.0218017.52664094.0625458l-.56341338-3.0732358h-4.0042932l.84785357 3.9554926c.12115842.2174609.18902225.4611103.18902225.7184053 0 .9185644-.86495754 1.6632079-1.93193673 1.6632079s-1.93193672-.7446435-1.93193672-1.6632079.86495753-1.6632079 1.93193672-1.6632079c.17493478 0 .34443908.0200165.50559123.0575343l-.60108176-3.0682243h-.02392259l-.14035962-.9891246c-.04583983-.3230367.17887258-.6220701.50190923-.66791.02749467-.0039015.05523023-.0058596.08300035-.0058596h4.8561451c.29217771 0 .54046926.2135835.58413464.5024799l.09745272.6447611z" fill="#171e2b" fill-rule="nonzero" transform="matrix(.98480775 .17364818 -.17364818 .98480775 3.727343 -.598716)"/><path d="m7.8 12.8c1.43594035 0 2.6-1.1640597 2.6-2.6 0-1.43594035-1.16405965-2.6-2.6-2.6s-2.6 1.16405965-2.6 2.6c0 1.4359403 1.16405965 2.6 2.6 2.6z" fill="#fff"/><path d="m19.8 12.8c1.4359403 0 2.6-1.1640597 2.6-2.6 0-1.43594035-1.1640597-2.6-2.6-2.6s-2.6 1.16405965-2.6 2.6c0 1.4359403 1.1640597 2.6 2.6 2.6z" fill="#fff"/><g fill="#171e2b"><ellipse cx="13.8" cy="17.477877" fill-rule="nonzero" rx="2.2" ry="2.277877"/><path d="m6.85858156 10.8227568 1.12403134-.7590437-1.04390975-.76654961c.26885577-.50446448.76997191-.84366124 1.34377349-.84366124.85766573 0 1.55294118.75781698 1.55294118 1.69263155 0 .9348146-.69527545 1.6926316-1.55294118 1.6926316-.63695754 0-1.18434872-.4179739-1.42389508-1.0160086zm11.05460554.098183 1.2694258-.8572267-1.1762361-.86371767c.2790565-.45037098.751733-.74649318 1.2878645-.74649318.8576658 0 1.5529412.75781698 1.5529412 1.69263155 0 .9348146-.6952754 1.6926316-1.5529412 1.6926316-.6014906 0-1.1231116-.3727228-1.3810542-.9178256z"/></g></g></g></svg>