<svg height="48" viewBox="0 0 48 48" width="48" xmlns="http://www.w3.org/2000/svg"><g fill="none" fill-rule="evenodd"><path d="m24 48c13.254834 0 24-10.745166 24-24s-10.745166-24-24-24-24 10.745166-24 24 10.745166 24 24 24z" fill="#fff"/><g transform="translate(12 12)"><circle cx="12" cy="12" fill="#fed948" r="12"/><path d="m6.68247664 12.2387654c-.85766573 0-1.55294117-.757817-1.55294117-1.6926316 0-.93481457.69527544-1.69263155 1.55294117-1.69263155s1.55294118.75781698 1.55294118 1.69263155c0 .9348146-.69527545 1.6926316-1.55294118 1.6926316zm11.01176466 0c-.8576657 0-1.5529411-.757817-1.5529411-1.6926316 0-.93481457.6952754-1.69263155 1.5529411-1.69263155.8576658 0 1.5529412.75781698 1.5529412 1.69263155 0 .9348146-.6952754 1.6926316-1.5529412 1.6926316zm-9.40230611 3.39093c-.15902296-.2680553-.07044401-.6141575.19784662-.773041s.61469674-.0703822.7737197.1976731c.60713696 1.0234136 1.69696759 1.6567099 2.90292119 1.6567099 1.2125326 0 2.3186056-.6420335 2.9257613-1.6582253.1598606-.2675574.5065418-.3549767.7743342-.1952563s.3552884.5060975.1954278.773655c-.8088073 1.3536945-2.2810019 2.2082476-3.8955233 2.2082476-1.6087216 0-3.06588558-.8467521-3.87448751-2.209763z" fill="#171e2b"/></g></g></svg>