<svg height="48" viewBox="0 0 48 48" width="48" xmlns="http://www.w3.org/2000/svg"><g fill="none" fill-rule="evenodd"><path d="m24 48c13.254834 0 24-10.745166 24-24s-10.745166-24-24-24-24 10.745166-24 24 10.745166 24 24 24z" fill="#fff"/><g transform="translate(12 12)"><circle cx="12" cy="12" fill="#d2d6de" r="12"/><path d="m.34493625.9936367c-.2634552-.12953214-.37024152-.44455178-.23851392-.70361606.1317276-.25906428.45208655-.36407082.71554175-.23453868l2.93333333 1.44222222c.39309256.1932705.39309256.74488424 0 .93815474l-2.93333333 1.44222222c-.2634552.12953214-.58381415.0245256-.71554175-.23453868-.1317276-.25906428-.02494128-.57408392.23851392-.70361606l2.93333333-1.44222222v.93815474zm14.13333335-.93815474c.2634552-.12953214.5838141-.0245256.7155417.23453868s.0249413.57408392-.2385139.70361606l-2.9333333 1.44222222v-.93815474l2.9333333 1.44222222c.2634552.12953214.3702415.44455178.2385139.70361606s-.4520865.36407082-.7155417.23453868l-2.9333334-1.44222222c-.3930925-.1932705-.3930925-.74488424 0-.93815474z" fill="#171e2b" fill-rule="nonzero" transform="translate(4.4 8.8)"/><path d="m16.0628465 16.9874758c-.808602-1.3630109-2.2657659-2.209763-3.8744875-2.209763-1.6145214 0-3.086716.8545531-3.8955233 2.2082476-.1598606.2675575-.07236462.6139346.19542775.773655s.61447361.0723011.77433421-.1952563c.6071557-1.0161919 1.71322874-1.6582253 2.92576134-1.6582253 1.2059535 0 2.2957842.6332962 2.9029211 1.6567099.159023.2680553.5054291.3565566.7737198.1976731.2682906-.1588835.3568695-.5049857.1978466-.773041z" fill="#171e2b"/><path d="m5.2 11.1692545 1.12403135-.7590437-1.04390976-.76654957c.26885577-.50446447.76997192-.84366123 1.3437735-.84366123.85766573 0 1.55294117.75781697 1.55294117 1.6926316 0 .9348146-.69527544 1.6926316-1.55294117 1.6926316-.63695754 0-1.18434873-.417974-1.42389509-1.0160087zm11.0546055.098183 1.2694258-.8572267-1.176236-.86371762c.2790565-.45037098.7517329-.74649318 1.2878645-.74649318.8576657 0 1.5529412.75781697 1.5529412 1.6926316 0 .9348146-.6952755 1.6926316-1.5529412 1.6926316-.6014906 0-1.1231116-.3727228-1.3810543-.9178257z"/><g fill="#fff" fill-rule="nonzero"><path d="m16.8 11.6h2.4c.4418278 0 .8.3581722.8.8 0 .4418278-.3581722.8-.8.8h-2.4c-.4418278 0-.8-.3581722-.8-.8 0-.4418278.3581722-.8.8-.8z"/><circle cx="19.6" cy="13.9" r="1.1"/><circle cx="3.9" cy="14.7" r="1.1"/><circle cx="20.3" cy="16.7" r="1.1"/><circle cx="3.9" cy="18.3" r="1.1"/><rect height="1.6" rx=".6" width="4" x="4.4" y="11.6"/></g></g></g></svg>