<svg height="48" viewBox="0 0 48 48" width="48" xmlns="http://www.w3.org/2000/svg"><g fill="none" fill-rule="evenodd"><path d="m24 48c13.254834 0 24-10.745166 24-24s-10.745166-24-24-24-24 10.745166-24 24 10.745166 24 24 24z" fill="#fff"/><g transform="translate(12 12)"><circle cx="12" cy="12" fill="#fed948" r="12"/><g fill="#171e2b"><path d="m6.28247664 12.2387654c-.85766573 0-1.55294117-.757817-1.55294117-1.6926316 0-.93481457.69527544-1.69263155 1.55294117-1.69263155s1.55294118.75781698 1.55294118 1.69263155c0 .9348146-.69527545 1.6926316-1.55294118 1.6926316zm11.01176466 0c-.8576657 0-1.5529411-.757817-1.5529411-1.6926316 0-.93481457.6952754-1.69263155 1.5529411-1.69263155.8576658 0 1.5529412.75781698 1.5529412 1.69263155 0 .9348146-.6952754 1.6926316-1.5529412 1.6926316zm-12.62432342-3.97925636c-.13947629.27870787-.47867989.39167655-.75763245.25232261s-.39202042-.47825999-.25254414-.75696786c.11813025-.23605323.3426525-.56007867.68990904-.8822483.7035439-.65271769 1.61704016-.99171865 2.71857014-.83449527.30874391.04406759.5232751.32985826.47916883.63833135-.04410627.30847308-.33014786.52281609-.63889177.4787485-.74044705-.10568536-1.32257317.11034324-1.79033774.54431503-.13829924.12830807-.25527162.2664269-.35023455.40347523-.05421173.07823715-.08686317.13424988-.09800736.15651871zm15.30315742-1.01674092c.2068587.233112.1853589.58973423-.0480212.79653803-.23338.20680381-.590264.18547679-.7971226-.04763522-.0165281-.01862571-.0625641-.06427903-.1351779-.12581928-.1271979-.10780032-.2759323-.21093818-.4427277-.29907978-.564146-.29811818-1.182349-.35612046-1.8702125-.06239444-.2868182.12247482-.6185892-.01053162-.7410313-.29707819s.010811-.61812393.2976292-.74059875c1.0233039-.43696307 1.9934134-.34594351 2.8419204.1024428.4188077.22131536.7195435.47618927.8947436.67362483z"/><ellipse cx="11.862819" cy="18.385398" fill-rule="nonzero" rx="3.462819" ry="3.585397"/></g></g></g></svg>