<svg height="48" viewBox="0 0 48 48" width="48" xmlns="http://www.w3.org/2000/svg"><g fill="none" fill-rule="evenodd"><path d="m24 48c13.254834 0 24-10.745166 24-24s-10.745166-24-24-24-24 10.745166-24 24 10.745166 24 24 24z" fill="#fff"/><g transform="translate(12 12)"><circle cx="12" cy="12" fill="#fed948" r="12"/><path d="m7.96239972 16.3761932c.80860194 1.3630108 2.26576588 2.209763 3.87448748 2.209763 1.6145214 0 3.086716-.8545531 3.8955233-2.2082477.1598606-.2675575.0723646-.6139346-.1954278-.773655-.2677923-.1597203-.6144736-.0723011-.7743342.1952564-.6071557 1.0161918-1.7132287 1.6582252-2.9257613 1.6582252-1.2059535 0-2.2957842-.6332962-2.90292115-1.6567099-.15902296-.2680553-.50542907-.3565565-.77371971-.1976731-.26829063.1588835-.35686958.5049858-.19784662.7730411z" fill="#171e2b"/><path d="m3.6 18c1.5463973 0 2.8-1.2536027 2.8-2.8s-1.2536027-2.8-2.8-2.8-2.8 1.2536027-2.8 2.8 1.2536027 2.8 2.8 2.8z" fill="#fc5859"/><path d="m20.4 17.6c1.5463973 0 2.8-1.2536027 2.8-2.8s-1.2536027-2.8-2.8-2.8-2.8 1.2536027-2.8 2.8 1.2536027 2.8 2.8 2.8z" fill="#fc5859"/><path d="m5.27590219 10.2488816c-.26014394.1716299-.61038722.0998619-.78229025-.1602985-.17190304-.26016031-.10036965-.61019549.15977429-.78182544.22033041-.14536298.57678511-.31371611 1.0386029-.41909493.93564573-.21349815 1.89625718-.05033347 2.77159844.63659097.24534627.1925356.2882404.5473032.09580671.7923956-.1924337.2450924-.54732449.2876981-.79267076.0951625-.58840328-.46174977-1.20055358-.56572658-1.82263548-.42377827-.18392469.04196847-.35428516.10309667-.50504963.17430257-.08606731.0406494-.14235065.0728322-.16313622.0865455zm13.99021071-.94212394c.2601439.17162995.3316773.52166513.1597743.78182544-.1719031.2601604-.5221463.3319284-.7822903.1602985-.0207855-.0137133-.0770689-.0458961-.1631362-.0865455-.1507645-.0712059-.3211249-.1323341-.5050496-.17430257-.6220819-.14194831-1.2342322-.0379715-1.8226355.42377827-.2453463.1925356-.6002371.1499299-.7926708-.0951625s-.1495395-.59986.0958067-.7923956c.8753413-.68692444 1.8359527-.85008912 2.7715985-.63659097.4618178.10537882.8182725.27373195 1.0386029.41909493z" fill="#171e2b"/></g></g></svg>