<svg height="34" viewBox="0 0 34 34" width="34" xmlns="http://www.w3.org/2000/svg"><g fill="none"><rect fill="#635bab" height="34" opacity="0" rx="17" width="34"/><path d="m11.3995448 6.88802992 1.8191163-1.81911628c.3307971-.33079705.3307971-.86712503 0-1.19792208-.330797-.33079704-.867125-.33079704-1.1979221 0l-1.8191162 1.81911628-1.81911632-1.81911628c-.33079705-.33079704-.86712503-.33079704-1.19792208 0-.33079705.33079705-.33079705.86712503 0 1.19792208l1.81911628 1.81911628-1.81911628 1.81911627c-.33079705.33079705-.33079705.86712503 0 1.19792208.33079705.33079703.86712503.33079703 1.19792208 0l1.81911632-1.81911628 1.8191162 1.81911628c.3307971.33079703.8671251.33079703 1.1979221 0 .3307971-.33079705.3307971-.86712503 0-1.19792208zm-5.7195269-6.88802992h2.8199821 6.8058824c.9356353 0 1.6941176.75848231 1.6941176 1.69411765v10.61176475c0 .9356353-.7584823 1.6941176-1.6941176 1.6941176h-6.8058824-2.8199821c-.88787991 0-1.71137566-.4634128-2.17216592-1.2223614l-3.24094894-5.33803359c-.16400469-.27012537-.16400469-.60908465 0-.87921002l3.24094894-5.33803354c.46079026-.75894866 1.28428601-1.22236145 2.17216592-1.22236145z" fill="#fff" transform="translate(8 10)"/></g></svg>