<svg height="48" viewBox="0 0 48 48" width="48" xmlns="http://www.w3.org/2000/svg"><g fill="none" fill-rule="evenodd"><path d="m24 48c13.254834 0 24-10.745166 24-24s-10.745166-24-24-24-24 10.745166-24 24 10.745166 24 24 24z" fill="#fff"/><g transform="translate(4.8 4.8)"><path d="m0 0h38.518519v38.4h-38.518519z"/><path d="m13.0900741 10.08h12.0976296c1.1134061 0 2.016.9025939 2.016 2.016v16.128c0 1.1134061-.9025939 2.016-2.016 2.016h-12.0976296c-1.1134061 0-2.016-.9025939-2.016-2.016v-16.128c0-1.1134061.9025939-2.016 2.016-2.016zm1.5970416 2.688c-.556703 0-1.008.451297-1.008 1.008v9.8112c0 .556703.451297 1.008 1.008 1.008h8.884801c.556703 0 1.008-.451297 1.008-1.008v-9.8112c0-.556703-.451297-1.008-1.008-1.008zm4.4517732 16.128c.9279321 0 1.6801697-.7220752 1.6801697-1.6128s-.7522376-1.6128-1.6801697-1.6128-1.6801698.7220752-1.6801698 1.6128.7522377 1.6128 1.6801698 1.6128z" fill="#555b67" transform="matrix(0 -1 1 0 -1.021111 39.298889)"/><g fill="#60d064"><path d="m28.7459092 9.77572528c1.5857809.26497312 3.397317 1.07628012 5.4346085 2.43392122 3.0996688 2.0656041 4.9604537 6.266954 4.2046495 6.5544392-.7558041.2874852-2.5638325-2.362727-5.0820619-2.9183089-1.6517939-.3644253-3.1708593-.3702919-4.5571961-.0175996v3.6127244c-1.8350973-1.2625086-3.3533319-2.342918-4.5547036-3.2412283s-2.2836255-1.9379369-3.2467612-3.1188799c.977933-1.5491514 2.1561618-2.8545718 3.5346866-3.91626126 1.3785247-1.06168945 2.8007842-1.9565335 4.2667782-2.68453214z" transform="matrix(-1 0 0 1 59.497754 0)"/><path d="m8.04220549 9.77572528c1.58578089.26497312 3.39731701 1.07628012 5.43460851 2.43392122 3.0996688 2.0656041 4.9604537 6.266954 4.2046495 6.5544392-.7558041.2874852-2.5638325-2.362727-5.0820619-2.9183089-1.6517939-.3644253-3.17085929-.3702919-4.55719611-.0175996v3.6127244c-1.83509733-1.2625086-3.35333187-2.342918-4.5547036-3.2412283-1.20137174-.8983103-2.28362546-1.9379369-3.24676115-3.1188799.97793292-1.5491514 2.15616177-2.8545718 3.53468654-3.91626126 1.37852476-1.06168945 2.80078417-1.9565335 4.26677821-2.68453214z"/></g></g></g></svg>