<svg height="48" viewBox="0 0 48 48" width="48" xmlns="http://www.w3.org/2000/svg"><g fill="none" fill-rule="evenodd"><path d="m24 48c13.254834 0 24-10.745166 24-24s-10.745166-24-24-24-24 10.745166-24 24 10.745166 24 24 24z" fill="#fff"/><g transform="translate(4.8 4.8)"><path d="m0 0h38.4v38.4h-38.4z"/><path d="m13.776 10.08h12.048c1.1134061 0 2.016.9025939 2.016 2.016v16.128c0 1.1134061-.9025939 2.016-2.016 2.016h-12.048c-1.1134061 0-2.016-.9025939-2.016-2.016v-16.128c0-1.1134061.9025939-2.016 2.016-2.016zm1.5890262 2.688c-.5567031 0-1.008.451297-1.008 1.008v9.8112c0 .556703.4512969 1.008 1.008 1.008h8.85126c.556703 0 1.008-.451297 1.008-1.008v-9.8112c0-.556703-.451297-1.008-1.008-1.008zm4.4349738 16.128c.925077 0 1.675-.7220752 1.675-1.6128s-.749923-1.6128-1.675-1.6128-1.675.7220752-1.675 1.6128.749923 1.6128 1.675 1.6128z" fill="#555b67" transform="matrix(0 -1 1 0 -.36 39.96)"/><path d="m7.77746024 13.3757253c1.58090157.2649731 3.38686376 1.0762801 5.41788656 2.4339212 3.0901314 2.0656041 4.9451908 6.266954 4.1917122 6.5544392s-2.5559438-2.362727-5.0664248-2.9183089c-1.6467115-.3644253-3.16110279-.3702919-4.54317396-.0175996v3.6127244c-1.82945088-1.2625086-3.34301392-2.342918-4.54068913-3.2412283s-2.27659891-1.9379369-3.23677111-3.1188799c.9749239-1.5491514 2.14952742-2.8545718 3.52381058-3.9162613 1.37428315-1.0616894 2.79216637-1.9565335 4.25364966-2.6845321z" fill="#60d064"/></g></g></svg>