<svg height="48" viewBox="0 0 48 48" width="48" xmlns="http://www.w3.org/2000/svg"><g fill="none" fill-rule="evenodd"><path d="m24 48c13.254834 0 24-10.745166 24-24s-10.745166-24-24-24-24 10.745166-24 24 10.745166 24 24 24z" fill="#fff"/><circle cx="21.232804" cy="16.314254" fill="#91cfff" r="7" stroke="#5fa0ec" stroke-opacity=".758577" stroke-width=".5"/><circle cx="21.232804" cy="16.314254" fill="#5fa0ec" r="5"/><g fill-rule="nonzero" transform="translate(12.567215 14.171975)"><rect fill="#eeac7c" height="11.022831" rx="2.490916" transform="matrix(.70710678 -.70710678 .70710678 .70710678 -9.757467 9.551898)" width="4.981832" x="4.160511" y="11.042839"/><path d="m15.8104627 9.42738617c.4033376-.83202231 1.2560375-1.40571771 2.2427312-1.40571771 1.3756949 0 2.4909159 1.11522106 2.4909159 2.49091594v4.6462942c.0133106.1695637.0200915.3409625.0200915.513945v1.1528428c0 3.5772877-2.8999647 6.4772524-6.4772524 6.4772524h-1.6278645c-3.57728779 0-6.47725248-2.8999647-6.47725248-6.4772524v-1.1528428-13.18190764c0-1.3756949 1.11522106-2.49091596 2.49091595-2.49091596 1.3756949 0 2.49091593 1.11522106 2.49091593 2.49091596v5.69238468c.3757905-.89926419 1.2637523-1.53118533 2.2993071-1.53118533 1.3756949 0 2.4909159 1.11522106 2.4909159 2.49091595v.26905405c.0188927.00501718.0377514.01011761.0565759.01530086z" fill="#fcc6a0"/></g></g></svg>