<svg height="48" viewBox="0 0 48 48" width="48" xmlns="http://www.w3.org/2000/svg"><g fill="none" fill-rule="evenodd"><path d="m24 48c13.254834 0 24-10.745166 24-24s-10.745166-24-24-24-24 10.745166-24 24 10.745166 24 24 24z" fill="#fff"/><g transform="translate(10.8 10.8)"><g transform="translate(.333694 .225128)"><path d="m13.0228597 24.4653818c6.1836085 0 11.9479438-5.356445 11.9479438-11.9639548 0-6.60750979-5.7643353-11.9639548-11.9479438-11.9639548-6.18360855 0-12.07805839 5.35644501-12.07805839 11.9639548 0 6.6075098 5.89444984 11.9639548 12.07805839 11.9639548z" fill="#fed948"/><g fill-rule="nonzero"><rect fill="#fed948" height="25.978873" rx="12.174466" width="24.348932" x=".815629" y=".383099"/><path d="m0 10.2h2.980645v2.55h-2.980645z" fill="#555b67"/><path d="m22.833526 10.2h2.980645v2.55h-2.980645z" fill="#555b67"/></g><path d="m16.3574744 23.6660406c0-3.9764502-3.2235499-7.2-7.20000005-7.2" stroke="#171e2b" stroke-linecap="round" stroke-width="1.2" transform="matrix(-.70710678 .70710678 -.70710678 -.70710678 35.967204 25.233978)"/><ellipse cx="7.931685" cy="10.875771" fill="#44424f" rx="1.047453" ry="1.050201"/><ellipse cx="17.882487" cy="10.875771" fill="#44424f" rx="1.047453" ry="1.050201"/></g><g fill-rule="nonzero"><g transform="matrix(-1 0 0 -1 23.650481 16.595163)"><ellipse cx="15.738" cy="5.072046" fill="#fff" rx="5.092839" ry="5.072046" stroke="#858c9a" stroke-width="1.064516"/><ellipse cx="5.092839" cy="5.072046" fill="#fff" rx="5.092839" ry="5.072046" stroke="#858c9a" stroke-width="1.064516"/><g fill="#171e2b"><ellipse cx="5.109677" cy="5.09534" rx="2.129032" ry="2.12034"/><ellipse cx="15.754839" cy="5.09534" rx="2.129032" ry="2.12034"/></g></g><g fill="#555b67" opacity=".236406"><rect height="1.105" rx=".5525" width="4.428387" x="16.23742" y="13.175"/><rect height="1.105" rx=".5525" width="4.428387" x="5.535484" y="13.175"/></g></g></g></g></svg>