<svg height="48" viewBox="0 0 48 48" width="48" xmlns="http://www.w3.org/2000/svg"><g fill="none" fill-rule="evenodd"><path d="m24 48c13.254834 0 24-10.745166 24-24s-10.745166-24-24-24-24 10.745166-24 24 10.745166 24 24 24z" fill="#fff"/><g transform="translate(10.4 9.2)"><rect fill="#171e2b" height="4.098921" rx="2.04946" width="4.689655" x="2.813793" y="22.701079"/><rect fill="#171e2b" height="4.098921" rx="2.04946" width="4.689655" x="20.165517" y="22.701079"/><g transform="translate(7.771429)"><path d="m4.55739745 2.4337342h2.64485343c.79236278 0 1.47617185.55558125 1.63839178 1.33116069l.73965291 3.5363077h-7.50344828l.85217378-3.58111589c.17945107-.75411269.85320631-1.2863525 1.62837638-1.2863525z" fill="#fc5859"/><path d="m5.82857143.81124473v-.81124473m2.95913293 1.74084848.47683769-.65631078m1.35200705 3.09004497.7715396-.25068841m-10.34749493.25068841-.77153958-.25068841m2.60038431-2.18304578-.47683769-.65631078" stroke="#fed948" stroke-linecap="round" stroke-width="1.554286"/></g><path d="m3.83233494 15.6410497h19.55573526l-.5703611-6.28427894c-.1099827-1.2117964-1.1259453-2.13972611-2.3427225-2.13972611h-13.60126482c-1.1986486 0-2.20561103.90128424-2.33796678 2.092603z" stroke="#5685d8" stroke-width="1.823297"/><ellipse cx="18.450443" cy="12.842183" rx="2.344828" ry="2.561825" stroke="#555b67" stroke-width="1.748571"/><rect fill="#68bcff" height="12.296762" rx="5.230769" width="27.2" y="12.570224"/><path d="m0 17.3295097h27.2v3.7294765c0 2.1031004-1.7048997 3.808-3.808 3.808h-19.584c-2.10310033 0-3.808-1.7048996-3.808-3.808z" fill="#5685d8" opacity=".499442"/><g fill="#fed948" stroke="#5fa0ec" stroke-width=".816"><ellipse cx="23.314286" cy="17.478261" rx="3.108571" ry="3.107246"/><ellipse cx="3.885714" cy="17.478261" rx="3.108571" ry="3.107246"/></g></g></g></svg>