<svg height="48" viewBox="0 0 48 48" width="48" xmlns="http://www.w3.org/2000/svg"><g fill="none" fill-rule="evenodd"><path d="m24 48c13.254834 0 24-10.745166 24-24s-10.745166-24-24-24-24 10.745166-24 24 10.745166 24 24 24z" fill="#fff"/><g fill-rule="nonzero"><rect fill="#fed948" height="3.6" rx="1.8" width="22.4" x="13.6" y="28.4"/><path d="m24.8 11.2c1.3254834 0 2.4 1.0745166 2.4 2.4v1.6h-4.8v-1.6c0-1.3254834 1.0745166-2.4 2.4-2.4z" fill="#e29f41"/><path d="m24.8 13.6c4.8601058 0 8.8 3.9398942 8.8 8.8v6h-17.6v-6c0-4.8601058 3.9398942-8.8 8.8-8.8z" fill="#fec018"/></g><g transform="translate(15.6 13.6)"><path d="m6 18.4c0 1.8851319 1.43594913 3.2 3.20728216 3.2 1.77133304 0 3.19271784-1.3148681 3.19271784-3.2z" fill="#171e2b"/><ellipse cx="4.955546" cy="4.164" fill="#fed948" fill-rule="nonzero" rx="1.755546" ry="1.764"/><g stroke="#fed948" stroke-linecap="round" stroke-width="1.2075"><path d="m2.88.32s-1.93005516 1.21418856-2.88 3.52"/><path d="m20 3.6s-2.2348861 1.2595269-3.2 3.52" transform="matrix(-.91354546 -.40673664 -.40673664 .91354546 37.389345 7.947351)"/></g></g></g></svg>