<svg height="48" viewBox="0 0 48 48" width="48" xmlns="http://www.w3.org/2000/svg"><g fill="none" fill-rule="evenodd"><path d="m24 48c13.254834 0 24-10.745166 24-24s-10.745166-24-24-24-24 10.745166-24 24 10.745166 24 24 24z" fill="#fff"/><g transform="translate(12.4 8)"><ellipse cx="10.659766" cy="10.791919" fill="#68bcff" opacity=".307478" rx="10.5125" ry="10.693004"/><ellipse cx="10.659766" cy="10.791919" fill="#68bcff" opacity=".598984" rx="7.034766" ry="7.155556"/><ellipse cx="10.659766" cy="10.791919" fill="#5fa0ec" rx="4.89375" ry="4.977778"/><path d="m20.0608064 19.9739881v-1.8364082c0-.8660497-.7025985-1.5734356-1.5628206-1.5734356-.8602496 0-1.5628482.7073859-1.5628482 1.5734356v-1.1199724c0-.8660773-.7025985-1.5734356-1.5628206-1.5734356-.8602496 0-1.5628482.7073583-1.5628482 1.5734356v-4.6522527c0-.8660773-.7025986-1.5734356-1.5628207-1.5734356-.8602496 0-1.5628481.7073583-1.5628481 1.5734356v11.2497337l-1.84656507-1.8591022c-.63054915-.6347931-1.66191953-.6347931-2.29246868 0-.63052167.6348208-.63052167 1.6731781 0 2.3079989l5.11187945 5.1464819c1.1889939 1.4782042 3.0130727 2.4258965 5.0532997 2.4258965 3.4769819 0 6.3189063-2.7433069 6.4810381-6.1894056l.0090165-5.4775087c-.0135247-.856972-.7161233-1.5688691-1.5763454-1.5688691-.8602496 0-1.5628482.7073583-1.5628482 1.5734079z" fill="#fcc6a0"/></g></g></svg>