<svg height="48" viewBox="0 0 48 48" width="48" xmlns="http://www.w3.org/2000/svg" xmlns:xlink="http://www.w3.org/1999/xlink"><defs><path id="a" d="m24 48c13.254834 0 24-10.745166 24-24s-10.745166-24-24-24-24 10.745166-24 24 10.745166 24 24 24z"/><path id="b" d="m25.5980648 12.8402279c0-7.01004088-5.7256684-12.70280311-12.7903238-12.70280311-7.06465542 0-12.7903238 5.68945248-12.7903238 12.70942261 0 3.524879 1.44224224 6.7121639 3.77381168 9.012437l18.05300862-.0761234c2.3315699-2.2704862 3.7538273-5.4412223 3.7538273-8.9429331z"/><mask id="c" fill="#fff"><use fill="#fff" fill-rule="evenodd" xlink:href="#a"/></mask><mask id="d" fill="#fff"><use fill="#fff" fill-rule="evenodd" xlink:href="#b"/></mask></defs><g fill="none" fill-rule="evenodd"><use fill="#fff" xlink:href="#a"/><g mask="url(#c)"><g transform="translate(11.2 12.4)"><use fill="#d2d6de" xlink:href="#b"/><path d="m12.8000001-.20543241v3.0492056m5.4749268-1.88622394-1.2402237 2.78558792m5.7684859.50226697-2.2660014 2.04031679m5.0646213 2.80391135-2.8999668.94225632m3.4850377 4.620734-3.0325017-.3187288m1.3028595 5.6385898-2.6406895-1.5246028m-20.67378569 1.5246028 2.64068951-1.5246028m-4.37033176-3.7952582 3.03250173-.3187288m-2.44743085-5.24426152 2.89996686.94225632m-.1013469-5.78648446 2.26600136 2.04031679m2.26226084-5.32817168 1.24022365 2.78558792" mask="url(#d)" opacity=".500703" stroke="#171e2b" stroke-linecap="round" stroke-width="1.6"/><path d="m16.3149267 5.89951386 1.2484325 9.94820654c.1668833 1.32982-.775863 2.5431377-2.1056829 2.7100211-.1002318.0125784-.2011512.018886-.3021691.018886-1.1910683 0-2.1566199-.9655516-2.1566199-2.1566199 0-.1733215.0208938-.346011.0622291-.5143313l2.4684652-10.05175163c.0526857-.21453945.2693144-.34574787.4838539-.29306221.1609491.0395252.2808549.17420985.3014912.3386514z" fill="#6d97df" transform="matrix(.8660254 .5 -.5 .8660254 7.630947 -6.149553)"/></g></g></g></svg>