<svg height="48" viewBox="0 0 48 48" width="48" xmlns="http://www.w3.org/2000/svg" xmlns:xlink="http://www.w3.org/1999/xlink"><defs><path id="a" d="m24 48c13.254834 0 24-10.745166 24-24s-10.745166-24-24-24-24 10.745166-24 24 10.745166 24 24 24z"/><mask id="b" fill="#fff"><use fill="#fff" fill-rule="evenodd" xlink:href="#a"/></mask></defs><g fill="none" fill-rule="evenodd"><use fill="#fff" xlink:href="#a"/><g mask="url(#b)"><g transform="translate(7.6 12.8)"><path d="m9.50584765 19.0214772 2.44293785-10.58152641 1.6940997.39111373-.0024125.01044957 1.33294 3.87113881 1.7363951-12.35509327 1.7217409.2419749-.0016059.01142638.0020139-.00024727 1.7839794 14.52934696 1.9189262-5.90584729-.0019157-.01086432.0057767-.00101858.0004558-.00140291.0026385.0008573 1.7033762-.3003512.8420974 4.7757716-1.7122472.3019154-.1970855-1.1177274-2.1804352 6.7106895-1.6240245-.5276775-.0270248.0033182-.0015473-.0126019-.0002937-.0023921-1.4485184-11.79723551-1.274874 9.07119981-.0035875-.0005042-1.6439243.5660886-1.671319-4.8538626-1.9952492 8.6423741-.0206744-.0047731-1.2478055 1.1635975-3.34010919-3.8822739 1.27157647-1.1857643z" fill="#ff931e"/><g fill="#fed948"><rect height="1.738661" rx=".869331" width="8.616627" y="12.481719"/><rect height="1.738661" rx=".869331" width="8.386223" x="25.213777" y="12.518724"/></g></g></g></g></svg>