<svg height="48" viewBox="0 0 48 48" width="48" xmlns="http://www.w3.org/2000/svg"><g fill="none" fill-rule="evenodd"><path d="m24 48c13.254834 0 24-10.745166 24-24s-10.745166-24-24-24-24 10.745166-24 24 10.745166 24 24 24z" fill="#fff"/><g fill-rule="nonzero" transform="translate(11.2 11.2)"><g transform="matrix(.70710678 .70710678 -.70710678 .70710678 18.980953 .172981)"><path d="m4.37241379 0c.73130119 0 1.32413793.59283675 1.32413793 1.32413793v25.24729067h-2.64827586v-25.24729067c0-.73130118.59283675-1.32413793 1.32413793-1.32413793z" fill="#fc5895" opacity=".864955"/><path d="m2.165517 18.6h4.413793v7.971429h-4.413793z" fill="#171e2b"/><path d="m3.268966 15.721429h2.206897v7.971429h-2.206897z" fill="#858c9a" transform="matrix(0 1 -1 0 24.079557 15.334729)"/></g><g transform="matrix(.70710678 -.70710678 .70710678 .70710678 1.23552 6.356508)"><path d="m4.37241379 0c.73130119 0 1.32413793.59283675 1.32413793 1.32413793v25.24729067h-2.64827586v-25.24729067c0-.73130118.59283675-1.32413793 1.32413793-1.32413793z" fill="#99d867" opacity=".864955"/><path d="m2.165517 18.6h4.413793v7.971429h-4.413793z" fill="#171e2b"/><path d="m3.268966 15.721429h2.206897v7.971429h-2.206897z" fill="#858c9a" transform="matrix(0 1 -1 0 24.079557 15.334729)"/></g></g></g></svg>