<svg height="48" viewBox="0 0 48 48" width="48" xmlns="http://www.w3.org/2000/svg"><g fill="none" fill-rule="evenodd"><path d="m24 48c13.254834 0 24-10.745166 24-24s-10.745166-24-24-24-24 10.745166-24 24 10.745166 24 24 24z" fill="#fff"/><g transform="translate(10.4 11.6)"><rect fill="#171e2b" height="4.087268" rx="2.043634" width="4.689655" x="2.813793" y="20.312732"/><rect fill="#171e2b" height="4.087268" rx="2.043634" width="4.689655" x="20.165517" y="20.312732"/><path d="m2.61366795.10300574h2.64651931c.79200388 0 1.47560647.55508941 1.63819575 1.3302248l.73905541 3.52340573h-7.50344827l.85155052-3.56832333c.17984199-.75360692.85335859-1.2853072 1.62812728-1.2853072z" fill="#fc5859" transform="translate(9.714286)"/><path d="m3.83265563 13.2701821h19.55515727l-.5693903-6.25574788c-.1102727-1.21153758-1.1261222-2.13912488-2.3426678-2.13912488h-13.60295258c-1.19836743 0-2.20518804.90087364-2.33788539 2.09187152z" stroke="#5685d8" stroke-width="1.823297"/><ellipse cx="18.450443" cy="10.481864" rx="2.344828" ry="2.554542" stroke="#555b67" stroke-width="1.748571"/><rect fill="#68bcff" height="12.261803" rx="5.230769" width="27.2" y="10.210678"/><path d="m0 14.9564336h27.2v3.7080481c0 2.1031003-1.7048997 3.808-3.808 3.808h-19.584c-2.10310033 0-3.808-1.7048997-3.808-3.808z" fill="#5685d8" opacity=".499442"/><g fill="#fed948" stroke="#5fa0ec" stroke-width=".816"><ellipse cx="23.314286" cy="15.104762" rx="3.108571" ry="3.098413"/><ellipse cx="3.885714" cy="15.104762" rx="3.108571" ry="3.098413"/></g></g></g></svg>