<svg height="48" viewBox="0 0 48 48" width="48" xmlns="http://www.w3.org/2000/svg"><g fill="none" fill-rule="evenodd"><path d="m24 48c13.254834 0 24-10.745166 24-24s-10.745166-24-24-24-24 10.745166-24 24 10.745166 24 24 24z" fill="#fff"/><g transform="translate(12.8 14.8)"><path d="m13.2498426 20.5831673c-3.0986259-.7589275-6.0884383-2.4393222-8.31718613-4.6619424-2.22877404-2.2767565-3.91411026-5.2041156-4.67507002-8.2939359-.86987801-3.415187.59793628-6.28817459 2.39190239-6.83026943.16312834-.05416243.32615182-.05416243.54369996-.05416243 1.41339449 0 2.93539265 1.40942566 4.45762674 4.1199521.70674966 1.30102237.32615182 1.84319563-.38059785 2.81885131-.21744328.32523599-.54359511.75892754-.92419295 1.35515866-.32615183.4879324.21744329 1.40942569.38059784 1.62636289l.05428873.0541363s.70688074 1.0841897 1.46770943 1.8431956c.70685453.7589276 1.79396616 1.4635881 1.84838596 1.4635881l.0543149.0541625c.1630235.1084032.7610384.4878017 1.2502399.4878017.1631284 0 .2718631-.0541363.3805979-.1084033.59791-.3796337 1.0329015-.6504981 1.3589484-.9215978.6523561-.4335609 1.0872427-.7589276 1.6309427-.7589276.4347817 0 .8153795.1625919 1.1959512.3795291 3.9140054 2.1683271 4.3489968 3.9029887 4.0770288 4.9329114-.4348865 1.5719914-2.5007157 2.7104219-4.892487 2.7104219-.6523561 0-1.304686-.0541624-1.9027009-.2168327z" fill="#7870c5"/><g transform="translate(8.945657 .352462)"><path d="m11.8295753 0-5.28546538 5.52994426" stroke="#60d064" stroke-linecap="round" stroke-width="2.273274"/><path d="m2.63622487 6.47561624c1.04390129-1.22572484 2.03915875-2.21650898 2.9857724-2.97235241.94661364-.75584342 1.94187111-1.35442749 2.98577239-1.79575218v9.53620915c-.94661365-.3636433-1.94187111-.9622274-2.98577239-1.79575215-1.04390129-.83352477-2.03915875-1.82430891-2.9857724-2.97235241z" fill="#60d064" transform="matrix(.70710678 -.70710678 .70710678 .70710678 -2.932307 5.872016)"/></g></g></g></svg>