<svg height="48" viewBox="0 0 48 48" width="48" xmlns="http://www.w3.org/2000/svg"><g fill="none" fill-rule="evenodd"><path d="m24 48c13.254834 0 24-10.745166 24-24s-10.745166-24-24-24-24 10.745166-24 24 10.745166 24 24 24z" fill="#fff"/><g transform="translate(8 13.2)"><path d="m27.3516922 7.84622222h2.4934214c1.1376522 0 2.0599016.92224935 2.0599016 2.05990159v1.28042719c0 1.1376523-.9222494 2.0599016-2.0599016 2.0599016h-2.4934214z" fill="#6d97df"/><path d="m4.55332295 13.2464526h-2.49342137c-1.13765223 0-2.05990158-.9222493-2.05990158-2.0599016v-1.28042719c0-1.13765224.92224935-2.05990159 2.05990158-2.05990159h2.49342137z" fill="#6d97df"/><g transform="translate(3.555556)"><path d="m10.1243475 3.00697612h-5.18224457c-1.02466543 0-1.85532088.83065545-1.85532088 1.85532088v12.6749582c0 1.0246655.83065545 1.8553209 1.85532088 1.8553209h14.61979057c1.0246654 0 1.8553209-.8306554 1.8553209-1.8553209v-12.6749582c0-1.02466543-.8306555-1.85532088-1.8553209-1.85532088h-5.2165769v2.89666373h-4.2209691zm-6.64119737-2.89498412h17.53769617c1.8202436 0 3.2958426 1.47559897 3.2958426 3.29584254v15.58388316c0 1.8202436-1.475599 3.2958425-3.2958426 3.2958425h-17.53769617c-1.82024357 0-3.29584254-1.4755989-3.29584254-3.2958425v-15.58388316c0-1.82024357 1.47559897-3.29584254 3.29584254-3.29584254z" fill="#68bcff"/><g fill-rule="nonzero"><ellipse cx="8.440801" cy="10.155649" fill="#555b67" rx="2.399271" ry="2.395556"/><ellipse cx="16.118469" cy="10.155649" fill="#555b67" rx="2.399271" ry="2.395556"/><path d="m9.65175484 15.6710463c-.29483066-.1710438-.39684007-.5487106-.22784438-.8435424.16899568-.2948317.54500124-.3951815.83983194-.2241377 1.2188098.7070837 2.7284127.7234601 3.9704317.0063801.2938572-.1696586.6704413-.0675377.8411239.2280934.1706827.295631.07083.6728228-.2230273.8424814-1.625495.9384799-3.6038515.9170185-5.20051586-.0092748z" fill="#929aa8" stroke="#929aa8" stroke-width=".5"/></g></g></g></g></svg>