<svg height="48" viewBox="0 0 48 48" width="48" xmlns="http://www.w3.org/2000/svg"><g fill="none" fill-rule="evenodd"><path d="m24 48c13.254834 0 24-10.745166 24-24s-10.745166-24-24-24-24 10.745166-24 24 10.745166 24 24 24z" fill="#fff"/><g transform="translate(11.2 10.8)"><rect fill="#555b67" height="3.869504" rx="1.934752" width="4.413793" x="2.648276" y="22.530497"/><rect fill="#555b67" height="3.869504" rx="1.934752" width="4.413793" x="18.97931" y="22.530497"/><path d="m22.9060738 12.9922429c1.5488096.3957974 2.6939262 1.8004746 2.6939262 3.4726082v4.4405106c0 1.9793885-1.6046115 3.584-3.584 3.584h-18.432c-1.97938854 0-3.584-1.6046115-3.584-3.584v-4.4405106c0-1.6758877 1.1502642-3.0831168 2.70436412-3.4752588l.79399142-10.15700568c.12498792-1.59888762 1.45889111-2.83258662 3.06265656-2.83258662h12.6332962c1.6206058 0 2.9624734 1.25890915 3.0657551 2.87622051z" fill="#d2d6de"/><ellipse cx="12.8" cy="14.666667" fill="#fff" fill-rule="nonzero" rx="6.582857" ry="6.6"/><g stroke="#fc5859" stroke-linecap="square" stroke-width="1.880816" transform="translate(9.508572 11.366667)"><path d="m3.29142857 0v6.6"/><path d="m0 3.3h6.58285714"/></g><g fill="#fc5859" fill-rule="nonzero" transform="translate(16.822857 5.133333)"><path d="m3.56186696 8.47918887c1.62799343-.88244334 2.5599594-1.84644687 2.79589791-2.8920106.18099241-.80206957-.41371623-2.0449603-1.36515922-2.0449603-.63429533 0-1.11120822.31673574-1.43073869.95020723-.34847837-.63347149-.86148493-.95020723-1.53901967-.95020723-1.01630212 0-1.58943356 1.23201534-1.38456694 2.0449603.26226393 1.04070703 1.2367928 2.00471056 2.92358661 2.8920106z" transform="matrix(.42261826 .90630779 -.90630779 .42261826 7.464676 .304212)"/><path d="m1.85633223 2.58679203c.79365596-.4301961 1.24799462-.90015325 1.36301597-1.40987145.08823482-.39101343-.20168899-.99692967-.6655228-.99692967-.30922255 0-.54172027.15441046-.69749317.46323138-.16988517-.30882092-.41997876-.46323138-.75028076-.46323138-.49545301 0-.77485782.60061442-.67498418.99692967.12785514.50735053.60294345.97730768 1.42526494 1.40987145z" transform="matrix(.99254615 .12186934 -.12186934 .99254615 .182182 -.211861)"/></g></g></g></svg>