<svg height="48" viewBox="0 0 48 48" width="48" xmlns="http://www.w3.org/2000/svg" xmlns:xlink="http://www.w3.org/1999/xlink"><defs><path id="a" d="m14.4280288 22.0793571-10.79928434-6.7252355h-1.66786849c-1.03338899 0-1.87040125-.6309026-1.87040125-1.4093638v-5.63654413c0-.77842329.83701226-1.40921196 1.87040125-1.40921196h1.99495785l10.47219498-6.57581622s2.4940051-1.25261598 2.4940051 1.17424205v19.41775006c-.0002052 2.406657-2.4940051 1.1641795-2.4940051 1.1641795z"/><mask id="b" fill="#fff"><use fill="#fff" fill-rule="evenodd" xlink:href="#a"/></mask></defs><g fill="none" fill-rule="evenodd"><path d="m24 48c13.254834 0 24-10.745166 24-24s-10.745166-24-24-24-24 10.745166-24 24 10.745166 24 24 24z" fill="#fff"/><g transform="translate(13.2 12.8)"><path d="m6.18570548 12.8162115.40585974 5.6520403c.07159058.9969771.941481 1.8051867 1.94495088 1.8051867h-.54067344c1.00257613 0 1.75529727-.8107109 1.68160978-1.8059107l-.28524957-3.8524898z" fill="#171e2b" transform="matrix(.8660254 .5 -.5 .8660254 9.344 -1.782632)"/><rect fill="#6d97df" height="7.328205" rx=".517215" width="7.755932" y="7.384615"/><g transform="translate(3.877966)"><use fill="#fed948" xlink:href="#a"/><g fill-rule="nonzero"><path d="m-6.8 5.25h10.677966v11.9h-10.677966z" fill="#fed948" mask="url(#b)"/><path d="m2.115254 5.25h1.762712v11.9h-1.762712z" fill="#e29f41" mask="url(#b)"/></g></g></g></g></svg>