<svg height="48" viewBox="0 0 48 48" width="48" xmlns="http://www.w3.org/2000/svg" xmlns:xlink="http://www.w3.org/1999/xlink"><defs><path id="a" d="m24 48c13.254834 0 24-10.745166 24-24s-10.745166-24-24-24-24 10.745166-24 24 10.745166 24 24 24z"/><path id="b" d="m14.267751 22.0793571-10.74670751-6.7252355h-1.65974839c-1.02835788 0-1.8612951-.6309026-1.8612951-1.4093638v-5.63654413c0-.77842329.83293722-1.40921196 1.8612951-1.40921196h1.98524531l10.42121059-6.57581622s2.4818629-1.25261598 2.4818629 1.17424205v19.41775006c-.0002042 2.406657-2.4818629 1.1641795-2.4818629 1.1641795z"/><mask id="c" fill="#fff"><use fill="#fff" fill-rule="evenodd" xlink:href="#a"/></mask><mask id="d" fill="#fff"><use fill="#fff" fill-rule="evenodd" xlink:href="#b"/></mask></defs><g fill="none" fill-rule="evenodd"><use fill="#fff" xlink:href="#a"/><g mask="url(#c)"><g transform="translate(8.8 12.8)"><g stroke="#5685d8" stroke-linecap="round" stroke-width="1.563778" transform="translate(22.916456 5.140984)"><path d="m3.37953126 12.5284935c1.64985292-1.5774161 2.67558007-3.78848198 2.67558007-6.2363083 0-2.47686826-1.05021077-4.71132469-2.73456641-6.2921852"/><path d="m.15090218 9.75705995c.9427731-.90138062 1.5289029-2.16484682 1.5289029-3.56360472 0-1.41535329-.60012044-2.69218554-1.56260938-3.5955344"/></g><path d="m6.16143233 12.8162115.40388379 5.6520403c.07124204.9969771.93689736 1.8051867 1.93548179 1.8051867h-.53804114c.99769503 0 1.74675152-.8107109 1.67456908-1.7903533l-.28500712-3.8680472z" fill="#171e2b" transform="matrix(.8660254 .5 -.5 .8660254 9.339565 -1.766083)"/><rect fill="#6d97df" height="7.328205" rx=".519492" width="7.718172" y="7.384615"/><g transform="translate(3.859086)"><use fill="#fed948" xlink:href="#b"/><g fill-rule="nonzero"><path d="m0 5.25h3.859086v11.9h-3.859086z" fill="#fed948" mask="url(#d)"/><path d="m2.104956 5.25h1.75413v11.9h-1.75413z" fill="#e29f41" mask="url(#d)"/></g></g></g></g></g></svg>