<svg height="48" viewBox="0 0 48 48" width="48" xmlns="http://www.w3.org/2000/svg" xmlns:xlink="http://www.w3.org/1999/xlink"><defs><path id="a" d="m24 48c13.254834 0 24-10.745166 24-24s-10.745166-24-24-24-24 10.745166-24 24 10.745166 24 24 24z"/><mask id="b" fill="#fff"><use fill="#fff" fill-rule="evenodd" xlink:href="#a"/></mask></defs><g fill="none" fill-rule="evenodd"><use fill="#fff" xlink:href="#a"/><g mask="url(#b)"><g transform="translate(12.8 10.8)"><path d="m13.3688086 24.5806401c-3.1264474-.7677728-6.14310437-2.4677525-8.39186341-4.7162774-2.24878548-2.3032921-3.94925378-5.2647696-4.71704595-8.3906018-.87768837-3.45499104.60330495-6.36146334 2.4133785-6.9098763.16459301-.05479369.32908023-.05479369.54858167-.05479369 1.42608489 0 2.96174858 1.42585253 4.49765032 4.16797019.71309534 1.3161858.32908023 1.8646781-.38401511 2.851705-.21939564.3290267-.54847588.7677729-.93249098 1.3709531-.32908024.4936193.21939564 1.4258525.3840151 1.6453182l.05477618.0547672s.71322759 1.096826 1.48088751 1.8646781c.71320114.7677729 1.81007357 1.4806463 1.86498197 1.4806463l.0548026.0547937c.1644872.1096667.7678715.493487 1.2614655.493487.164593 0 .274304-.0547673.3840151-.1096667.6032785-.3840583 1.0421755-.6580797 1.37115-.9323391.6582134-.438614 1.0970046-.7677728 1.6455863-.7677728.4386855 0 .8227006.1644868 1.2066893.3839525 3.949148 2.1935989 4.388045 3.9484781 4.1136352 4.9904045-.4387913 1.590313-2.5231689 2.7420119-4.9364152 2.7420119-.6582133 0-1.3164003-.0547937-1.9197846-.2193599z" fill="#7870c5"/><g transform="matrix(-1 0 0 -1 24.432037 12.75657)"><path d="m11.9357893 0-5.33292194 5.59439583" stroke="#60d064" stroke-linecap="round" stroke-width="2.293685"/><path d="m2.65989468 6.55108962c1.05327414-1.24001068 2.05746769-2.24234242 3.01258068-3.00699521.95511298-.76465279 1.95930654-1.37021335 3.01258067-1.8166817v9.64735379c-.95511298-.3678816-1.95930654-.9734422-3.01258067-1.81668167-1.05327414-.84323951-2.0574677-1.84557125-3.01258068-3.00699521z" fill="#60d064" transform="matrix(.70710678 -.70710678 .70710678 .70710678 -2.970891 5.929815)"/></g></g></g></g></svg>