<svg height="48" viewBox="0 0 48 48" width="48" xmlns="http://www.w3.org/2000/svg"><g fill="none" fill-rule="evenodd"><path d="m24 48c13.254834 0 24-10.745166 24-24s-10.745166-24-24-24-24 10.745166-24 24 10.745166 24 24 24z" fill="#fff"/><g transform="translate(12 12)"><ellipse cx="12" cy="11.8" fill="#fed948" rx="12" ry="11.8"/><ellipse cx="12.087819" cy="16.398096" fill="#171e2b" fill-rule="nonzero" rx="3.462819" ry="4.785397"/><path d="m.34493625.9936367c-.2634552-.12953214-.37024152-.44455178-.23851392-.70361606.1317276-.25906428.45208655-.36407082.71554175-.23453868l2.93333333 1.44222222c.39309256.1932705.39309256.74488424 0 .93815474l-2.93333333 1.44222222c-.2634552.12953214-.58381415.0245256-.71554175-.23453868-.1317276-.25906428-.02494128-.57408392.23851392-.70361606l2.93333333-1.44222222v.93815474zm14.13333335-.93815474c.2634552-.12953214.5838141-.0245256.7155417.23453868s.0249413.57408392-.2385139.70361606l-2.9333333 1.44222222v-.93815474l2.9333333 1.44222222c.2634552.12953214.3702415.44455178.2385139.70361606s-.4520865.36407082-.7155417.23453868l-2.9333334-1.44222222c-.3930925-.1932705-.3930925-.74488424 0-.93815474z" fill="#171e2b" fill-rule="nonzero" transform="translate(4.483333 6.031111)"/><path d="m.4 20.9384582s1.96793377-2.4241956 3.07806443-2.2327491c0-1.9014697.85729676-5.8733134 3.06700551-4.7810371.59326466.2932554.12644025 1.3852415.12644025 1.3852415s2.18012668-2.6717399 4.32288341-1.3358699c2.1427568 1.33587 1.1982795 3.4569724 1.1982795 3.4569724s-1.9516219 4.7463989-6.13631501 3.9698602c-.37171775.6320387-.3871425.7481999-.98921986 1.359755-.72292054.7343004-1.70453645 1.0726779-1.90065871 1.2393688" fill="#fba800"/></g></g></svg>