<svg height="48" viewBox="0 0 48 48" width="48" xmlns="http://www.w3.org/2000/svg"><g fill="none" fill-rule="evenodd"><path d="m24 48c13.254834 0 24-10.745166 24-24s-10.745166-24-24-24-24 10.745166-24 24 10.745166 24 24 24z" fill="#fff"/><g transform="translate(12 12)"><circle cx="12" cy="12" fill="#fed948" r="12"/><ellipse cx="6.352941" cy="10.492632" fill="#171e2b" fill-rule="nonzero" rx="1.552941" ry="1.692632"/><ellipse cx="17.364706" cy="10.492632" fill="#171e2b" fill-rule="nonzero" rx="1.552941" ry="1.692632"/><path d="m15.6 19.2c0-3.9764502-3.2235498-7.2-7.2-7.2" stroke="#171e2b" stroke-linecap="round" stroke-width="1.2" transform="matrix(-.70710678 .70710678 -.70710678 -.70710678 31.516147 18.145584)"/></g><g fill="#fc5859" transform="translate(29.2 8.4)"><path d="m3.29490438 11.3874458c.2750258.1625253.61386309.1625253.88888889 0 .2750258-.1625254.44444444-.4628592.44444444-.7879099 0-.5024695-.39797041-.90980394-.88888888-.90980394-.49091848 0-.88888889.40733444-.88888889.90980394 0 .3250507.16941864.6253845.44444444.7879099z"/><path d="m7.47512709 3.0828866c0-1.80354639-1.54768821-3.06210309-3.76458485-3.06210309-1.6120794 0-3.03328492.92832989-3.536916 2.31158762-.11498426.31868042-.21617042.84750516-.11728395 1.2908866.05979182.26787629.32655531.43645361.59101912.37641237.2667635-.06004123.43464053-.32560824.37484871-.59348453-.03909465-.18012371-.00689906-.49649485.08048898-.73435052.29895909-.82441237 1.2211329-1.65575258 2.60554346-1.65575258 1.63277656 0 2.77342048.84981444 2.77342048 2.06680413 0 .92371134-.58182039 1.26548453-1.5338901 1.74812371-.82788671.42028866-1.85814573.94218557-1.85814573 2.23307216v1.23084537c0 .27480412.22076979.49880412.49443234.49880412s.49443234-.224.49443234-.49880412v-1.23084537c.00229969-.64890721.47833454-.92140206 1.31771968-1.34630927.92677318-.46878351 2.07891552-1.05303093 2.07891552-2.6348866z" stroke="#fc5859" stroke-width=".5"/></g></g></svg>