<svg height="48" viewBox="0 0 48 48" width="48" xmlns="http://www.w3.org/2000/svg"><g fill="none" fill-rule="evenodd"><path d="m24 48c13.254834 0 24-10.745166 24-24s-10.745166-24-24-24-24 10.745166-24 24 10.745166 24 24 24z" fill="#fff"/><g fill-rule="nonzero"><g transform="translate(12.8 15.803509)"><path d="m6.62496592.00436413 2.88534149 13.68142577h-2.67502017l-2.44759996-12.69838281z" fill="#858c9a"/><ellipse cx="4.8" cy="4.2" fill="#555b67" rx="4.8" ry="4.2" transform="translate(0 9.498359)"/></g><g transform="translate(16.602921 13.2)"><path d="m13.0229775.75825497 2.4323682 1.84961793 2.5161107 13.6814257h-2.6750202l-2.7488899-15.23984307c-.029325-.16257785.0786978-.31814586.2412756-.34747088.0824884-.01487885.1674351.00553483.2341556.05627032z" fill="#858c9a"/><path d="m1.81156296.29994341h12.04777444c.7317785 0 1.353219.53585989 1.4608582 1.25967859l.4371379 2.9395291h-15.0569429l-.35156313-2.51806258c-.11278872-.80784651.45066695-1.55416881 1.25851345-1.66695753.06766393-.009447.13590182-.01418758.20422204-.01418758z" fill="#858c9a"/><ellipse cx="4.8" cy="4.2" fill="#555b67" rx="4.8" ry="4.2" transform="translate(8.461149 12.101868)"/></g></g></g></svg>