<svg height="48" viewBox="0 0 48 48" width="48" xmlns="http://www.w3.org/2000/svg"><g fill="none" fill-rule="evenodd"><path d="m24 48c13.254834 0 24-10.745166 24-24s-10.745166-24-24-24-24 10.745166-24 24 10.745166 24 24 24z" fill="#fff"/><g transform="translate(12 12)"><ellipse cx="11.911765" cy="11.901316" fill="#fc5859" rx="11.911765" ry="11.901316"/><g fill="#000" fill-rule="nonzero"><path d="m18.1308531 12.8986419c.0852606.1715241.1338528.3692075.1338528.5796476 0 .6572915-.4740515 1.1901316-1.0588235 1.1901316-.5847721 0-1.0588236-.5328401-1.0588236-1.1901316 0-.0638458.0044728-.1265174.0130853-.1876405-.7532756.0838785-1.5620313.1052989-2.4265263.0544909-.2918815-.0171545-.5145796-.26747-.4974101-.5590955s.2677048-.5141282.5595863-.4969737c1.9974033.1173912 3.6484003-.1783446 4.9690113-.7392455.3867545-.1642656.7133876-.3389159.9807746-.5117147.1534792-.099186.2492956-.1719505.288153-.2059208.2200429-.1923687.5545054-.1700907.747043.0497592s.1702401.5540191-.0498029.7463877c-.0764368.0668236-.21289.1704483-.4103372.2980486-.3174905.2051781-.6977544.4085048-1.141598.5970177-.331793.1409219-.6811723.266589-1.0481847.375239zm-10.19923967.4190076c.0063064.0525366.00956304.1061608.00956304.16064 0 .6572915-.47405144 1.1901316-1.05882353 1.1901316s-1.05882353-.5328401-1.05882353-1.1901316c0-.1838132.03707344-.3578936.10327413-.5133097-.45326259-.1227549-.88067225-.2709891-1.28231192-.4415769-.44384358-.1885129-.8241075-.3918396-1.14159797-.5970177-.19744728-.1276003-.33390046-.231225-.41033727-.2980486-.22004292-.1923686-.24234042-.5265378-.04980287-.7463877.19253756-.2198499.52700012-.2421279.74704305-.0497592.03885731.0339703.13467373.1067348.28815293.2059208.26738698.1727988.59402012.3474491.98077458.5117147 1.32061105.5609009 2.97160807.8566367 4.96901133.7392455.2918815-.0171545.5424168.2053482.5595863.4969737s-.2055285.541941-.49741.5590955c-.7627665.0448292-1.48213988.0334287-2.15829827-.0274904z"/><path d="m15.8499222 18.609763c-.8086019-1.3630109-2.2657659-2.209763-3.8744875-2.209763-1.6145214 0-3.08671596.8545531-3.89552325 2.2082477-.15986061.2675574-.07236462.6139345.19542775.7736549s.6144736.0723012.7743342-.1952563c.6071557-1.0161918 1.7132287-1.6582252 2.9257613-1.6582252 1.2059536 0 2.2957842.6332962 2.9029212 1.6567098.159023.2680553.5054291.3565566.7737197.1976731s.3568696-.5049857.1978466-.773041z"/></g></g><g fill-rule="nonzero" stroke="#000" stroke-width=".8" transform="translate(26 12)"><path d="m3.2 0v3.2h-3.2"/><path d="m8 0v3.2h-3.2" transform="matrix(-1 0 0 1 12.8 0)"/><path d="m8 4.8v3.2h-3.2" transform="matrix(0 -1 -1 0 12.8 12.8)"/><path d="m3.2 4.8v3.2h-3.2" transform="matrix(0 -1 1 0 -4.8 8)"/></g></g></svg>