<svg height="48" viewBox="0 0 48 48" width="48" xmlns="http://www.w3.org/2000/svg"><g fill="none" fill-rule="evenodd"><path d="m24 48c13.254834 0 24-10.745166 24-24s-10.745166-24-24-24-24 10.745166-24 24 10.745166 24 24 24z" fill="#fff"/><g transform="translate(12 12)"><circle cx="12" cy="12" fill="#d2d6de" r="12"/><path d="m6.68247664 14.2387654c-.85766573 0-1.55294117-.757817-1.55294117-1.6926316s.69527544-1.6926315 1.55294117-1.6926315 1.55294118.7578169 1.55294118 1.6926315-.69527545 1.6926316-1.55294118 1.6926316zm11.01176466 0c-.8576657 0-1.5529411-.757817-1.5529411-1.6926316s.6952754-1.6926315 1.5529411-1.6926315c.8576658 0 1.5529412.7578169 1.5529412 1.6926315s-.6952754 1.6926316-1.5529412 1.6926316zm-1.6313948 4.7487104c.1590229.2680553.070444.6141575-.1978466.773041-.2682907.1588835-.6146968.0703822-.7737198-.1976731-.6071369-1.0234137-1.6969676-1.6567099-2.9029211-1.6567099-1.2125326 0-2.31860564.6420334-2.92576134 1.6582253-.1598606.2675574-.50654184.3549767-.77433421.1952563s-.35528835-.5060975-.19542775-.773655c.8088073-1.3536945 2.2810019-2.2082476 3.8955233-2.2082476 1.6087216 0 3.0658855.8467521 3.8744875 2.209763zm-10.99292862-8.7279668c-.13947629.2787079-.47867989.3916766-.75763245.2523227-.27895256-.139354-.39202042-.47826-.25254414-.75696791.11813025-.23605323.3426525-.56007867.68990904-.8822483.7035439-.65271769 1.61704016-.99171865 2.71857014-.83449527.30874391.04406759.5232751.32985826.47916883.63833135-.04410627.30847308-.33014786.52281609-.63889177.4787485-.74044705-.10568536-1.32257317.11034324-1.79033774.54431503-.13829924.12830807-.25527162.2664269-.35023455.4034752-.05421173.0782372-.08686317.1342499-.09800736.1565187zm15.24705882-.50464521c.1394763.27870791.0264084.61761391-.2525441.75696791-.2789526.1393539-.6181562.0263852-.7576325-.2523227-.0111442-.0222688-.0437956-.0782815-.0980074-.1565187-.0949629-.1370483-.2119353-.27516713-.3502345-.4034752-.4677646-.43397179-1.0498907-.65000039-1.7903377-.54431503-.3087439.04406759-.5947855-.17027542-.6388918-.4787485-.0441063-.30847309.1704249-.59426376.4791688-.63833135 1.10153-.15722338 2.0150263.18177758 2.7185702.83449527.3472565.32216963.5717788.64619507.689909.8822483z" fill="#171e2b"/></g></g></svg>