<svg height="48" viewBox="0 0 48 48" width="48" xmlns="http://www.w3.org/2000/svg"><g fill="none" fill-rule="evenodd"><path d="m24 48c13.254834 0 24-10.745166 24-24s-10.745166-24-24-24-24 10.745166-24 24 10.745166 24 24 24z" fill="#fff"/><g transform="translate(12 11.2)"><circle cx="12" cy="12.8" fill="#d2d6de" r="12"/><g fill-rule="nonzero" stroke="#171e2b" stroke-linecap="round" stroke-width=".8" transform="translate(12.4)"><path d="m3.4 3.2v5"/><path d="m.86 4v4.2"/><path d="m5.7 1.8v6.4"/><path d="m8.08333333.2v8"/></g><g fill="#171e2b"><path d="m3.36264268 14.5067794c-.28674709-.0565747-.47314188-.3348249-.41632442-.6214893s.33533157-.4731889.62207866-.4166142c.05063658.0099905.1699983.0250982.35250814.0342561.31796331.0159547.68816108.0038897 1.10523305-.0472294 1.42413318-.174551 3.00180646-.7439348 4.6729128-1.8443002.24419957-.160797.57242089-.0933716.73310289.1505987.1606819.2439703.0929775.572099-.1512221.7328959-1.80931369 1.1913702-3.54254744 1.8168959-5.12674053 2.0110649-.47863629.0586648-.90961782.0727108-1.28716172.0537665-.2347945-.0117815-.40477879-.0332965-.50438677-.052949zm16.86116282-1.0381035c.2867471-.0565747.5652612.1299498.6220787.4166142.0568174.2866644-.1295774.5649146-.4163245.6214893-.0996079.0196525-.2695922.0411675-.5043867.052949-.3775439.0189443-.8085255.0048983-1.2871617-.0537665-1.5841931-.194169-3.3174269-.8196947-5.1267406-2.0110649-.2441996-.1607969-.311904-.4889256-.151222-.7328959.1606819-.2439703.4889032-.3113957.7331028-.1505987 1.6711063 1.1003654 3.2487796 1.6697492 4.6729128 1.8443002.417072.0511191.7872697.0631841 1.1052331.0472294.1825098-.0091579.3018715-.0242656.3525081-.0342561z" fill-rule="nonzero"/><path d="m16.0628465 19.7874758c-.808602-1.3630109-2.2657659-2.209763-3.8744875-2.209763-1.6145214 0-3.086716.8545531-3.8955233 2.2082476-.1598606.2675575-.07236462.6139346.19542775.773655s.61447361.0723011.77433421-.1952563c.6071557-1.0161919 1.71322874-1.6582253 2.92576134-1.6582253 1.2059535 0 2.2957842.6332962 2.9029211 1.6567099.159023.2680553.5054291.3565566.7737198.1976731.2682906-.1588835.3568695-.5049857.1978466-.773041z"/></g></g></g></svg>