<svg height="136" viewBox="0 0 326 136" width="326" xmlns="http://www.w3.org/2000/svg"><g fill="none" fill-rule="evenodd"><path d="m27.4118607 19.01822v98.507071l283.2416603-19.5081651v-61.7051338z" opacity=".35" stroke="#979797" stroke-width="8"/><path d="m15.5234043 0c8.5733394 0 15.5234042 6.95006482 15.5234042 15.5234043v104.8723407c0 8.573339-6.9500648 15.523404-15.5234042 15.523404-8.57333948 0-15.5234043-6.950065-15.5234043-15.523404v-104.8723407c0-8.57333948 6.95006482-15.5234043 15.5234043-15.5234043z" fill="#e95450"/><circle cx="15.523404" cy="20.904255" fill="#b91611" opacity=".3" r="5.821277"/><circle cx="15.523404" cy="115.014894" fill="#b91611" opacity=".3" r="5.821277"/><g transform="translate(41.5 3.5)"><path d="m16 0c8.836556 0 16 7.163444 16 16v97c0 8.836556-7.163444 16-16 16-8.836556 0-16-7.163444-16-16v-97c0-8.836556 7.163444-16 16-16z" fill="#f89c00"/><g fill="#c78006"><circle cx="16" cy="19.5" opacity=".5" r="6"/><circle cx="16" cy="108.5" opacity=".5" r="6"/></g></g><g transform="translate(83.5 6.5)"><path d="m16 0c8.836556 0 16 7.163444 16 16v91c0 8.836556-7.163444 16-16 16-8.836556 0-16-7.163444-16-16v-91c0-8.836556 7.163444-16 16-16z" fill="#f7d140"/><g fill="#e5b90f"><circle cx="16" cy="19.5" opacity=".8" r="6"/><circle cx="16" cy="102.5" opacity=".8" r="6"/></g></g><g transform="translate(125.5 9.5)"><path d="m16 0c8.836556 0 16 7.163444 16 16v85c0 8.836556-7.163444 16-16 16-8.836556 0-16-7.163444-16-16v-85c0-8.836556 7.163444-16 16-16z" fill="#8fc626"/><g fill="#7dad20"><circle cx="16" cy="19.5" r="6"/><circle cx="16" cy="96.5" r="6"/></g></g><g transform="translate(167.5 10.5)"><path d="m16 0c8.836556 0 16 7.163444 16 16v83c0 8.836556-7.163444 16-16 16-8.836556 0-16-7.163444-16-16v-83c0-8.836556 7.163444-16 16-16z" fill="#26c6a7"/><g fill="#088d73"><circle cx="16" cy="19.5" opacity=".3" r="6"/><circle cx="16" cy="94.5" opacity=".3" r="6"/></g></g><g transform="translate(209.5 12.5)"><path d="m16 0c8.836556 0 16 7.163444 16 16v79c0 8.836556-7.163444 16-16 16-8.836556 0-16-7.163444-16-16v-79c0-8.836556 7.163444-16 16-16z" fill="#4573c3"/><g fill="#0f387f"><circle cx="16" cy="20" opacity=".3" r="6"/><circle cx="16" cy="90" opacity=".3" r="6"/></g></g><g transform="translate(251.5 15.5)"><path d="m16 0c8.836556 0 16 7.163444 16 16v73c0 8.836556-7.163444 16-16 16-8.836556 0-16-7.163444-16-16v-73c0-8.836556 7.163444-16 16-16z" fill="#635bab"/><g fill="#352d7e"><circle cx="16" cy="18.5" opacity=".3" r="6"/><circle cx="16" cy="85.5" opacity=".3" r="6"/></g></g><g transform="translate(294 20)"><path d="m16 0c8.836556 0 16 7.163444 16 16v64c0 8.836556-7.163444 16-16 16-8.836556 0-16-7.163444-16-16v-64c0-8.836556 7.163444-16 16-16z" fill="#f0699d"/><g fill="#b43163"><circle cx="15.5" cy="17" opacity=".3" r="6"/><circle cx="15.5" cy="78" opacity=".3" r="6"/></g></g></g></svg>