<svg height="150" viewBox="0 0 150 150" width="150" xmlns="http://www.w3.org/2000/svg" xmlns:xlink="http://www.w3.org/1999/xlink"><defs><path id="a" d="m75 0c41.421356 0 75 33.5786438 75 75 0 41.421356-33.578644 75-75 75-41.4213562 0-75-33.578644-75-75 0-41.4213562 33.5786438-75 75-75zm-51.9528494 104.994992c16.5657764 28.692766 53.2550746 38.523634 81.9478414 21.957857 28.692766-16.565776 38.523634-53.2550742 21.957857-81.9478406-16.565776-28.6927664-53.2550742-38.52363421-81.9478406-21.9578578-28.6927664 16.5657764-38.52363421 53.2550746-21.9578578 81.9478414z"/><mask id="b" fill="#fff"><use fill="#fff" fill-rule="evenodd" xlink:href="#a"/></mask></defs><g fill="none" fill-rule="evenodd" transform="translate(-5 -5)"><path d="m81.0726539 82.5780825v58.4219175h-2.1328931v-58.430696l-41.3173648 41.317365-1.5081831-1.508183 41.3133634-41.3133638h-58.4275763v-2.132893h58.4268005l-41.3125876-41.3125877 1.5081831-1.5081832 41.3173648 41.3173648v-58.4288231h2.1328931v58.4200446l41.3085861-41.3085863 1.508183 1.5081832-41.3125874 41.3125877h58.4231644v2.132893h-58.4239401l41.3133631 41.3133638-1.508183 1.508183z" fill="#929aa8" fill-rule="nonzero" transform="matrix(.92718385 .37460659 -.37460659 .92718385 35.793819 -24.143236)"/><g transform="translate(5 5)"><use fill="#37bae4" fill-rule="nonzero" xlink:href="#a"/><g fill="#0079ae"><path d="m-5.357143 72.321429h77.678571v5.357143h-77.678571z" fill-rule="nonzero" mask="url(#b)" opacity=".545647"/><rect height="16.666667" mask="url(#b)" rx="8.333333" transform="matrix(-1 0 0 -1 149.107142 295.238096)" width="50" x="49.553571" y="139.285714"/></g></g><path d="m80 113c18.2253967 0 33-14.7746033 33-33s-14.7746033-33-33-33-33 14.7746033-33 33 14.7746033 33 33 33z" fill="#171e2b"/></g></svg>