<svg height="44" viewBox="0 0 44 44" width="44" xmlns="http://www.w3.org/2000/svg"><g fill="none"><rect fill="#f0f0f0" height="44" rx="22" width="44"/><path d="m19.3983623 18.0706104v7.6461742h2.174365c.5522847 0 1 .4477152 1 1v.6573984c0 .5522848-.4477153 1-1 1h-6.6863637c-.5522847 0-1-.4477152-1-1v-.6573984c0-.5522848.4477153-1 1-1h2.3524397v-7.6461742h-2.3524397c-.5522847 0-1-.4477153-1-1v-.6130941c0-.5522847.4477153-1 1-1h6.6863637c.5522847 0 1 .4477153 1 1v.6130941c0 .5522847-.4477153 1-1 1z" fill="#68bcff"/><g fill="#929aa8"><ellipse cx="25.245455" cy="26.911765" rx="1.336364" ry="1.352941"/><ellipse cx="29.254546" cy="26.911765" rx="1.336364" ry="1.352941"/></g></g></svg>