<svg height="14" viewBox="0 0 14 14" width="14" xmlns="http://www.w3.org/2000/svg"><path d="m1.82839654 3.2426101c-.52351978.79043302-.82839654 1.73830757-.82839654 2.7573899 0 2.76142375 2.23857625 5 5 5 1.01908233 0 1.96695688-.3048768 2.7573899-.8283965zm1.41421356-1.41421356 6.9289934 6.92899336c.5235197-.79043302.8283965-1.73830757.8283965-2.7573899 0-2.76142375-2.23857625-5-5-5-1.01908233 0-1.96695688.30487676-2.7573899.82839654zm2.7573899 11.17160346c-3.86599325 0-7-3.13400675-7-7s3.13400675-7 7-7 7 3.13400675 7 7-3.13400675 7-7 7z" fill="#fe6f7b" transform="translate(1 1)"/></svg>