<svg height="20" viewBox="0 0 20 20" width="20" xmlns="http://www.w3.org/2000/svg"><path d="m4.46654663 6.58786697c-.61286382.99176944-.96654663 2.16064771-.96654663 3.41213303 0 3.5898509 2.91014913 6.5 6.5 6.5 1.2514853 0 2.4203636-.3536828 3.412133-.9665466zm2.12132034-2.12132034 8.94558643 8.94558637c.6128638-.9917694.9665466-2.1606477.9665466-3.412133 0-3.58985087-2.9101491-6.5-6.5-6.5-1.25148532 0-2.42036359.35368281-3.41213303.96654663zm3.41213303 15.03345337c-5.24670512 0-9.5-4.2532949-9.5-9.5 0-5.24670512 4.25329488-9.5 9.5-9.5 5.2467051 0 9.5 4.25329488 9.5 9.5 0 5.2467051-4.2532949 9.5-9.5 9.5z" fill="#fe6f7b"/></svg>