<svg height="24" viewBox="0 0 24 24" width="24" xmlns="http://www.w3.org/2000/svg"><g fill="none" fill-rule="evenodd"><path d="m13.2 10.8v-2.4c0-.6627417-.5372583-1.2-1.2-1.2s-1.2.5372583-1.2 1.2v2.4h-2.4c-.6627417 0-1.2.5372583-1.2 1.2s.5372583 1.2 1.2 1.2h2.4v2.4c0 .6627417.5372583 1.2 1.2 1.2s1.2-.5372583 1.2-1.2v-2.4h2.4c.6627417 0 1.2-.5372583 1.2-1.2s-.5372583-1.2-1.2-1.2zm-1.2-8.8c5.5228475 0 10 4.4771525 10 10s-4.4771525 10-10 10-10-4.4771525-10-10 4.4771525-10 10-10z" fill="#fff"/><path d="m0 0h24v24h-24z" fill-rule="nonzero"/></g></svg>