<svg height="44" viewBox="0 0 44 44" width="44" xmlns="http://www.w3.org/2000/svg"><g fill="none" fill-rule="evenodd"><rect fill="#f0f0f0" fill-rule="nonzero" height="44" rx="22" width="44"/><path d="m16.436414 17.8468283c-.7984931-.0306642-1.436414-.6876713-1.436414-1.4936729 0-.8255507.6692411-1.4947919 1.4947919-1.4947919h2.9529227v-.0583635c0-1.5463973 1.2536027-2.8 2.8-2.8s2.8 1.2536027 2.8 2.8v.0583635h2.4574935c.8255508 0 1.4947919.6692412 1.4947919 1.4947919 0 .7818613-.6002808 1.4235194-1.3651127 1.4892449v10.5414381c0 .8925814-.7235802 1.6161616-1.6161616 1.6161616h-7.9323831c-.8905601 0-1.6133002-.7204283-1.6161534-1.6109838zm7.211296-2.9884648c-.0019545-.7715325-.6280049-1.3963767-1.3999954-1.3963767-.7719906 0-1.3980409.6248442-1.3999954 1.3963767h2.7999911zm.7912377 12.8738726c.3221661 0 .5833334-.2611673.5833334-.5833334v-6.7192322c0-.3221661-.2611673-.5833334-.5833334-.5833334s-.5833333.2611673-.5833333.5833334v6.7192322c0 .3221661.2611672.5833334.5833333.5833334zm-2.3858539 0c.3221661 0 .5833333-.2611673.5833333-.5833334v-6.7192322c0-.3221661-.2611672-.5833334-.5833333-.5833334s-.5833334.2611673-.5833334.5833334v6.7192322c0 .3221661.2611673.5833334.5833334.5833334zm-2.3776437 0c.3221661 0 .5833333-.2611673.5833333-.5833334v-6.7192322c0-.3221661-.2611672-.5833334-.5833333-.5833334s-.5833334.2611673-.5833334.5833334v6.7192322c0 .3221661.2611673.5833334.5833334.5833334z" fill="#fe6f7b"/></g></svg>