<svg height="44" viewBox="0 0 440 44" width="440" xmlns="http://www.w3.org/2000/svg"><g fill="none" fill-rule="evenodd"><path d="m22 0h396c12.150264 0 22 9.8497355 22 22 0 12.1502645-9.849736 22-22 22h-396c-12.1502645 0-22-9.8497355-22-22 0-12.1502645 9.8497355-22 22-22z" fill="#f0f0f0"/><g transform="translate(250 12)"><rect fill="#60d064" height="20" rx="10" width="20"/><path d="m9.0108351 10.7795508 3.2561974-4.32111982c.4521004-.59995752 1.3049619-.71981938 1.9049194-.26771896s.7198194 1.30496189.267719 1.90491942l-4.2412072 5.62827196c-.0520262.0690411-.1101688.1307549-.1731047.1849554-.41799849.4356313-1.10566135.4967338-1.59641981.1212309-.04209553-.0322093-.08201396-.0671684-.11949378-.1046482l-2.3850447-2.3850447c-.53119856-.5311986-.53119856-1.3924416 0-1.9236402.53119856-.53119856 1.39244159-.53119856 1.92364015 0z" fill="#fff"/></g></g></svg>