<svg height="48" viewBox="0 0 48 48" width="48" xmlns="http://www.w3.org/2000/svg" xmlns:xlink="http://www.w3.org/1999/xlink"><defs><path id="a" d="m14.267751 22.0793571-10.74670751-6.7252355h-1.65974839c-1.02835788 0-1.8612951-.6309026-1.8612951-1.4093638v-5.63654413c0-.77842329.83293722-1.40921196 1.8612951-1.40921196h1.98524531l10.42121059-6.57581622s2.4818629-1.25261598 2.4818629 1.17424205v19.41775006c-.0002042 2.406657-2.4818629 1.1641795-2.4818629 1.1641795z"/><mask id="b" fill="#fff"><use fill="#fff" fill-rule="evenodd" xlink:href="#a"/></mask></defs><g fill="none" fill-rule="evenodd"><path d="m24 48c13.254834 0 24-10.745166 24-24s-10.745166-24-24-24-24 10.745166-24 24 10.745166 24 24 24z" fill="#fff"/><g stroke="#5685d8" stroke-linecap="round" stroke-width="1.563778" transform="translate(30.516456 17.940984)"><path d="m3.37953126 12.5284935c1.64985292-1.5774161 2.67558007-3.78848198 2.67558007-6.2363083 0-2.47686826-1.05021077-4.71132469-2.73456641-6.2921852"/><path d="m.15090218 9.75705995c.9427731-.90138062 1.5289029-2.16484682 1.5289029-3.56360472 0-1.41535329-.60012044-2.69218554-1.56260938-3.5955344"/></g><g transform="translate(11.459086 12.8)"><use fill="#fed948" xlink:href="#a"/><g fill-rule="nonzero"><path d="m0 5.25h3.859086v11.9h-3.859086z" fill="#fed948" mask="url(#b)"/><path d="m-1.2 5.25h5.059086v11.9h-5.059086z" fill="#fec018" mask="url(#b)"/></g></g></g></svg>