<svg height="160" viewBox="0 0 192 160" width="192" xmlns="http://www.w3.org/2000/svg" xmlns:xlink="http://www.w3.org/1999/xlink"><defs><rect id="a" height="123" rx="24" width="172"/><filter id="b" height="113.5%" width="105.1%" x="-2.6%" y="-6.7%"><feOffset dx="0" dy="7" in="SourceAlpha" result="shadowOffsetInner1"/><feComposite in="shadowOffsetInner1" in2="SourceAlpha" k2="-1" k3="1" operator="arithmetic" result="shadowInnerInner1"/><feColorMatrix in="shadowInnerInner1" type="matrix" values="0 0 0 0 0   0 0 0 0 0   0 0 0 0 0  0 0 0 0.157580389 0"/></filter><circle id="c" cx="43" cy="116.5" r="3.5"/><filter id="d" height="128.6%" width="128.6%" x="-14.3%" y="-14.3%"><feOffset dx="0" dy="2" in="SourceAlpha" result="shadowOffsetInner1"/><feComposite in="shadowOffsetInner1" in2="SourceAlpha" k2="-1" k3="1" operator="arithmetic" result="shadowInnerInner1"/><feColorMatrix in="shadowInnerInner1" type="matrix" values="0 0 0 0 0   0 0 0 0 0   0 0 0 0 0  0 0 0 0.0842108243 0"/></filter><circle id="e" cx="61" cy="109.5" r="3.5"/><filter id="f" height="128.6%" width="128.6%" x="-14.3%" y="-14.3%"><feOffset dx="0" dy="2" in="SourceAlpha" result="shadowOffsetInner1"/><feComposite in="shadowOffsetInner1" in2="SourceAlpha" k2="-1" k3="1" operator="arithmetic" result="shadowInnerInner1"/><feColorMatrix in="shadowInnerInner1" type="matrix" values="0 0 0 0 0   0 0 0 0 0   0 0 0 0 0  0 0 0 0.0842108243 0"/></filter><circle id="g" cx="130" cy="116.5" r="3.5"/><filter id="h" height="128.6%" width="128.6%" x="-14.3%" y="-14.3%"><feOffset dx="0" dy="2" in="SourceAlpha" result="shadowOffsetInner1"/><feComposite in="shadowOffsetInner1" in2="SourceAlpha" k2="-1" k3="1" operator="arithmetic" result="shadowInnerInner1"/><feColorMatrix in="shadowInnerInner1" type="matrix" values="0 0 0 0 0   0 0 0 0 0   0 0 0 0 0  0 0 0 0.0842108243 0"/></filter><circle id="i" cx="112" cy="109.5" r="3.5"/><filter id="j" height="128.6%" width="128.6%" x="-14.3%" y="-14.3%"><feOffset dx="0" dy="2" in="SourceAlpha" result="shadowOffsetInner1"/><feComposite in="shadowOffsetInner1" in2="SourceAlpha" k2="-1" k3="1" operator="arithmetic" result="shadowInnerInner1"/><feColorMatrix in="shadowInnerInner1" type="matrix" values="0 0 0 0 0   0 0 0 0 0   0 0 0 0 0  0 0 0 0.0842108243 0"/></filter><mask id="k" fill="#fff"><use fill="#fff" fill-rule="evenodd" xlink:href="#a"/></mask></defs><g fill="none" fill-rule="evenodd"><path d="m-.5-.5h192v160h-192z" opacity=".312047"/><g transform="translate(9.5 12)"><g fill-rule="nonzero"><use fill="#fec018" xlink:href="#a"/><path d="m39 96h95.985097c1.267411 0 2.459831.6006527 3.214229 1.6190898l18.800674 25.3809102h-122v-23c0-2.209139 1.790861-4 4-4z" fill="#f1a909" mask="url(#k)"/><path d="m37.7840533 96h96.4318937c1.67333 0 3.169823 1.0415795 3.750995 2.6107426l9.033058 24.3892574h-122l9.0330583-24.3892574c.5811715-1.5691631 2.0776651-2.6107426 3.750995-2.6107426z" fill="#fed948" mask="url(#k)"/><path d="m45 100h82c.552285 0 1 .447715 1 1s-.447715 1-1 1h-82c-.5522847 0-1-.447715-1-1s.4477153-1 1-1zm-1 4h84c.552285 0 1 .447715 1 1s-.447715 1-1 1h-84c-.5522847 0-1-.447715-1-1s.4477153-1 1-1zm-1 4h86c.552285 0 1 .447715 1 1s-.447715 1-1 1h-86c-.5522847 0-1-.447715-1-1s.4477153-1 1-1zm-1 4h88c.552285 0 1 .447715 1 1s-.447715 1-1 1h-88c-.5522847 0-1-.447715-1-1s.4477153-1 1-1zm-1 4h90c.552285 0 1 .447715 1 1s-.447715 1-1 1h-90c-.5522847 0-1-.447715-1-1s.4477153-1 1-1z" fill="#fec018" mask="url(#k)" opacity=".488616"/><path d="m37 7h98c6.627417 0 12 5.372583 12 12v6.5h-122v-6.5c0-6.627417 5.372583-12 12-12z" fill="#f1a909" mask="url(#k)" opacity=".666741"/><rect height="52" mask="url(#k)" rx="4" width="162.5" x="4" y="32.5"/></g><g mask="url(#k)"><g fill-rule="nonzero" transform="translate(17.5 32.5)"><rect fill="#171e2b" height="52" rx="4" width="136"/><path d="m109.962444 60.9624443c-19.3299659 0-34.9999997-15.6700338-34.9999997-35 0-19.32996624 15.6700338-34.99999999 34.9999997-34.99999999 19.329967 0 35 15.67003375 35 34.99999999 0 19.3299662-15.670033 35-35 35zm.037556-11.9624443c12.702549 0 23-10.2974508 23-23s-10.297451-23-23-23c-12.7025492 0-23 10.2974508-23 23s10.2974508 23 23 23z" fill="#7870c5"/><path d="m26.0000408 70.0000408c-24.30052896 0-44-19.699471-44-44 0-24.30052896 19.69947104-44 44-44 24.300529 0 44 19.69947104 44 44 0 24.300529-19.699471 44-44 44zm-.0000408-16.0000408c15.463973 0 28-12.536027 28-28s-12.536027-28-28-28-28 12.536027-28 28 12.536027 28 28 28z" fill="#7870c5"/><g fill="none" transform="translate(-4 -4)"><path d="m30 60c-16.5685425 0-30-13.4314575-30-30s13.4314575-30 30-30 30 13.4314575 30 30-13.4314575 30-30 30zm0-12c9.9411255 0 18-8.0588745 18-18s-8.0588745-18-18-18-18 8.0588745-18 18 8.0588745 18 18 18z" fill="#fed948"/><path d="m30 60c-16.5685425 0-30-13.4314575-30-30s13.4314575-30 30-30 30 13.4314575 30 30-13.4314575 30-30 30zm0-3c14.9116882 0 27-12.0883118 27-27s-12.0883118-27-27-27-27 12.0883118-27 27 12.0883118 27 27 27z" fill="#e84599"/><path d="m15.7986688 18.9387382 1.4823346 1.1220987c.9109999.6896093 1.1659294 1.9496625.5946409 2.9391631-.5712884.9895006-1.7899912 1.3987518-2.8427104.9546074l-1.7165668-.7242232c-.8488056 2.089789-1.3163671 4.3751-1.3163671 6.7696158s.4675615 4.6798268 1.3163671 6.7696158l1.7165668-.7242232c1.0527192-.4441444 2.271422-.0348932 2.8427104.9546074.5712885.9895006.316359 2.2495538-.5946409 2.9391631l-1.4823346 1.1220987c2.8139628 3.6076366 6.9725399 6.1152 11.7224921 6.769451l.2307696-1.846157c.1417192-1.1337538 1.1054926-1.9845558 2.2480695-1.9845558s2.1063503.850802 2.2480695 1.9845558l.2307696 1.846157c4.7499522-.654251 8.9085293-3.1618144 11.7224921-6.769451l-1.4823346-1.1220987c-.9109999-.6896093-1.1659294-1.9496625-.5946409-2.9391631.5712884-.9895006 1.7899912-1.3987518 2.8427104-.9546074l1.7165668.7242232c.8488056-2.089789 1.3163671-4.3751 1.3163671-6.7696158s-.4675615-4.6798268-1.3163671-6.7696158l-1.7165668.7242232c-1.0527192.4441444-2.271422.0348932-2.8427104-.9546074-.5712885-.9895006-.316359-2.2495538.5946409-2.9391631l1.4823346-1.1220987c-2.8139628-3.6076366-6.9725399-6.1152-11.7224921-6.769451l-.2307696 1.846157c-.1417192 1.1337538-1.1054926 1.9845558-2.2480695 1.9845558s-2.1063503-.850802-2.2480695-1.9845558l-.2307696-1.846157c-4.7499522.654251-8.9085293 3.1618144-11.7224921 6.769451zm-1.2311347 1.7910767c-.1129329.1876007-.2225418.3774291-.3287453.5694036l.3287468-.569406zm0 18.5403702c-.1129329-.1876007-.2225418-.3774291-.3287453-.5694036l.3287468.569406zm31.193677-.5694035c-.1062034.1919744-.2158123.3818028-.3287452.5694035l.3287454-.5694038zm.0000002-17.4015629-.3287454-.5694038c.1129329.1876007.2225418.3774291.3287453.5694036zm-15.7612113 29.7007813c-11.5979797 0-21-9.4020203-21-21s9.4020203-21 21-21 21 9.4020203 21 21-9.4020203 21-21 21z" fill="#fff"/></g><g fill="none" transform="translate(80 -4)"><path d="m30 60c-16.5685425 0-30-13.4314575-30-30s13.4314575-30 30-30 30 13.4314575 30 30-13.4314575 30-30 30zm0-12c9.9411255 0 18-8.0588745 18-18s-8.0588745-18-18-18-18 8.0588745-18 18 8.0588745 18 18 18z" fill="#fed948"/><path d="m15.7986688 18.9387382 1.4823346 1.1220987c.9109999.6896093 1.1659294 1.9496625.5946409 2.9391631-.5712884.9895006-1.7899912 1.3987518-2.8427104.9546074l-1.7165668-.7242232c-.8488056 2.089789-1.3163671 4.3751-1.3163671 6.7696158s.4675615 4.6798268 1.3163671 6.7696158l1.7165668-.7242232c1.0527192-.4441444 2.271422-.0348932 2.8427104.9546074.5712885.9895006.316359 2.2495538-.5946409 2.9391631l-1.4823346 1.1220987c2.8139628 3.6076366 6.9725399 6.1152 11.7224921 6.769451l.2307696-1.846157c.1417192-1.1337538 1.1054926-1.9845558 2.2480695-1.9845558s2.1063503.850802 2.2480695 1.9845558l.2307696 1.846157c4.7499522-.654251 8.9085293-3.1618144 11.7224921-6.769451l-1.4823346-1.1220987c-.9109999-.6896093-1.1659294-1.9496625-.5946409-2.9391631.5712884-.9895006 1.7899912-1.3987518 2.8427104-.9546074l1.7165668.7242232c.8488056-2.089789 1.3163671-4.3751 1.3163671-6.7696158s-.4675615-4.6798268-1.3163671-6.7696158l-1.7165668.7242232c-1.0527192.4441444-2.271422.0348932-2.8427104-.9546074-.5712885-.9895006-.316359-2.2495538.5946409-2.9391631l1.4823346-1.1220987c-2.8139628-3.6076366-6.9725399-6.1152-11.7224921-6.769451l-.2307696 1.846157c-.1417192 1.1337538-1.1054926 1.9845558-2.2480695 1.9845558s-2.1063503-.850802-2.2480695-1.9845558l-.2307696-1.846157c-4.7499522.654251-8.9085293 3.1618144-11.7224921 6.769451zm-1.2311347 1.7910767c-.1129329.1876007-.2225418.3774291-.3287453.5694036l.3287468-.569406zm0 18.5403702c-.1129329-.1876007-.2225418-.3774291-.3287453-.5694036l.3287468.569406zm31.193677-.5694035c-.1062034.1919744-.2158123.3818028-.3287452.5694035l.3287454-.5694038zm.0000002-17.4015629-.3287454-.5694038c.1129329.1876007.2225418.3774291.3287453.5694036zm-15.7612113 29.7007813c-11.5979797 0-21-9.4020203-21-21s9.4020203-21 21-21 21 9.4020203 21 21-9.4020203 21-21 21z" fill="#fff"/><path d="m30 60c-16.5685425 0-30-13.4314575-30-30s13.4314575-30 30-30 30 13.4314575 30 30-13.4314575 30-30 30zm0-3c14.9116882 0 27-12.0883118 27-27s-12.0883118-27-27-27-27 12.0883118-27 27 12.0883118 27 27 27z" fill="#e84599"/></g><rect fill="#000" filter="url(#b)" height="52" rx="4" width="136"/></g></g></g><g fill-rule="nonzero"><g transform="translate(9 12)"><use fill="#f4b00e" xlink:href="#c"/><use fill="#000" filter="url(#d)" xlink:href="#c"/></g><g transform="translate(9 12)"><use fill="#f4b00e" xlink:href="#e"/><use fill="#000" filter="url(#f)" xlink:href="#e"/></g><g transform="translate(9 12)"><use fill="#f4b00e" xlink:href="#g"/><use fill="#000" filter="url(#h)" xlink:href="#g"/></g><g transform="translate(9 12)"><use fill="#f4b00e" xlink:href="#i"/><use fill="#000" filter="url(#j)" xlink:href="#i"/></g><g transform="translate(14.5 13)"><g fill="#fff992"><path d="m75 24.3823529h12c.5522847 0 1 .4477153 1 1v.1176471c0 .5522847-.4477153 1-1 1h-12c-.5522847 0-1-.4477153-1-1v-.1176471c0-.5522847.4477153-1 1-1zm0-6.3529411h12c.5522847 0 1 .4477152 1 1v.117647c0 .5522848-.4477153 1-1 1h-12c-.5522847 0-1-.4477152-1-1v-.117647c0-.5522848.4477153-1 1-1zm0-6.3529412h12c.5522847 0 1 .4477152 1 1v.117647c0 .5522848-.4477153 1-1 1h-12c-.5522847 0-1-.4477152-1-1v-.117647c0-.5522848.4477153-1 1-1zm0 9.5294118h12c.5522847 0 1 .4477152 1 1v.117647c0 .5522848-.4477153 1-1 1h-12c-.5522847 0-1-.4477152-1-1v-.117647c0-.5522848.4477153-1 1-1zm0-6.3529412h12c.5522847 0 1 .4477152 1 1v.117647c0 .5522848-.4477153 1-1 1h-12c-.5522847 0-1-.4477152-1-1v-.117647c0-.5522848.4477153-1 1-1zm0-6.3529412h12c.5522847 0 1 .44771525 1 1v.11764706c0 .55228474-.4477153 1.00000004-1 1.00000004h-12c-.5522847 0-1-.4477153-1-1.00000004v-.11764706c0-.55228475.4477153-1 1-1z"/><path d="m57 24.3823529h12c.5522847 0 1 .4477153 1 1v.1176471c0 .5522847-.4477153 1-1 1h-12c-.5522847 0-1-.4477153-1-1v-.1176471c0-.5522847.4477153-1 1-1zm0-6.3529411h12c.5522847 0 1 .4477152 1 1v.117647c0 .5522848-.4477153 1-1 1h-12c-.5522847 0-1-.4477152-1-1v-.117647c0-.5522848.4477153-1 1-1zm0-6.3529412h12c.5522847 0 1 .4477152 1 1v.117647c0 .5522848-.4477153 1-1 1h-12c-.5522847 0-1-.4477152-1-1v-.117647c0-.5522848.4477153-1 1-1zm0 9.5294118h12c.5522847 0 1 .4477152 1 1v.117647c0 .5522848-.4477153 1-1 1h-12c-.5522847 0-1-.4477152-1-1v-.117647c0-.5522848.4477153-1 1-1zm0-6.3529412h12c.5522847 0 1 .4477152 1 1v.117647c0 .5522848-.4477153 1-1 1h-12c-.5522847 0-1-.4477152-1-1v-.117647c0-.5522848.4477153-1 1-1zm0-6.3529412h12c.5522847 0 1 .44771525 1 1v.11764706c0 .55228474-.4477153 1.00000004-1 1.00000004h-12c-.5522847 0-1-.4477153-1-1.00000004v-.11764706c0-.55228475.4477153-1 1-1z"/><path d="m93 24.3823529h12c.552285 0 1 .4477153 1 1v.1176471c0 .5522847-.447715 1-1 1h-12c-.5522847 0-1-.4477153-1-1v-.1176471c0-.5522847.4477153-1 1-1zm0-6.3529411h12c.552285 0 1 .4477152 1 1v.117647c0 .5522848-.447715 1-1 1h-12c-.5522847 0-1-.4477152-1-1v-.117647c0-.5522848.4477153-1 1-1zm0-6.3529412h12c.552285 0 1 .4477152 1 1v.117647c0 .5522848-.447715 1-1 1h-12c-.5522847 0-1-.4477152-1-1v-.117647c0-.5522848.4477153-1 1-1zm0 9.5294118h12c.552285 0 1 .4477152 1 1v.117647c0 .5522848-.447715 1-1 1h-12c-.5522847 0-1-.4477152-1-1v-.117647c0-.5522848.4477153-1 1-1zm0-6.3529412h12c.552285 0 1 .4477152 1 1v.117647c0 .5522848-.447715 1-1 1h-12c-.5522847 0-1-.4477152-1-1v-.117647c0-.5522848.4477153-1 1-1zm0-6.3529412h12c.552285 0 1 .44771525 1 1v.11764706c0 .55228474-.447715 1.00000004-1 1.00000004h-12c-.5522847 0-1-.4477153-1-1.00000004v-.11764706c0-.55228475.4477153-1 1-1z"/><path d="m111 24.3823529h12c.552285 0 1 .4477153 1 1v.1176471c0 .5522847-.447715 1-1 1h-12c-.552285 0-1-.4477153-1-1v-.1176471c0-.5522847.447715-1 1-1zm0-6.3529411h12c.552285 0 1 .4477152 1 1v.117647c0 .5522848-.447715 1-1 1h-12c-.552285 0-1-.4477152-1-1v-.117647c0-.5522848.447715-1 1-1zm0-6.3529412h12c.552285 0 1 .4477152 1 1v.117647c0 .5522848-.447715 1-1 1h-12c-.552285 0-1-.4477152-1-1v-.117647c0-.5522848.447715-1 1-1zm0 9.5294118h12c.552285 0 1 .4477152 1 1v.117647c0 .5522848-.447715 1-1 1h-12c-.552285 0-1-.4477152-1-1v-.117647c0-.5522848.447715-1 1-1zm0-6.3529412h12c.552285 0 1 .4477152 1 1v.117647c0 .5522848-.447715 1-1 1h-12c-.552285 0-1-.4477152-1-1v-.117647c0-.5522848.447715-1 1-1zm0-6.3529412h12c.552285 0 1 .44771525 1 1v.11764706c0 .55228474-.447715 1.00000004-1 1.00000004h-12c-.552285 0-1-.4477153-1-1.00000004v-.11764706c0-.55228475.447715-1 1-1z"/><path d="m39 24.3823529h12c.5522847 0 1 .4477153 1 1v.1176471c0 .5522847-.4477153 1-1 1h-12c-.5522847 0-1-.4477153-1-1v-.1176471c0-.5522847.4477153-1 1-1zm0-6.3529411h12c.5522847 0 1 .4477152 1 1v.117647c0 .5522848-.4477153 1-1 1h-12c-.5522847 0-1-.4477152-1-1v-.117647c0-.5522848.4477153-1 1-1zm0-6.3529412h12c.5522847 0 1 .4477152 1 1v.117647c0 .5522848-.4477153 1-1 1h-12c-.5522847 0-1-.4477152-1-1v-.117647c0-.5522848.4477153-1 1-1zm0 9.5294118h12c.5522847 0 1 .4477152 1 1v.117647c0 .5522848-.4477153 1-1 1h-12c-.5522847 0-1-.4477152-1-1v-.117647c0-.5522848.4477153-1 1-1zm0-6.3529412h12c.5522847 0 1 .4477152 1 1v.117647c0 .5522848-.4477153 1-1 1h-12c-.5522847 0-1-.4477152-1-1v-.117647c0-.5522848.4477153-1 1-1zm0-6.3529412h12c.5522847 0 1 .44771525 1 1v.11764706c0 .55228474-.4477153 1.00000004-1 1.00000004h-12c-.5522847 0-1-.4477153-1-1.00000004v-.11764706c0-.55228475.4477153-1 1-1z"/></g><path d="m107 8h23.5v12.5h-23.5z" fill="#f4b00e"/><path d="m72 7h18.5v7h-18.5z" fill="#f4b00e"/><path d="m52 7h23.5v4h-23.5z" fill="#f4b00e"/><path d="m32.5 8h23.5v12.5h-23.5z" fill="#f4b00e"/></g></g></g></svg>