<svg height="48" viewBox="0 0 48 48" width="48" xmlns="http://www.w3.org/2000/svg"><g fill="none" fill-rule="evenodd"><path d="m24 48c13.254834 0 24-10.745166 24-24s-10.745166-24-24-24-24 10.745166-24 24 10.745166 24 24 24z" fill="#fff"/><g transform="translate(4.8 4.8)"><path d="m0 0h38.4v38.4h-38.4z"/><path d="m12.816 10.08h12.048c1.1134061 0 2.016.9025939 2.016 2.016v16.128c0 1.1134061-.9025939 2.016-2.016 2.016h-12.048c-1.1134061 0-2.016-.9025939-2.016-2.016v-16.128c0-1.1134061.9025939-2.016 2.016-2.016zm1.5890262 2.688c-.5567031 0-1.008.451297-1.008 1.008v9.8112c0 .556703.4512969 1.008 1.008 1.008h8.85126c.556703 0 1.008-.451297 1.008-1.008v-9.8112c0-.556703-.451297-1.008-1.008-1.008zm4.4349738 16.128c.925077 0 1.675-.7220752 1.675-1.6128s-.749923-1.6128-1.675-1.6128-1.675.7220752-1.675 1.6128.749923 1.6128 1.675 1.6128z" fill="#555b67" transform="matrix(0 -1 1 0 -1.32 39)"/><path d="m28.4174602 13.3757253c1.5809016.2649731 3.3868638 1.0762801 5.4178866 2.4339212 3.0901314 2.0656041 4.9451908 6.266954 4.1917122 6.5544392s-2.5559438-2.362727-5.0664248-2.9183089c-1.6467115-.3644253-3.1611028-.3702919-4.543174-.0175996v3.6127244c-1.8294508-1.2625086-3.3430139-2.342918-4.5406891-3.2412283s-2.2765989-1.9379369-3.2367711-3.1188799c.9749239-1.5491514 2.1495274-2.8545718 3.5238106-3.9162613 1.3742831-1.0616894 2.7921664-1.9565335 4.2536496-2.6845321z" fill="#60d064" transform="matrix(-1 0 0 1 58.834684 0)"/></g></g></svg>