<svg height="48" viewBox="0 0 48 48" width="48" xmlns="http://www.w3.org/2000/svg"><g fill="none" fill-rule="evenodd"><rect fill="#fff" height="48" rx="24" width="48"/><g transform="translate(11.2 11.2)"><g fill-rule="nonzero"><path d="m13.3001662 13.4794154-.4531353-.0018363-.3212651-.3146485-.0001648-.4461639-8.525601-8.70746276c1.28311947-1.17127006 2.67936401-2.06464699 4.18873362-2.68013079 1.5093696-.6154838 3.13936598-.92725947 4.88998908-.935327l.2214435 12.00659795.3195649.3163226-.0001648.4461639z" fill="#59f35f"/><path d="m12.7696501 13.4711546-.3191165-.3217135-.0046786-.4496588.315369-.3156021.1285956-12.18561625c1.7355155.07908948 3.3545224.43467057 4.8570206 1.06674329 1.5024983.63207271 2.8755384 1.56419551 4.1191205 2.79636839l-8.3333626 8.64653097.0022927.4496404-.3156021.315369z" fill="#c2ff1d"/><path d="m12.102231 13.1646298.0018363-.4531353.3146485-.3212651.446164-.0001648 8.7074627-8.52560099c1.1712701 1.28311947 2.064647 2.679364 2.6801308 4.18873361s.9272595 3.13936598.935327 4.88998908l-12.006598.2214435-.3163225.3195649-.446164-.0001648z" fill="#fff000"/><path d="m12.0722882 12.5734496.3217135-.3191165.4496589-.0046787.315602.315369 12.1856163.1285957c-.0790895 1.7355155-.4346706 3.3545223-1.0667433 4.8570206-.6320727 1.5024982-1.5641955 2.8755384-2.7963684 4.1191205l-8.646531-8.3333627-.4496404.0022927-.315369-.315602z" fill="#fead6f"/><path d="m12.3195649 12.2092308.4531353.0018363.3212651.3146485.0001648.4461639 8.525601 8.7074628c-1.2831195 1.17127-2.679364 2.064647-4.1887336 2.6801308s-3.139366.9272594-4.8899891.935327l-.2214435-12.006598-.3195649-.3163226.0001648-.4461639z" fill="#fe6f7b"/><path d="m12.7685988 12.1603827.3191166.3217135.0046786.4496588-.315369.3156021-.1285956 12.1856163c-1.7355155-.0790895-3.35452239-.4346706-4.85702065-1.0667433-1.50249825-.6320727-2.87553842-1.5641955-4.11912051-2.7963684l8.33336266-8.646531-.0022927-.4496404.3156021-.315369z" fill="#635bab"/><path d="m13.1878003 12.4547978-.0018363.4531352-.3146485.3212651-.446164.0001648-8.7074627 8.525601c-1.17127006-1.2831194-2.06464699-2.679364-2.6801308-4.1887336-.6154838-1.5093696-.92725946-3.139366-.93532699-4.8899891l12.00659799-.2214434.3163225-.319565.446164.0001648z" fill="#3997ff"/><path d="m13.394892 12.994751-.3217135.3191165-.4496588.0046787-.3156021-.315369-12.18561627-.1285957c.07908947-1.7355155.43467057-3.35452234 1.06674328-4.85702059.63207272-1.50249826 1.56419552-2.87553843 2.7963684-4.11912052l8.64653099 8.33336271.4496404-.0022927.315369.315602z" fill="#00d8ff"/></g><path d="m12.543048 17.9280392c2.9508839 0 5.3430479-2.3381844 5.3430479-5.2224811 0-2.88429673-2.392164-5.22248118-5.3430479-5.22248118-2.95088394 0-5.343048 2.33818445-5.343048 5.22248118 0 2.8842967 2.39216406 5.2224811 5.343048 5.2224811z" fill="#555b67"/></g></g></svg>