<svg height="48" viewBox="0 0 48 48" width="48" xmlns="http://www.w3.org/2000/svg" xmlns:xlink="http://www.w3.org/1999/xlink"><defs><circle id="a" cx="11.2" cy="11.2" r="11.2"/><mask id="b" fill="#fff"><use fill="#fff" fill-rule="evenodd" xlink:href="#a"/></mask></defs><g fill="none" fill-rule="evenodd"><rect fill="#fff" height="48" rx="24" width="48"/><rect fill="#4585c4" height="6" rx=".8" width="1.6" x="23.6" y="10"/><g transform="translate(9.6 11.6)"><g transform="translate(3.6 2.4)"><use fill="#53d2ff" xlink:href="#a"/><path d="m21.9660672 17.6c-1.6365088 3.1182072-4.8239881 5.186269-9.8578968 5.186269-.1935657 0-.3844012-.0030578-.5725235-.0091156 2.2556749-.9768212 4.1112925-2.6789306 5.3408118-5.1771534z" fill="#30b4ff" mask="url(#b)"/><g fill="#4573c3"><path d="m10.4560317 17.6044859c-1.71988165 3.5397049-5.19473727 5.9385583-9.49355432 5.9385583-1.0735843 0-2.12799816-.149616-3.13755563-.4292532.94076919-1.5248748 1.62140903-3.359183 1.95371408-5.5093051z" mask="url(#b)" transform="matrix(-1 0 0 1 8.162478 0)"/><path d="m11.6176471 22.3415284v-4.7258082h3.0096877c-.0553552 1.7665535-1.4800869 4.1922832-3.0096877 4.7258082z" mask="url(#b)"/><path d="m8.42386837 4.55113441v-4.72580813h3.00968773c-.0553552 1.76655345-1.4800869 4.19228315-3.00968773 4.72580813z" mask="url(#b)" transform="matrix(-1 0 0 -1 19.859092 4.380176)"/></g></g><g transform="translate(3.6 2.4)"><path d="m-3.94026601 4.57633353h12.4v3.42503532h-12.4z" fill="#2dabf3"/><path d="m-2.8 11.2h11.2v3.2h-11.2z" fill="#4573c3"/><path d="m-6 14.4h11.2v3.2h-11.2z" fill="#2dabf3"/></g><path d="m12 10.4h3.2v3.2h-3.2z" fill="#2dabf3"/><path d="m18 9.06047003c.5963467-.17757899.9952701-.36893521 1.1967701-.57406868.2014999-.20513346.4117486-.63393391.6307458-1.28640135.1922494.68311992.3979856 1.13626785.6172084 1.3594438.2192229.22317594.6226587.39018468 1.2103075.50102623-.6315453.2326349-1.0626901.4601814-1.2934344.68263949-.2307442.22245809-.4087714.58220788-.5340815 1.07924938-.2115587-.6143803-.4218073-1.02228815-.6307458-1.22372355s-.6078619-.38082384-1.1967701-.53816532z" fill="#fff"/><path d="m21.6 11.4180322c.3263155-.0971696.5446027-.201878.6548616-.3141251.110259-.1122472.2253051-.3468829.3451384-.7039071.1051971.373797.2177741.6217554.3377308.7438752.1199568.1221199.3407132.2135055.6622692.274157-.3455758.1272957-.5814943.251807-.7077555.3735341-.1262611.121727-.223676.3185788-.2922445.5905554-.115763-.3361833-.2308091-.5593868-.3451384-.6696104-.1143292-.1102236-.3326164-.2083833-.6548616-.2944791z" fill="#fff"/><path d="m0 21.86047c.59634673-.177579.99527009-.3689352 1.19677006-.5740686.20149998-.2051335.41174859-.633934.63074585-1.2864014.19224941.6831199.39798556 1.1362679.61720843 1.3594438s.6226587.3901847 1.21030748.5010262c-.63154536.2326349-1.06269016.4601814-1.2934344.6826395s-.40877141.5822079-.53408151 1.0792494c-.21155874-.6143803-.42180736-1.0222882-.63074585-1.2237235-.20893849-.2014354-.60786184-.3808239-1.19677006-.5381654z" fill="#4573c4"/><path d="m2.8 1.86047003c.59634673-.17757899.99527009-.36893521 1.19677006-.57406868.20149998-.20513346.41174859-.63393391.63074585-1.28640135.19224941.68311992.39798556 1.13626785.61720843 1.3594438.21922287.22317594.6226587.39018468 1.21030748.50102623-.63154536.2326349-1.06269016.4601814-1.2934344.68263949s-.40877141.58220788-.53408151 1.07924935c-.21155874-.61438028-.42180736-1.02228812-.63074585-1.22372352s-.60786184-.38082384-1.19677006-.53816532z" fill="#48c9f6"/><path d="m27.6 12.26047c.5963467-.177579.9952701-.3689352 1.1967701-.5740686.2014999-.2051335.4117486-.633934.6307458-1.2864014.1922494.6831199.3979856 1.1362679.6172084 1.3594438.2192229.2231759.6226587.3901847 1.2103075.5010262-.6315453.2326349-1.0626901.4601814-1.2934344.6826395-.2307442.2224581-.4087714.5822079-.5340815 1.0792494-.2115587-.6143803-.4218073-1.0222882-.6307458-1.2237235-.2089385-.2014354-.6078619-.3808239-1.1967701-.5381654z" fill="#48c9f6"/><path d="m15.2 13.6h3.2v3.2h-3.2z" fill="#4573c3"/><path d="m12 16.8h3.2v3.2h-3.2z" fill="#2dabf3"/></g></g></svg>