<svg height="48" viewBox="0 0 48 48" width="48" xmlns="http://www.w3.org/2000/svg"><g fill="none" fill-rule="evenodd"><rect fill="#7fd982" fill-rule="nonzero" height="48" rx="12" width="48"/><g transform="matrix(0 -1 1 0 10.285714 32.571429)"><path d="m11.6323584 26.8226915c-6.44477823-.9389761-11.39426316-6.488158-11.39426316-13.193354 0-6.70519601 4.94948493-12.2543779 11.39426316-13.19335394zm3.8781404-26.38670794c6.4447782.93897604 11.3942631 6.48815793 11.3942631 13.19335394 0 6.705196-4.9494849 12.2543779-11.3942631 13.193354z" fill="#61be77"/><circle cx="13.571429" cy="13.714286" fill="#297156" r="9.777778"/><path d="m16.4444444 9.2911967c1.3458388.9681584 2.2222223 2.5479352 2.2222223 4.3324023 0 1.7844672-.8763835 3.364244-2.2222223 4.3324024v11.2231532h-6.2222222v-11.2231532c-1.34583876-.9681584-2.2222222-2.5479352-2.2222222-4.3324024 0-1.7844671.87638344-3.3642439 2.2222222-4.3324023v-10.33426433h6.2222222z" fill="#7fd982" transform="translate(.238095 .220884)"/></g><path d="m5.98136646 17.1242236c-1.64656323 0-2.98136646-1.3348032-2.98136646-2.9813665 0-1.6465632 1.33480323-2.9813664 2.98136646-2.9813664s2.98136646 1.3348032 2.98136646 2.9813664c0 1.6465633-1.33480323 2.9813665-2.98136646 2.9813665zm36.03726704 0c-1.6465632 0-2.9813664-1.3348032-2.9813664-2.9813665 0-1.6465632 1.3348032-2.9813664 2.9813664-2.9813664 1.6465633 0 2.9813665 1.3348032 2.9813665 2.9813664 0 1.6465633-1.3348032 2.9813665-2.9813665 2.9813665zm-36.03726704 9.0186335c-1.64656323 0-2.98136646-1.3348032-2.98136646-2.9813664s1.33480323-2.9813665 2.98136646-2.9813665 2.98136646 1.3348033 2.98136646 2.9813665-1.33480323 2.9813664-2.98136646 2.9813664zm36.03726704 0c-1.6465632 0-2.9813664-1.3348032-2.9813664-2.9813664s1.3348032-2.9813665 2.9813664-2.9813665c1.6465633 0 2.9813665 1.3348033 2.9813665 2.9813665s-1.3348032 2.9813664-2.9813665 2.9813664z" fill="#61be77"/><g transform="matrix(0 -1 1 0 0 48)"><path d="m12 0h1.3v48h-1.3c-6.627417 0-12-5.372583-12-12v-24c0-6.627417 5.372583-12 12-12z" fill="#f5f9fa"/><g fill="#bdc9d0" transform="translate(3.857143 12.428571)"><path d="m.57142857 2.38095238h4.66666667c1.47275933 0 2.66666666 1.19390733 2.66666666 2.66666667 0 1.47275933-1.19390733 2.66666666-2.66666666 2.66666666h-4.66666667c-1.47275933 0-2.66666667-1.19390733-2.66666667-2.66666666 0-1.47275934 1.19390734-2.66666667 2.66666667-2.66666667z" transform="matrix(0 1 -1 0 7.952381 2.142857)"/><path d="m.45952381 15.8190943h4.66666667c1.47275933 0 2.66666666 1.1939074 2.66666666 2.6666667 0 1.4727593-1.19390733 2.6666666-2.66666666 2.6666666h-4.66666667c-1.47275933 0-2.66666667-1.1939073-2.66666667-2.6666666 0-1.4727593 1.19390734-2.6666667 2.66666667-2.6666667z" transform="matrix(0 1 -1 0 21.278618 15.692904)"/></g></g></g></svg>