<svg height="48" viewBox="0 0 48 48" width="48" xmlns="http://www.w3.org/2000/svg"><g fill="none" fill-rule="evenodd"><rect fill="#f5f9fa" fill-rule="nonzero" height="48" rx="11.815385" width="48"/><path d="m14.9813665 12.3913043c-1.6465633 0-2.9813665-1.3348032-2.9813665-2.98136641 0-1.64656323 1.3348032-2.98136646 2.9813665-2.98136646 1.6465632 0 2.9813664 1.33480323 2.9813664 2.98136646 0 1.64656321-1.3348032 2.98136641-2.9813664 2.98136641zm0 9.0186336c-1.6465633 0-2.9813665-1.3348032-2.9813665-2.9813665 0-1.6465632 1.3348032-2.9813664 2.9813665-2.9813664 1.6465632 0 2.9813664 1.3348032 2.9813664 2.9813664 0 1.6465633-1.3348032 2.9813665-2.9813664 2.9813665zm18.037267 0c-1.6465632 0-2.9813664-1.3348032-2.9813664-2.9813665 0-1.6465632 1.3348032-2.9813664 2.9813664-2.9813664 1.6465633 0 2.9813665 1.3348032 2.9813665 2.9813664 0 1.6465633-1.3348032 2.9813665-2.9813665 2.9813665zm-9.0186335-9.0186336c-1.6465632 0-2.9813665-1.3348032-2.9813665-2.98136641 0-1.64656323 1.3348033-2.98136646 2.9813665-2.98136646s2.9813665 1.33480323 2.9813665 2.98136646c0 1.64656321-1.3348033 2.98136641-2.9813665 2.98136641zm12-2.98136641c0 1.64656321-1.3348032 2.98136641-2.9813665 2.98136641-1.6465632 0-2.9813664-1.3348032-2.9813664-2.98136641 0-1.64656323 1.3348032-2.98136646 2.9813664-2.98136646 1.6465633 0 2.9813665 1.33480323 2.9813665 2.98136646zm-21.0186335 21.01863351c-1.6465633 0-2.9813665-1.3348032-2.9813665-2.9813664 0-1.6465633 1.3348032-2.9813665 2.9813665-2.9813665 1.6465632 0 2.9813664 1.3348032 2.9813664 2.9813665 0 1.6465632-1.3348032 2.9813664-2.9813664 2.9813664zm9.0186335 0c-1.6465632 0-2.9813665-1.3348032-2.9813665-2.9813664 0-1.6465633 1.3348033-2.9813665 2.9813665-2.9813665s2.9813665 1.3348032 2.9813665 2.9813665c0 1.6465632-1.3348033 2.9813664-2.9813665 2.9813664zm9.0186335 0c-1.6465632 0-2.9813664-1.3348032-2.9813664-2.9813664 0-1.6465633 1.3348032-2.9813665 2.9813664-2.9813665 1.6465633 0 2.9813665 1.3348032 2.9813665 2.9813665 0 1.6465632-1.3348032 2.9813664-2.9813665 2.9813664z" fill="#d0dbe1"/><g transform="matrix(0 -1 1 0 0 48)"><path d="m12 0h9-7.7zm9 48h-7.7-1.3zm-15.12702481-1.6799112c-3.51664177-2.0923284-5.87297519-5.931033-5.87297519-10.3200888v-24c0-4.38905015 2.35632736-8.22775056 5.87296162-10.32008077v3.92969887c0 .94677386.76751186 1.71428572 1.71428571 1.71428572h4.41275267v33.82743988l-4.41269841.0000136c-.94676856 0-1.71427822.7675036-1.71428572 1.7142721l-.0000365 3.4544619z" fill="#efa606"/><rect fill="#bd7633" height="5.333333" rx="2.666667" transform="matrix(0 1 -1 0 30.666667 17.523809)" width="16" x="-1.428571" y="21.428571"/></g></g></svg>