<svg height="48" viewBox="0 0 48 48" width="48" xmlns="http://www.w3.org/2000/svg" xmlns:xlink="http://www.w3.org/1999/xlink"><defs><rect id="a" height="43.285714" rx="10.633846" width="43.145631"/><path id="b" d="m17.9323718-5.34859861h20.0388349v4.68652842l-4.6900329 3.2805699v3.28056989 10.4800153 14.996891-1.4059585l4.6900329 3.2805699v4.6865284h-20.0388349c-6.627417 0-12-5.372583-12-12v-19.28571431c0-6.627417 5.372583-12 12-12z"/><path id="c" d="m7.24811307.05356168c3.78762843 0 6.85810793 3.06114152 6.85810793 6.8632859v17.02638172c0 3.7904882-3.0781866 6.8632859-6.85810793 6.8632859-3.7876284 0-6.85810789-3.0611415-6.85810789-6.8632859v-17.02638172c0-3.79048814 3.07818655-6.8632859 6.85810789-6.8632859z"/><mask id="d" fill="#fff"><use fill="#fff" fill-rule="evenodd" xlink:href="#a"/></mask><mask id="e" fill="#fff"><use fill="#fff" fill-rule="evenodd" xlink:href="#b"/></mask><mask id="f" fill="#fff"><use fill="#fff" fill-rule="evenodd" xlink:href="#c"/></mask></defs><g fill="none" fill-rule="evenodd" transform="translate(2)"><g transform="translate(.427184)"><use fill="#78859d" fill-rule="nonzero" xlink:href="#a"/><g mask="url(#d)"><g transform="translate(-.427184 11.396966)"><use fill="#dee4e8" fill-rule="evenodd" transform="matrix(0 -1 1 0 5.65753 38.246048)" xlink:href="#b"/><path d="m16.8737864 4.78162562h9.8252427v45.42857148h-9.8252427z" fill="#bdc9d0" fill-rule="nonzero" mask="url(#e)" transform="matrix(0 -1 1 0 -5.709503 49.282319)"/></g></g></g><rect fill="#55647f" height="3.428571" rx="1.714286" width="18.796117" x="13.242718" y="7.714286"/><g fill="#b4c1d6" transform="matrix(0 -1 1 0 11.926491 42.42025)"><rect height="2.571429" rx="1.285714" width="5.126214"/><rect height="2.571429" rx="1.285714" width="5.126214" y="4.714286"/><rect height="2.571429" rx="1.285714" width="5.126214" y="9.428571"/><rect height="2.571429" rx="1.285714" width="5.126214" y="14.142857"/><rect height="2.571429" rx="1.285714" width="5.126214" y="18.857143"/></g><g transform="matrix(0 -1 1 0 6.601635 47.951951)"><path d="m7.24811307.18258948h8.09847433c3.077015 0 5.5714286 2.49441354 5.5714286 5.57142857v19.71233265c0 3.0770151-2.4944136 5.5714286-5.5714286 5.5714286h-8.09847433z" fill="#f5f9fa"/><g transform="translate(0 .181122)"><use fill="#78859d" xlink:href="#c"/><g fill="#44526c"><rect height="30" mask="url(#f)" rx=".857143" width="2.563107" x="7.675298" y=".001467"/><rect height="30" mask="url(#f)" rx=".857143" width="2.563107" x="3.830637" y=".85861"/></g></g></g></g></svg>