<svg height="48" viewBox="0 0 48 48" width="48" xmlns="http://www.w3.org/2000/svg" xmlns:xlink="http://www.w3.org/1999/xlink"><defs><rect id="a" height="43.285714" rx="10.539741" width="43"/><path id="b" d="m17.4284588-5.39696587h20.0368877v4.68652842l-4.6742025 3.2805699v3.28056989 10.48001536 14.9968909-1.4059585l4.6742025 3.2805699v4.6865284h-20.0368877c-6.5687673 0-11.89380533-5.325038-11.89380533-11.8938053v-19.49810366c0-6.56876729 5.32503803-11.89380531 11.89380533-11.89380531z"/><path id="c" d="m7.22364825.10546248c3.78762835 0 6.85810785 3.07908706 6.85810785 6.85918547v16.93078105c0 3.7882235-3.0781865 6.8591854-6.85810785 6.8591854-3.78762841 0-6.8581079-3.079087-6.8581079-6.8591854v-16.93078105c0-3.78822353 3.07818656-6.85918547 6.8581079-6.85918547z"/><mask id="d" fill="#fff"><use fill="#fff" fill-rule="evenodd" xlink:href="#a"/></mask><mask id="e" fill="#fff"><use fill="#fff" fill-rule="evenodd" xlink:href="#b"/></mask><mask id="f" fill="#fff"><use fill="#fff" fill-rule="evenodd" xlink:href="#c"/></mask></defs><g fill="none" fill-rule="evenodd" transform="translate(2)"><use fill="#78859d" fill-rule="nonzero" xlink:href="#a"/><g mask="url(#d)"><g transform="translate(0 11.396966)"><use fill="#dee4e8" fill-rule="evenodd" transform="matrix(0 -1 1 0 5.254109 37.745891)" xlink:href="#b"/><path d="m16.3910891 4.78162562h9.7920792v45.42857148h-9.7920792z" fill="#bdc9d0" fill-rule="nonzero" mask="url(#e)" transform="matrix(0 -1 1 0 -6.208782 48.78304)"/></g></g><rect fill="#55647f" height="3.428571" rx="1.714286" width="18.732673" x="12.772277" y="7.714286"/><g fill="#b4c1d6" transform="matrix(0 -1 1 0 11.424328 42.411599)"><rect height="2.571429" rx="1.285714" width="5.108911"/><rect height="2.571429" rx="1.285714" width="5.108911" y="4.714286"/><rect height="2.571429" rx="1.285714" width="5.108911" y="9.428571"/><rect height="2.571429" rx="1.285714" width="5.108911" y="14.142857"/><rect height="2.571429" rx="1.285714" width="5.108911" y="18.857143"/></g><g transform="matrix(0 -1 1 0 6.100087 47.916625)"><path d="m7.22364825.18258948h8.10163845c3.0497848 0 5.5221239 2.47233908 5.5221239 5.52212389v19.81094203c0 3.0497848-2.4723391 5.5221239-5.5221239 5.5221239h-8.10163845z" fill="#f5f9fa"/><g transform="translate(0 .181122)"><use fill="#78859d" xlink:href="#c"/><g fill="#44526c"><path d="m4.6691928 6.41487749c0-.46501376.38399867-.84198189.84363273-.84198189h3.42164543c.46592549 0 .84363273.37942314.84363273.84198189v.88746479c0 .46501376-.38399867.84198189-.84363273.84198189h-3.42164543c-.46592549 0-.84363273-.37942314-.84363273-.84198189z" mask="url(#f)" transform="matrix(-1 0 0 -1 14.447296 13.71722)"/><path d="m4.6691928 10.7005918c0-.4650138.38399867-.84198191.84363273-.84198191h3.42164543c.46592549 0 .84363273.37942311.84363273.84198191v.8874648c0 .4650137-.38399867.8419819-.84363273.8419819h-3.42164543c-.46592549 0-.84363273-.3794232-.84363273-.8419819z" mask="url(#f)" transform="matrix(-1 0 0 -1 14.447296 22.288648)"/><path d="m4.6691928 14.9863061c0-.4650138.38399867-.8419819.84363273-.8419819h3.42164543c.46592549 0 .84363273.3794231.84363273.8419819v.8874648c0 .4650137-.38399867.8419818-.84363273.8419818h-3.42164543c-.46592549 0-.84363273-.3794231-.84363273-.8419818z" mask="url(#f)" transform="matrix(-1 0 0 -1 14.447296 30.860076)"/><path d="m4.6691928 19.2720203c0-.4650137.38399867-.8419818.84363273-.8419818h3.42164543c.46592549 0 .84363273.3794231.84363273.8419818v.8874648c0 .4650138-.38399867.8419819-.84363273.8419819h-3.42164543c-.46592549 0-.84363273-.3794231-.84363273-.8419819z" mask="url(#f)" transform="matrix(-1 0 0 -1 14.447296 39.431506)"/><path d="m4.6691928 23.5577346c0-.4650137.38399867-.8419819.84363273-.8419819h3.42164543c.46592549 0 .84363273.3794232.84363273.8419819v.8874648c0 .4650138-.38399867.8419819-.84363273.8419819h-3.42164543c-.46592549 0-.84363273-.3794231-.84363273-.8419819z" mask="url(#f)" transform="matrix(-1 0 0 -1 14.447296 48.002934)"/></g></g></g></g></svg>