<svg height="48" viewBox="0 0 48 48" width="48" xmlns="http://www.w3.org/2000/svg" xmlns:xlink="http://www.w3.org/1999/xlink"><defs><rect id="a" height="48" rx="24" width="48"/><path id="b" d="m16.4609053 32.6953306c9.091107 0 16.4609054-7.3190991 16.4609054-16.3476653 0-9.02856625-7.3697984-16.3476653-16.4609054-16.3476653-9.09110694 0-16.4609053 7.31909905-16.4609053 16.3476653 0 9.0285662 7.36979836 16.3476653 16.4609053 16.3476653z"/><mask id="c" fill="#fff"><use fill="#fff" fill-rule="evenodd" xlink:href="#a"/></mask><mask id="d" fill="#fff"><use fill="#fff" fill-rule="evenodd" xlink:href="#b"/></mask></defs><g fill="none" fill-rule="evenodd"><use fill="#37bae4" fill-rule="nonzero" xlink:href="#a"/><path d="m-1.714286 23.142857h24.857143v1.714286h-24.857143z" fill="#0079ae" fill-rule="nonzero" mask="url(#c)" opacity=".545647"/><g mask="url(#c)"><g transform="translate(2.142857 2.142857)"><g fill="none" transform="matrix(.92387953 .38268343 -.38268343 .92387953 13.098105 .25929)"><use fill="#f3fbff" xlink:href="#b"/><g stroke="#929aa8" stroke-linecap="square" stroke-width=".578313"><g mask="url(#d)" opacity=".481641"><path d="m.3657979 32.514338v-32.514338" transform="translate(16.095107)"/></g><g mask="url(#d)" opacity=".481641"><path d="m.3657979 32.514338v-32.514338" transform="matrix(0 1 -1 0 32.806973 15.981534)"/></g><g mask="url(#d)" opacity=".481641"><path d="m.3657979 32.514338v-32.514338" transform="matrix(.70710678 .70710678 -.70710678 .70710678 27.760662 4.529227)"/></g><g mask="url(#d)" opacity=".481641"><path d="m.3657979 32.514338v-32.514338" transform="matrix(-.70710678 .70710678 -.70710678 -.70710678 28.277978 27.648317)"/></g></g></g><path d="m22.11699 30.7996301c5.0001089 0 9.0534979-4.0255044 9.0534979-8.9912159 0-4.9657114-4.053389-8.9912159-9.0534979-8.9912159-5.0001088 0-9.0534979 4.0255045-9.0534979 8.9912159 0 4.9657115 4.0533891 8.9912159 9.0534979 8.9912159z" fill="#555b67"/></g></g><rect fill="#0079ae" height="5.333333" mask="url(#c)" rx="2.666667" transform="matrix(-1 0 0 -1 47.714286 94.47619)" width="16" x="15.857143" y="44.571429"/></g></svg>