<svg height="48" viewBox="0 0 48 48" width="48" xmlns="http://www.w3.org/2000/svg" xmlns:xlink="http://www.w3.org/1999/xlink"><defs><path id="a" d="m12 0h15.4285714c6.627417 0 12 5.372583 12 12v23.1428571c0 3.7870955-3.0700474 6.8571429-6.8571428 6.8571429h-25.71428574c-3.78709543 0-6.85714286-3.0700474-6.85714286-6.8571429v-23.1428571c0-6.627417 5.372583-12 12-12z"/><mask id="b" fill="#fff"><use fill="#fff" fill-rule="evenodd" xlink:href="#a"/></mask></defs><g fill="none" fill-rule="evenodd"><g transform="translate(4.285714)"><use fill="#78859d" fill-rule="nonzero" xlink:href="#a"/><rect fill="#495874" fill-rule="nonzero" height="3.428571" mask="url(#b)" opacity=".71865" rx="1.714286" transform="matrix(0 1 -1 0 29.142857 -10.285715)" width="18.857143" x="10.285714" y="7.714286"/><g mask="url(#b)"><g transform="matrix(0 -1 1 0 0 48.000001)"><path d="m12 0h24.4428571v4.28571429l-4.2857142 3v3.00000001 9.4285714 13.7142857-1.2857143l4.2857142 3v4.2857143h-24.4428571c-6.627417 0-12-5.372583-12-12v-15.4285714c0-6.627417 5.372583-12 12-12z" fill="#d7dde0" fill-rule="evenodd"/><path d="m5.14285714 0h9.85714286v39.4285714h-9.85714286z" fill="#bdc9d0" fill-rule="nonzero"/></g></g></g><g fill-rule="nonzero"><path d="m11.1428571 20.5714286c6.1540301 0 11.1428572 4.988827 11.1428572 11.1428571v6.4285714c0 5.4439497-4.4131932 9.8571429-9.8571429 9.8571429h-2.57142854c-5.44394968 0-9.85714286-4.4131932-9.85714286-9.8571429v-6.4285714c0-6.1540301 4.98882707-11.1428571 11.1428571-11.1428571z" fill="#f5f9fa"/><path d="m36.8571429 20.5714286c6.15403 0 11.1428571 4.988827 11.1428571 11.1428571v6.4285714c0 5.4439497-4.4131932 9.8571429-9.8571429 9.8571429h-2.5714285c-5.4439497 0-9.8571429-4.4131932-9.8571429-9.8571429v-6.4285714c0-6.1540301 4.9888271-11.1428571 11.1428572-11.1428571z" fill="#f5f9fa"/><rect fill="#5e6d8a" height="13.714286" rx="6.857143" width="17.142857" x="28.285714" y="34.285714"/><rect fill="#5e6d8a" height="13.714286" rx="6.857143" width="17.142857" x="2.571429" y="34.285714"/></g></g></svg>