<svg height="48" viewBox="0 0 48 48" width="48" xmlns="http://www.w3.org/2000/svg"><g fill="none" fill-rule="evenodd"><path d="m24 48c13.254834 0 24-10.745166 24-24s-10.745166-24-24-24-24 10.745166-24 24 10.745166 24 24 24z" fill="#fff"/><g transform="translate(11.635943 15.872957)"><path d="m.01257143 8.656 2.99885714-1.71428571 5.44571429 2.07428571s10.51085714-6.30742857 13.45485714-8.04342857c2.544-1.49942857 4.8777143-.97485714 5.3108571-.24685714.512.86057142.1497143 2.704-2.944 4.67428571-2.4754285 1.57714286-10.552 6.6914286-10.552 6.6914286-5.6788571 3.0948571-8.64571424.7508571-8.64571424.7508571z" fill="#5e8eee"/><path d="m20.8571429 18.1428571c0 .6311826-.5116746 1.1428572-1.1428572 1.1428572h-14.57142856c-.63118257 0-1.14285714-.5116746-1.14285714-1.1428572 0-.6311825.51167457-1.1428571 1.14285714-1.1428571h14.57142856c.6311826 0 1.1428572.5116746 1.1428572 1.1428571z" fill="#929aa8"/><path d="m6.39771429 1.08914286-2.96914286 1.71428571 7.14514287 3.62628572 6.1577143-3.688z" fill="#68bcff"/></g></g></svg>