<svg height="48" viewBox="0 0 48 48" width="48" xmlns="http://www.w3.org/2000/svg"><g fill="none" fill-rule="evenodd"><path d="m24 48c13.254834 0 24-10.745166 24-24s-10.745166-24-24-24-24 10.745166-24 24 10.745166 24 24 24z" fill="#fff"/><g transform="translate(8 12)"><path d="m8.47778532 22.3303586c1.76888108 0 3.20284248-1.5238033 3.20284248-3.4035101 0-1.8797067-1.4339614-3.4035101-3.20284248-3.4035101-1.76888104 0-3.20284245 1.5238034-3.20284245 3.4035101 0 1.8797068 1.43396141 3.4035101 3.20284245 3.4035101z" fill="#354c6e"/><path d="m3.68871693 7.51289188c1.80727661 0 3.27236377-1.55687927 3.27236377-3.47738717 0-1.92050789-1.46508716-3.47738716-3.27236377-3.47738716-1.8072766 0-3.27236376 1.55687927-3.27236376 3.47738716 0 1.9205079 1.46508716 3.47738717 3.27236376 3.47738717z" fill="#354c6e" transform="translate(19.304482 14.887632)"/><path d="m26.8069938 17.6970431c-.2001767-2.3731123-2.0766486-4.233115-4.361934-4.233115-2.3816869 0-4.3193423 2.0202355-4.3782228 4.5360719h-5.7463928c-.0588805-2.5158364-1.9965359-4.5360719-4.37822275-4.5360719-2.307579 0-4.19832939 1.8964694-4.36731266 4.3027113-2.0212557-.6414769-3.48587548-2.533018-3.48587548-4.7666394 0-2.7614237 2.23857625-5 5-5h1.05492877c.49744429-4.49995046 4.31251762-8 8.94507122-8 4.6325537 0 8.4476269 3.50004954 8.9450712 8h1.0549288c2.7614238 0 5 2.2385763 5 5 0 2.1578157-1.3668929 3.9963765-3.2820395 4.6970431z" fill="#fe6f7b" transform="translate(.503937 .671466)"/></g></g></svg>