<svg height="48" viewBox="0 0 48 48" width="48" xmlns="http://www.w3.org/2000/svg" xmlns:xlink="http://www.w3.org/1999/xlink"><defs><path id="a" d="m4.49377965 0h12.29097315c2.481846 0 4.4937797 2.01193368 4.4937797 4.49377965v12.90478625c0 2.481846-2.0119337 4.4937797-4.4937797 4.4937797h-12.29097315c-2.48184597 0-4.49377965-2.0119337-4.49377965-4.4937797v-12.90478625c0-2.48184597 2.01193368-4.49377965 4.49377965-4.49377965zm2.39804374 3.94769126c-1.51038055 0-2.7347859 1.22440536-2.7347859 2.7347859v4.97685674c0 1.5103806 1.22440535 2.7347859 2.7347859 2.7347859h7.98542821c1.5103805 0 2.7347859-1.2244053 2.7347859-2.7347859v-4.97685674c0-1.51038054-1.2244054-2.7347859-2.7347859-2.7347859z"/><mask id="b" fill="#fff"><use fill="#fff" fill-rule="evenodd" xlink:href="#a"/></mask></defs><g fill="none" fill-rule="evenodd"><path d="m24 48c13.254834 0 24-10.745166 24-24s-10.745166-24-24-24-24 10.745166-24 24 10.745166 24 24 24z" fill="#fff"/><g transform="translate(13.217323 13.13333)"><path d="m15.3898574 20.3705357h3.2116835l-3.5033598 3.9647823h-3.2116834z" fill="#354c6e" fill-rule="nonzero" transform="matrix(-1 0 0 1 30.488038 0)"/><path d="m5.43526213 20.3705357h3.28935652l-2.84776213 4.0666048h-3.28935652z" fill="#354c6e" fill-rule="nonzero"/><use fill="#60d097" xlink:href="#a"/><g fill="#fed948" mask="url(#b)"><g transform="translate(3.700614 15.705378)"><ellipse cx="1.850307" cy="1.903682" rx="1.850307" ry="1.903682"/><ellipse cx="12.026997" cy="1.903682" rx="1.850307" ry="1.903682"/></g></g></g></g></svg>