<svg height="48" viewBox="0 0 48 48" width="48" xmlns="http://www.w3.org/2000/svg"><g fill="none" fill-rule="evenodd"><path d="m24 48c13.254834 0 24-10.745166 24-24s-10.745166-24-24-24-24 10.745166-24 24 10.745166 24 24 24z" fill="#fff"/><g transform="translate(11.748031 11.551181)"><ellipse cx="19.125" cy="5.912259" fill="#354c6e" rx="5.84375" ry="5.912259" transform="translate(.430856 12.235273)"/><ellipse cx="5.019685" cy="6.672283" fill="#354c6e" rx="5.019685" ry="5.078533" transform="translate(.430856 12.235273)"/><path d="m11.8726101 10.4697209 4.4082861-2.51804317-.5599245-3.98406937h-1.2455198c-.8806957 0-1.5946407-.71394498-1.5946407-1.59464074 0-.88069575.713945-1.59464073 1.5946407-1.59464073h2.2719642c.078185 0 .1550557.00562678.2302295.01649747.9213445-.12904439 1.7730391.51299264 1.9025313 1.4343776l1.9669712 13.99572714c.1295298.9216525-.5126125 1.7738041-1.434265 1.9033339s-1.7738041-.5126125-1.903334-1.434265l-.7014614-4.9911578-4.4790279 2.5584514c-.0748223.042739-.1513411.0798006-.2290573.1113199-.8486886.3830748-1.865589.0890918-2.37271509-.714508l-4.35341963-6.89849552h-.61325258c-1.03818708 0-1.87980399-.84161691-1.87980399-1.87980399s.84161691-1.87980399 1.87980399-1.87980399h3.6889074c1.03818707 0 1.879804.84161691 1.879804 1.87980399 0 .70088843-.38358447 1.31218591-.952276 1.63541506z" fill="#7a89ed"/></g></g></svg>