<svg height="48" viewBox="0 0 48 48" width="48" xmlns="http://www.w3.org/2000/svg"><g fill="none" fill-rule="evenodd"><path d="m24 48c13.254834 0 24-10.745166 24-24s-10.745166-24-24-24-24 10.745166-24 24 10.745166 24 24 24z" fill="#fff"/><path d="m12.7229142 9.04412149c0 2.23478401-1.7284923 4.04533621-3.86200556 4.04533621-2.13238495 0-3.86090864-1.8105851-3.86090864-4.04533621 0-2.23356926 1.72852369-4.04412149 3.86090864-4.04412149 2.13351326 0 3.86200556 1.81055223 3.86200556 4.04412149zm5.2127125-2.02138773c0 1.11734274-.8642619 2.02263528-1.9310185 2.02263528-1.0667253 0-1.9309871-.90525971-1.9309871-2.02263528 0-1.1174084.8642618-2.02270093 1.9309871-2.02270093 1.0667566 0 1.9310185.90529253 1.9310185 2.02270093zm5.5984272.50473137c0 1.1174084-.8642305 2.02270093-1.9309871 2.02270093s-1.9310185-.90529253-1.9310185-2.02270093.8642619-2.0226681 1.9310185-2.0226681c1.0667566-.00003283 1.9309871.9052597 1.9309871 2.0226681zm.3704083 6.23787827c.3799303.7049962.5955378 1.5116348.5955378 2.3686312v8c0 2.7614237-2.2385763 5-5 5s-5-2.2385763-5-5v-4.2000345c-1.2144467-.9122064-2-2.3645484-2-4.0003662 0-2.7614238 2.2385763-5 5-5h1.8977688c1.9845666 0 3.6990856 1.156211 4.5066934 2.8317695zm4.1669664-3.6085411c0 1.1174084-.8642619 2.0226681-1.9310185 2.0226681s-1.9309871-.9052597-1.9309871-2.0226681c0-1.11740836.8642305-2.02266806 1.9309871-2.02266806 1.0667253 0 1.9310185.90529253 1.9310185 2.02266806z" fill="#f5c400" transform="matrix(-.8660254 .5 .5 .8660254 31.322569 1.056565)"/></g></svg>