<svg height="48" viewBox="0 0 48 48" width="48" xmlns="http://www.w3.org/2000/svg"><g fill="none" fill-rule="evenodd"><path d="m24 48c13.254834 0 24-10.745166 24-24s-10.745166-24-24-24-24 10.745166-24 24 10.745166 24 24 24z" fill="#fff"/><path d="m16.0253906 23.8808594c0-1.6536541.0488277-2.7604139.1464844-3.3203125.1041672-.5598987.2636708-1.0123681.4785156-1.3574219.3450538-.6575554.8984337-1.243487 1.6601563-1.7578125.7487016-.5208359 1.6829371-.7877604 2.8027343-.8007813 1.1328182.0130209 2.0768192.2799454 2.8320313.8007813.7487017.5143255 1.2890608 1.1002571 1.6210937 1.7578125.2408867.3450538.4069006.7975232.4980469 1.3574219.0846359.5598986.1269531 1.6666584.1269531 3.3203125 0 1.6276123-.0423172 2.7278617-.1269531 3.3007812-.0911463.5729196-.2571602 1.0318993-.4980469 1.3769532-.3320329.6575553-.872392 1.2369766-1.6210937 1.7382812-.7552121.5208359-1.6992131.7942707-2.8320313.8203125-1.1197972-.0260418-2.0540327-.2994766-2.8027343-.8203125-.7617226-.5013046-1.3151025-1.0807259-1.6601563-1.7382812-.1041672-.2148449-.1985673-.4199209-.2832031-.6152344-.0781254-.201824-.1432289-.4557277-.1953125-.7617188-.0976567-.5729195-.1464844-1.6731689-.1464844-3.3007812zm2.1679688 0c0 1.3997466.0520828 2.3470027.15625 2.8417968.0911463.4947942.2766913.8951808.5566406 1.2011719.2278657.2929702.5273419.5305981.8984375.7128907.3645852.2148448.8007787.3222656 1.3085937.3222656.5143255 0 .9602846-.1074208 1.3378907-.3222656.3580747-.1822926.6445302-.4199205.859375-.7128907.2799493-.3059911.4720047-.7063777.5761719-1.2011719.0976567-.4947941.1464843-1.4420502.1464843-2.8417968s-.0488276-2.3535131-.1464843-2.8613282c-.1041672-.4817732-.2962226-.8756495-.5761719-1.1816406-.2148448-.2929702-.5013003-.5371084-.859375-.7324218-.3776061-.1888031-.8235652-.2897135-1.3378907-.3027344-.507815.0130209-.9440085.1139313-1.3085937.3027344-.3710956.1953134-.6705718.4394516-.8984375.7324218-.2799493.3059911-.4654943.6998674-.5566406 1.1816406-.1041672.5078151-.15625 1.4615816-.15625 2.8613282zm9.3320312-3.0175782h2.0410156v1.0742188h.0390626c.6705762-.8007853 1.5494737-1.2011719 2.6367187-1.2011719.8138062.0130209 1.5234345.273435 2.1289063.78125l-1.484375 1.7675781c-.4296897-.3385433-.8756488-.5078124-1.3378907-.5078124-.5208359 0-.966795.1692691-1.3378906.5078124-.4166687.332033-.6315104.869137-.6445313 1.6113282v6.1035156h-2.0410156z" fill="#48c9f6"/></g></svg>