<svg height="48" viewBox="0 0 48 48" width="48" xmlns="http://www.w3.org/2000/svg"><g fill="none" fill-rule="evenodd"><path d="m24 48c13.254834 0 24-10.745166 24-24s-10.745166-24-24-24-24 10.745166-24 24 10.745166 24 24 24z" fill="#fff"/><path d="m31.7529297 28.015625c-.3125016 1.3216212-.9081987 2.337236-1.7871094 3.046875-.9049524.7031285-1.9759053 1.0546875-3.2128906 1.0546875-1.1197973-.0260418-2.0540327-.2994766-2.8027344-.8203125-.7617225-.5013046-1.3151024-1.0807259-1.6601562-1.7382812-.1041672-.2148449-.1985673-.4199209-.2832032-.6152344-.0781254-.201824-.1432289-.4557277-.1953125-.7617188-.0976567-.5729195-.1464843-1.6731689-.1464843-3.3007812 0-1.6536541.0488276-2.7604139.1464843-3.3203125.1041672-.5598987.2636708-1.0123681.4785157-1.3574219.3450538-.6575554.8984337-1.243487 1.6601562-1.7578125.7487017-.5208359 1.6829371-.7877604 2.8027344-.8007813 1.3737048.0130209 2.4934852.4199179 3.359375 1.2207032.8658897.8072957 1.4127593 1.8066346 1.640625 2.9980468h-2.2851563c-.1757821-.5729195-.4947893-1.0611958-.9570312-1.4648437-.4817733-.3841165-1.0677049-.5826822-1.7578125-.5957031-.5078151.0130209-.9440086.1139313-1.3085938.3027344-.3710956.1953134-.6705717.4394516-.8984375.7324218-.2799493.3059911-.4654943.6998674-.5566406 1.1816406-.1041672.5078151-.15625 1.4615816-.15625 2.8613282s.0520828 2.3470027.15625 2.8417968c.0911463.4947942.2766913.8951808.5566406 1.2011719.2278658.2929702.5273419.5305981.8984375.7128907.3645852.2148448.8007787.3222656 1.3085938.3222656 1.2109435 0 2.1158824-.64778 2.7148437-1.9433594zm-17.3828125-7.5195312c.0130209-.8203167.292966-1.4973932.8398437-2.03125.5468778-.5338569 1.2206992-.8072917 2.0214844-.8203126.8268271.0130209 1.5039036.2864557 2.03125.8203126.5338568.5338568.8072916 1.2109333.8203125 2.03125-.0130209.8007852-.2864557 1.4746066-.8203125 2.0214843-.5273464.5468778-1.2044229.8268229-2.03125.8398438-.8007852-.0130209-1.4746066-.292966-2.0214844-.8398438-.5468777-.5468777-.8268228-1.2206991-.8398437-2.0214843zm1.015625 0c0 .5208359.1888002.9505191.5664062 1.2890624.3320329.3710957.758461.5566407 1.2792969.5566407.5273464 0 .9667951-.185545 1.3183594-.5566407.3320329-.3385433.5045572-.7682265.5175781-1.2890624-.0130209-.5273464-.1855452-.9667952-.5175781-1.3183594-.3515643-.3320329-.791013-.5045573-1.3183594-.5175782-.5208359.0130209-.947264.1855453-1.2792969.5175782-.377606.3515642-.5664062.791013-.5664062 1.3183594z" fill="#60d064"/></g></svg>