<svg height="48" viewBox="0 0 48 48" width="48" xmlns="http://www.w3.org/2000/svg"><g fill="none" fill-rule="evenodd"><path d="m24 48c13.254834 0 24-10.745166 24-24s-10.745166-24-24-24-24 10.745166-24 24 10.745166 24 24 24z" fill="#fff"/><path d="m16.5234375 25.9023438-2.0605469-6.2207032h-.0390625l-2.0605469 6.2207032zm.6152344 1.9140624h-5.4003907l-1.09375 3.1835938h-2.2851562l5.1757812-14.2382812h1.8066407l5.1757812 14.2382812h-2.2753906zm3.7167969-6.953125h2.0410156v1.0742188h.0390625c.6705762-.8007853 1.5494737-1.2011719 2.6367187-1.2011719.839848 0 1.6080695.296221 2.3046875.8886719.6901076.5989613 1.0514322 1.4778588 1.0839844 2.6367188v6.7382812h-2.0410156v-6.0351562c0-.709639-.1888002-1.2499982-.5664063-1.6210938-.3710956-.3776061-.8496064-.5664062-1.4355468-.5664062-.5859405 0-1.0677065.1888001-1.4453126.5664062-.3841165.3710956-.5761718.9114548-.5761718 1.6210938v6.0351562h-2.0410156zm15.8066406 9.0722657c-.6705763.7617225-1.5462186 1.1555988-2.6269532 1.1816406-.6119822-.0130209-1.1360655-.1399728-1.5722656-.3808594-.4557314-.2343761-.836587-.546873-1.1425781-.9375-.2799493-.319012-.4654943-.7519504-.5566406-1.2988281-.1106777-.5208359-.1660157-1.3802023-.1660157-2.578125 0-1.217454.055338-2.0833308.1660157-2.5976562.0911463-.520836.2766913-.9407537.5566406-1.2597657.5729195-.8528688 1.4778584-1.2955727 2.7148437-1.328125.520836 0 1.002602.1074208 1.4453126.3222657.4101583.2278657.8040345.5208315 1.1816406.8789062v-5.1757812h2.0410156v14.2382812h-2.0410156zm-2.0019532-7.1582031c-.4817732 0-.8496081.0813793-1.1035156.2441406-.2799493.1757821-.4850254.4166651-.6152344.7226562-.1236985.3059911-.2050779.6380191-.2441406.9960938-.0390627.3841165-.0585937.7779927-.0585937 1.1816406 0 .3841165.019531.7584617.0585937 1.1230469.0390627.3841165.1204421.7291651.2441406 1.0351562.130209.2929702.3352851.5338532.6152344.7226563.2539075.1822926.6217424.2734375 1.1035156.2734375.4817733 0 .8626289-.0976553 1.1425782-.2929688.2799493-.188803.4720047-.4361964.5761718-.7421875.130209-.3059911.2180988-.6477845.2636719-1.0253906.0130209-.3710956.0195313-.7356753.0195313-1.09375 0-.390627-.0065104-.7649722-.0195313-1.1230469-.0455731-.3580747-.1334629-.6901026-.2636719-.9960937-.1041671-.3059911-.2962225-.5533845-.5761718-.7421875-.2799493-.1888031-.6608049-.2832031-1.1425782-.2832031z" fill="#fe6f7b"/></g></svg>