<svg height="48" viewBox="0 0 48 48" width="48" xmlns="http://www.w3.org/2000/svg"><g fill="none" fill-rule="evenodd"><path d="m24 48c13.254834 0 24-10.745166 24-24s-10.745166-24-24-24-24 10.745166-24 24 10.745166 24 24 24z" fill="#fff"/><path d="m24.5244141 23.1582031h5.0585937v2.9003907c-.0260418 1.4257883-.5143182 2.6204378-1.4648437 3.5839843-.9570361.9570361-2.1614511 1.4485676-3.6132813 1.4746094-1.1197973-.0260418-2.0540327-.2994766-2.8027344-.8203125-.7617225-.5013046-1.3151024-1.0807259-1.6601562-1.7382812-.1041672-.2148449-.1985673-.4199209-.2832031-.6152344-.0781254-.201824-.1432289-.4557277-.1953125-.7617188-.0976568-.5729195-.1464844-1.6731689-.1464844-3.3007812 0-1.6536541.0488276-2.7604139.1464844-3.3203125.1041671-.5598987.2636708-1.0123681.4785156-1.3574219.3450538-.6575554.8984337-1.243487 1.6601562-1.7578125.7487017-.5208359 1.6829371-.7877604 2.8027344-.8007813 1.3737048.0130209 2.4934853.4199179 3.359375 1.2207032.8658898.8072957 1.4127593 1.8066346 1.640625 2.9980468h-2.2851562c-.1757822-.5729195-.4947894-1.0611958-.9570313-1.4648437-.4817732-.3841165-1.0677049-.5826822-1.7578125-.5957031-.507815.0130209-.9440086.1139313-1.3085937.3027344-.3710956.1953134-.6705718.4394516-.8984375.7324218-.2799494.3059911-.4654944.6998674-.5566407 1.1816406-.1041671.5078151-.15625 1.4615816-.15625 2.8613282s.0520829 2.3470027.15625 2.8417968c.0911463.4947942.2766913.8951808.5566407 1.2011719.2278657.2929702.5273419.5305981.8984375.7128907.3645851.2148448.8007787.3222656 1.3085937.3222656.839848 0 1.5332004-.2864555 2.0800781-.859375.5468778-.5468778.8268229-1.2662716.8398438-2.1582032v-.7421874h-2.9003906z" fill="#60d064"/></g></svg>