<svg height="48" viewBox="0 0 48 48" width="48" xmlns="http://www.w3.org/2000/svg"><g fill="none" fill-rule="evenodd"><path d="m24 48c13.254834 0 24-10.745166 24-24s-10.745166-24-24-24-24 10.745166-24 24 10.745166 24 24 24z" fill="#fff"/><path d="m22.0634766 23.0019531h3.2617187c.8072957-.0130209 1.4127584-.2473935 1.8164063-.703125.3971374-.4231792.5957031-.9440073.5957031-1.5625-.0130209-.7421912-.2506487-1.2792952-.7128906-1.6113281-.3645852-.2929702-.8919237-.4394531-1.5820313-.4394531h-3.3789062zm-2.1582032-6.2402343h5.5566407c1.1849017 0 2.1516889.3124968 2.9003906.9375.9049524.7096389 1.3769529 1.7219986 1.4160156 3.0371093-.0260418 1.9336034-.9440014 3.2486945-2.7539062 3.9453125l3.3007812 6.3183594h-2.5683594l-2.9394531-6.0839844h-2.7539062v6.0839844h-2.1582032z" fill="#fe6f7b"/></g></svg>