<svg height="48" viewBox="0 0 48 48" width="48" xmlns="http://www.w3.org/2000/svg"><g fill="none" fill-rule="evenodd"><path d="m24 48c13.254834 0 24-10.745166 24-24s-10.745166-24-24-24-24 10.745166-24 24 10.745166 24 24 24z" fill="#fff"/><path d="m19.9052734 16.7617188h5.5175782c1.3997465.0130208 2.4511683.3645798 3.1542968 1.0546874.709639.6966181 1.0644532 1.6178329 1.0644532 2.7636719.0130209.5859405-.1269517 1.1458307-.4199219 1.6796875-.1497403.2539075-.3645819.4947906-.6445313.7226563-.2799493.2408866-.6249979.4589834-1.0351562.6542969v.0390624c.7747434.201824 1.3606751.6087209 1.7578125 1.2207032.3710956.6315135.5566406 1.3183556.5566406 2.0605468-.0130209 1.230475-.3971316 2.2037725-1.1523437 2.9199219-.7487017.7487017-1.6829371 1.1230469-2.8027344 1.1230469h-5.9960938zm2.1582032 7.9199218v4.2773438h3.3203125c.8007852-.0130209 1.3867169-.2311177 1.7578125-.6542969.3710956-.4166687.5566406-.9114555.5566406-1.484375 0-.5859404-.185545-1.0872375-.5566406-1.5039063-.3710956-.4101583-.9570273-.6217447-1.7578125-.6347656zm0-5.9960937v4.0722656h3.1152343c.7877644 0 1.3671857-.2050761 1.7382813-.6152344.377606-.377606.5664062-.8528617.5664062-1.4257812 0-.5729196-.1888002-1.0579407-.5664062-1.4550781-.3710956-.3710957-.9505169-.563151-1.7382813-.5761719z" fill="#48c9f6"/></g></svg>