<svg height="48" viewBox="0 0 48 48" width="48" xmlns="http://www.w3.org/2000/svg"><g fill="none" fill-rule="evenodd"><path d="m24 48c13.254834 0 24-10.745166 24-24s-10.745166-24-24-24-24 10.745166-24 24 10.745166 24 24 24z" fill="#fff"/><path d="m22.3388672 17.7617188h9.0917969v2.0410156h-6.9335938v4.1992187h5.9179688v1.9140625h-5.9179688v6.0839844h-2.1582031zm-7.7734375 2.734375c.0130209-.8203167.292966-1.4973932.8398437-2.03125.5468778-.5338569 1.2206992-.8072917 2.0214844-.8203126.8268271.0130209 1.5039036.2864557 2.03125.8203126.5338568.5338568.8072916 1.2109333.8203125 2.03125-.0130209.8007852-.2864557 1.4746066-.8203125 2.0214843-.5273464.5468778-1.2044229.8268229-2.03125.8398438-.8007852-.0130209-1.4746066-.292966-2.0214844-.8398438-.5468777-.5468777-.8268228-1.2206991-.8398437-2.0214843zm1.015625 0c0 .5208359.1888002.9505191.5664062 1.2890624.3320329.3710957.758461.5566407 1.2792969.5566407.5273464 0 .9667951-.185545 1.3183594-.5566407.3320329-.3385433.5045572-.7682265.5175781-1.2890624-.0130209-.5273464-.1855452-.9667952-.5175781-1.3183594-.3515643-.3320329-.791013-.5045573-1.3183594-.5175782-.5208359.0130209-.947264.1855453-1.2792969.5175782-.377606.3515642-.5664062.791013-.5664062 1.3183594z" fill="#8297f5"/></g></svg>